%TF.GenerationSoftware,KiCad,Pcbnew,9.0.5*%
%TF.CreationDate,2025-11-02T15:14:47-08:00*%
%TF.ProjectId,MacroPad,4d616372-6f50-4616-942e-6b696361645f,rev?*%
%TF.SameCoordinates,Original*%
%TF.FileFunction,Legend,Bot*%
%TF.FilePolarity,Positive*%
%FSLAX46Y46*%
G04 Gerber Fmt 4.6, Leading zero omitted, Abs format (unit mm)*
G04 Created by KiCad (PCBNEW 9.0.5) date 2025-11-02 15:14:47*
%MOMM*%
%LPD*%
G01*
G04 APERTURE LIST*
%ADD10C,0.150000*%
%ADD11C,0.120000*%
%ADD12C,0.100000*%
%ADD13C,0.000000*%
G04 APERTURE END LIST*
D10*
X76404819Y-160235714D02*
X75404819Y-160235714D01*
X75404819Y-160235714D02*
X75404819Y-160473809D01*
X75404819Y-160473809D02*
X75452438Y-160616666D01*
X75452438Y-160616666D02*
X75547676Y-160711904D01*
X75547676Y-160711904D02*
X75642914Y-160759523D01*
X75642914Y-160759523D02*
X75833390Y-160807142D01*
X75833390Y-160807142D02*
X75976247Y-160807142D01*
X75976247Y-160807142D02*
X76166723Y-160759523D01*
X76166723Y-160759523D02*
X76261961Y-160711904D01*
X76261961Y-160711904D02*
X76357200Y-160616666D01*
X76357200Y-160616666D02*
X76404819Y-160473809D01*
X76404819Y-160473809D02*
X76404819Y-160235714D01*
X76404819Y-161759523D02*
X76404819Y-161188095D01*
X76404819Y-161473809D02*
X75404819Y-161473809D01*
X75404819Y-161473809D02*
X75547676Y-161378571D01*
X75547676Y-161378571D02*
X75642914Y-161283333D01*
X75642914Y-161283333D02*
X75690533Y-161188095D01*
X76404819Y-162235714D02*
X76404819Y-162426190D01*
X76404819Y-162426190D02*
X76357200Y-162521428D01*
X76357200Y-162521428D02*
X76309580Y-162569047D01*
X76309580Y-162569047D02*
X76166723Y-162664285D01*
X76166723Y-162664285D02*
X75976247Y-162711904D01*
X75976247Y-162711904D02*
X75595295Y-162711904D01*
X75595295Y-162711904D02*
X75500057Y-162664285D01*
X75500057Y-162664285D02*
X75452438Y-162616666D01*
X75452438Y-162616666D02*
X75404819Y-162521428D01*
X75404819Y-162521428D02*
X75404819Y-162330952D01*
X75404819Y-162330952D02*
X75452438Y-162235714D01*
X75452438Y-162235714D02*
X75500057Y-162188095D01*
X75500057Y-162188095D02*
X75595295Y-162140476D01*
X75595295Y-162140476D02*
X75833390Y-162140476D01*
X75833390Y-162140476D02*
X75928628Y-162188095D01*
X75928628Y-162188095D02*
X75976247Y-162235714D01*
X75976247Y-162235714D02*
X76023866Y-162330952D01*
X76023866Y-162330952D02*
X76023866Y-162521428D01*
X76023866Y-162521428D02*
X75976247Y-162616666D01*
X75976247Y-162616666D02*
X75928628Y-162664285D01*
X75928628Y-162664285D02*
X75833390Y-162711904D01*
X104979819Y-122135714D02*
X103979819Y-122135714D01*
X103979819Y-122135714D02*
X103979819Y-122373809D01*
X103979819Y-122373809D02*
X104027438Y-122516666D01*
X104027438Y-122516666D02*
X104122676Y-122611904D01*
X104122676Y-122611904D02*
X104217914Y-122659523D01*
X104217914Y-122659523D02*
X104408390Y-122707142D01*
X104408390Y-122707142D02*
X104551247Y-122707142D01*
X104551247Y-122707142D02*
X104741723Y-122659523D01*
X104741723Y-122659523D02*
X104836961Y-122611904D01*
X104836961Y-122611904D02*
X104932200Y-122516666D01*
X104932200Y-122516666D02*
X104979819Y-122373809D01*
X104979819Y-122373809D02*
X104979819Y-122135714D01*
X104979819Y-123659523D02*
X104979819Y-123088095D01*
X104979819Y-123373809D02*
X103979819Y-123373809D01*
X103979819Y-123373809D02*
X104122676Y-123278571D01*
X104122676Y-123278571D02*
X104217914Y-123183333D01*
X104217914Y-123183333D02*
X104265533Y-123088095D01*
X104075057Y-124040476D02*
X104027438Y-124088095D01*
X104027438Y-124088095D02*
X103979819Y-124183333D01*
X103979819Y-124183333D02*
X103979819Y-124421428D01*
X103979819Y-124421428D02*
X104027438Y-124516666D01*
X104027438Y-124516666D02*
X104075057Y-124564285D01*
X104075057Y-124564285D02*
X104170295Y-124611904D01*
X104170295Y-124611904D02*
X104265533Y-124611904D01*
X104265533Y-124611904D02*
X104408390Y-124564285D01*
X104408390Y-124564285D02*
X104979819Y-123992857D01*
X104979819Y-123992857D02*
X104979819Y-124611904D01*
X104979819Y-84511905D02*
X103979819Y-84511905D01*
X103979819Y-84511905D02*
X103979819Y-84750000D01*
X103979819Y-84750000D02*
X104027438Y-84892857D01*
X104027438Y-84892857D02*
X104122676Y-84988095D01*
X104122676Y-84988095D02*
X104217914Y-85035714D01*
X104217914Y-85035714D02*
X104408390Y-85083333D01*
X104408390Y-85083333D02*
X104551247Y-85083333D01*
X104551247Y-85083333D02*
X104741723Y-85035714D01*
X104741723Y-85035714D02*
X104836961Y-84988095D01*
X104836961Y-84988095D02*
X104932200Y-84892857D01*
X104932200Y-84892857D02*
X104979819Y-84750000D01*
X104979819Y-84750000D02*
X104979819Y-84511905D01*
X103979819Y-85416667D02*
X103979819Y-86035714D01*
X103979819Y-86035714D02*
X104360771Y-85702381D01*
X104360771Y-85702381D02*
X104360771Y-85845238D01*
X104360771Y-85845238D02*
X104408390Y-85940476D01*
X104408390Y-85940476D02*
X104456009Y-85988095D01*
X104456009Y-85988095D02*
X104551247Y-86035714D01*
X104551247Y-86035714D02*
X104789342Y-86035714D01*
X104789342Y-86035714D02*
X104884580Y-85988095D01*
X104884580Y-85988095D02*
X104932200Y-85940476D01*
X104932200Y-85940476D02*
X104979819Y-85845238D01*
X104979819Y-85845238D02*
X104979819Y-85559524D01*
X104979819Y-85559524D02*
X104932200Y-85464286D01*
X104932200Y-85464286D02*
X104884580Y-85416667D01*
X124029819Y-150710714D02*
X123029819Y-150710714D01*
X123029819Y-150710714D02*
X123029819Y-150948809D01*
X123029819Y-150948809D02*
X123077438Y-151091666D01*
X123077438Y-151091666D02*
X123172676Y-151186904D01*
X123172676Y-151186904D02*
X123267914Y-151234523D01*
X123267914Y-151234523D02*
X123458390Y-151282142D01*
X123458390Y-151282142D02*
X123601247Y-151282142D01*
X123601247Y-151282142D02*
X123791723Y-151234523D01*
X123791723Y-151234523D02*
X123886961Y-151186904D01*
X123886961Y-151186904D02*
X123982200Y-151091666D01*
X123982200Y-151091666D02*
X124029819Y-150948809D01*
X124029819Y-150948809D02*
X124029819Y-150710714D01*
X123125057Y-151663095D02*
X123077438Y-151710714D01*
X123077438Y-151710714D02*
X123029819Y-151805952D01*
X123029819Y-151805952D02*
X123029819Y-152044047D01*
X123029819Y-152044047D02*
X123077438Y-152139285D01*
X123077438Y-152139285D02*
X123125057Y-152186904D01*
X123125057Y-152186904D02*
X123220295Y-152234523D01*
X123220295Y-152234523D02*
X123315533Y-152234523D01*
X123315533Y-152234523D02*
X123458390Y-152186904D01*
X123458390Y-152186904D02*
X124029819Y-151615476D01*
X124029819Y-151615476D02*
X124029819Y-152234523D01*
X124029819Y-153186904D02*
X124029819Y-152615476D01*
X124029819Y-152901190D02*
X123029819Y-152901190D01*
X123029819Y-152901190D02*
X123172676Y-152805952D01*
X123172676Y-152805952D02*
X123267914Y-152710714D01*
X123267914Y-152710714D02*
X123315533Y-152615476D01*
X143079819Y-103561905D02*
X142079819Y-103561905D01*
X142079819Y-103561905D02*
X142079819Y-103800000D01*
X142079819Y-103800000D02*
X142127438Y-103942857D01*
X142127438Y-103942857D02*
X142222676Y-104038095D01*
X142222676Y-104038095D02*
X142317914Y-104085714D01*
X142317914Y-104085714D02*
X142508390Y-104133333D01*
X142508390Y-104133333D02*
X142651247Y-104133333D01*
X142651247Y-104133333D02*
X142841723Y-104085714D01*
X142841723Y-104085714D02*
X142936961Y-104038095D01*
X142936961Y-104038095D02*
X143032200Y-103942857D01*
X143032200Y-103942857D02*
X143079819Y-103800000D01*
X143079819Y-103800000D02*
X143079819Y-103561905D01*
X143079819Y-104609524D02*
X143079819Y-104800000D01*
X143079819Y-104800000D02*
X143032200Y-104895238D01*
X143032200Y-104895238D02*
X142984580Y-104942857D01*
X142984580Y-104942857D02*
X142841723Y-105038095D01*
X142841723Y-105038095D02*
X142651247Y-105085714D01*
X142651247Y-105085714D02*
X142270295Y-105085714D01*
X142270295Y-105085714D02*
X142175057Y-105038095D01*
X142175057Y-105038095D02*
X142127438Y-104990476D01*
X142127438Y-104990476D02*
X142079819Y-104895238D01*
X142079819Y-104895238D02*
X142079819Y-104704762D01*
X142079819Y-104704762D02*
X142127438Y-104609524D01*
X142127438Y-104609524D02*
X142175057Y-104561905D01*
X142175057Y-104561905D02*
X142270295Y-104514286D01*
X142270295Y-104514286D02*
X142508390Y-104514286D01*
X142508390Y-104514286D02*
X142603628Y-104561905D01*
X142603628Y-104561905D02*
X142651247Y-104609524D01*
X142651247Y-104609524D02*
X142698866Y-104704762D01*
X142698866Y-104704762D02*
X142698866Y-104895238D01*
X142698866Y-104895238D02*
X142651247Y-104990476D01*
X142651247Y-104990476D02*
X142603628Y-105038095D01*
X142603628Y-105038095D02*
X142508390Y-105085714D01*
X143079819Y-84511905D02*
X142079819Y-84511905D01*
X142079819Y-84511905D02*
X142079819Y-84750000D01*
X142079819Y-84750000D02*
X142127438Y-84892857D01*
X142127438Y-84892857D02*
X142222676Y-84988095D01*
X142222676Y-84988095D02*
X142317914Y-85035714D01*
X142317914Y-85035714D02*
X142508390Y-85083333D01*
X142508390Y-85083333D02*
X142651247Y-85083333D01*
X142651247Y-85083333D02*
X142841723Y-85035714D01*
X142841723Y-85035714D02*
X142936961Y-84988095D01*
X142936961Y-84988095D02*
X143032200Y-84892857D01*
X143032200Y-84892857D02*
X143079819Y-84750000D01*
X143079819Y-84750000D02*
X143079819Y-84511905D01*
X142079819Y-85988095D02*
X142079819Y-85511905D01*
X142079819Y-85511905D02*
X142556009Y-85464286D01*
X142556009Y-85464286D02*
X142508390Y-85511905D01*
X142508390Y-85511905D02*
X142460771Y-85607143D01*
X142460771Y-85607143D02*
X142460771Y-85845238D01*
X142460771Y-85845238D02*
X142508390Y-85940476D01*
X142508390Y-85940476D02*
X142556009Y-85988095D01*
X142556009Y-85988095D02*
X142651247Y-86035714D01*
X142651247Y-86035714D02*
X142889342Y-86035714D01*
X142889342Y-86035714D02*
X142984580Y-85988095D01*
X142984580Y-85988095D02*
X143032200Y-85940476D01*
X143032200Y-85940476D02*
X143079819Y-85845238D01*
X143079819Y-85845238D02*
X143079819Y-85607143D01*
X143079819Y-85607143D02*
X143032200Y-85511905D01*
X143032200Y-85511905D02*
X142984580Y-85464286D01*
X143079819Y-122135714D02*
X142079819Y-122135714D01*
X142079819Y-122135714D02*
X142079819Y-122373809D01*
X142079819Y-122373809D02*
X142127438Y-122516666D01*
X142127438Y-122516666D02*
X142222676Y-122611904D01*
X142222676Y-122611904D02*
X142317914Y-122659523D01*
X142317914Y-122659523D02*
X142508390Y-122707142D01*
X142508390Y-122707142D02*
X142651247Y-122707142D01*
X142651247Y-122707142D02*
X142841723Y-122659523D01*
X142841723Y-122659523D02*
X142936961Y-122611904D01*
X142936961Y-122611904D02*
X143032200Y-122516666D01*
X143032200Y-122516666D02*
X143079819Y-122373809D01*
X143079819Y-122373809D02*
X143079819Y-122135714D01*
X143079819Y-123659523D02*
X143079819Y-123088095D01*
X143079819Y-123373809D02*
X142079819Y-123373809D01*
X142079819Y-123373809D02*
X142222676Y-123278571D01*
X142222676Y-123278571D02*
X142317914Y-123183333D01*
X142317914Y-123183333D02*
X142365533Y-123088095D01*
X142413152Y-124516666D02*
X143079819Y-124516666D01*
X142032200Y-124278571D02*
X142746485Y-124040476D01*
X142746485Y-124040476D02*
X142746485Y-124659523D01*
X66879819Y-141185714D02*
X65879819Y-141185714D01*
X65879819Y-141185714D02*
X65879819Y-141423809D01*
X65879819Y-141423809D02*
X65927438Y-141566666D01*
X65927438Y-141566666D02*
X66022676Y-141661904D01*
X66022676Y-141661904D02*
X66117914Y-141709523D01*
X66117914Y-141709523D02*
X66308390Y-141757142D01*
X66308390Y-141757142D02*
X66451247Y-141757142D01*
X66451247Y-141757142D02*
X66641723Y-141709523D01*
X66641723Y-141709523D02*
X66736961Y-141661904D01*
X66736961Y-141661904D02*
X66832200Y-141566666D01*
X66832200Y-141566666D02*
X66879819Y-141423809D01*
X66879819Y-141423809D02*
X66879819Y-141185714D01*
X66879819Y-142709523D02*
X66879819Y-142138095D01*
X66879819Y-142423809D02*
X65879819Y-142423809D01*
X65879819Y-142423809D02*
X66022676Y-142328571D01*
X66022676Y-142328571D02*
X66117914Y-142233333D01*
X66117914Y-142233333D02*
X66165533Y-142138095D01*
X65879819Y-143614285D02*
X65879819Y-143138095D01*
X65879819Y-143138095D02*
X66356009Y-143090476D01*
X66356009Y-143090476D02*
X66308390Y-143138095D01*
X66308390Y-143138095D02*
X66260771Y-143233333D01*
X66260771Y-143233333D02*
X66260771Y-143471428D01*
X66260771Y-143471428D02*
X66308390Y-143566666D01*
X66308390Y-143566666D02*
X66356009Y-143614285D01*
X66356009Y-143614285D02*
X66451247Y-143661904D01*
X66451247Y-143661904D02*
X66689342Y-143661904D01*
X66689342Y-143661904D02*
X66784580Y-143614285D01*
X66784580Y-143614285D02*
X66832200Y-143566666D01*
X66832200Y-143566666D02*
X66879819Y-143471428D01*
X66879819Y-143471428D02*
X66879819Y-143233333D01*
X66879819Y-143233333D02*
X66832200Y-143138095D01*
X66832200Y-143138095D02*
X66784580Y-143090476D01*
X66879819Y-103561905D02*
X65879819Y-103561905D01*
X65879819Y-103561905D02*
X65879819Y-103800000D01*
X65879819Y-103800000D02*
X65927438Y-103942857D01*
X65927438Y-103942857D02*
X66022676Y-104038095D01*
X66022676Y-104038095D02*
X66117914Y-104085714D01*
X66117914Y-104085714D02*
X66308390Y-104133333D01*
X66308390Y-104133333D02*
X66451247Y-104133333D01*
X66451247Y-104133333D02*
X66641723Y-104085714D01*
X66641723Y-104085714D02*
X66736961Y-104038095D01*
X66736961Y-104038095D02*
X66832200Y-103942857D01*
X66832200Y-103942857D02*
X66879819Y-103800000D01*
X66879819Y-103800000D02*
X66879819Y-103561905D01*
X65879819Y-104990476D02*
X65879819Y-104800000D01*
X65879819Y-104800000D02*
X65927438Y-104704762D01*
X65927438Y-104704762D02*
X65975057Y-104657143D01*
X65975057Y-104657143D02*
X66117914Y-104561905D01*
X66117914Y-104561905D02*
X66308390Y-104514286D01*
X66308390Y-104514286D02*
X66689342Y-104514286D01*
X66689342Y-104514286D02*
X66784580Y-104561905D01*
X66784580Y-104561905D02*
X66832200Y-104609524D01*
X66832200Y-104609524D02*
X66879819Y-104704762D01*
X66879819Y-104704762D02*
X66879819Y-104895238D01*
X66879819Y-104895238D02*
X66832200Y-104990476D01*
X66832200Y-104990476D02*
X66784580Y-105038095D01*
X66784580Y-105038095D02*
X66689342Y-105085714D01*
X66689342Y-105085714D02*
X66451247Y-105085714D01*
X66451247Y-105085714D02*
X66356009Y-105038095D01*
X66356009Y-105038095D02*
X66308390Y-104990476D01*
X66308390Y-104990476D02*
X66260771Y-104895238D01*
X66260771Y-104895238D02*
X66260771Y-104704762D01*
X66260771Y-104704762D02*
X66308390Y-104609524D01*
X66308390Y-104609524D02*
X66356009Y-104561905D01*
X66356009Y-104561905D02*
X66451247Y-104514286D01*
X85929819Y-122135714D02*
X84929819Y-122135714D01*
X84929819Y-122135714D02*
X84929819Y-122373809D01*
X84929819Y-122373809D02*
X84977438Y-122516666D01*
X84977438Y-122516666D02*
X85072676Y-122611904D01*
X85072676Y-122611904D02*
X85167914Y-122659523D01*
X85167914Y-122659523D02*
X85358390Y-122707142D01*
X85358390Y-122707142D02*
X85501247Y-122707142D01*
X85501247Y-122707142D02*
X85691723Y-122659523D01*
X85691723Y-122659523D02*
X85786961Y-122611904D01*
X85786961Y-122611904D02*
X85882200Y-122516666D01*
X85882200Y-122516666D02*
X85929819Y-122373809D01*
X85929819Y-122373809D02*
X85929819Y-122135714D01*
X85929819Y-123659523D02*
X85929819Y-123088095D01*
X85929819Y-123373809D02*
X84929819Y-123373809D01*
X84929819Y-123373809D02*
X85072676Y-123278571D01*
X85072676Y-123278571D02*
X85167914Y-123183333D01*
X85167914Y-123183333D02*
X85215533Y-123088095D01*
X85929819Y-124611904D02*
X85929819Y-124040476D01*
X85929819Y-124326190D02*
X84929819Y-124326190D01*
X84929819Y-124326190D02*
X85072676Y-124230952D01*
X85072676Y-124230952D02*
X85167914Y-124135714D01*
X85167914Y-124135714D02*
X85215533Y-124040476D01*
X85929819Y-84511905D02*
X84929819Y-84511905D01*
X84929819Y-84511905D02*
X84929819Y-84750000D01*
X84929819Y-84750000D02*
X84977438Y-84892857D01*
X84977438Y-84892857D02*
X85072676Y-84988095D01*
X85072676Y-84988095D02*
X85167914Y-85035714D01*
X85167914Y-85035714D02*
X85358390Y-85083333D01*
X85358390Y-85083333D02*
X85501247Y-85083333D01*
X85501247Y-85083333D02*
X85691723Y-85035714D01*
X85691723Y-85035714D02*
X85786961Y-84988095D01*
X85786961Y-84988095D02*
X85882200Y-84892857D01*
X85882200Y-84892857D02*
X85929819Y-84750000D01*
X85929819Y-84750000D02*
X85929819Y-84511905D01*
X85025057Y-85464286D02*
X84977438Y-85511905D01*
X84977438Y-85511905D02*
X84929819Y-85607143D01*
X84929819Y-85607143D02*
X84929819Y-85845238D01*
X84929819Y-85845238D02*
X84977438Y-85940476D01*
X84977438Y-85940476D02*
X85025057Y-85988095D01*
X85025057Y-85988095D02*
X85120295Y-86035714D01*
X85120295Y-86035714D02*
X85215533Y-86035714D01*
X85215533Y-86035714D02*
X85358390Y-85988095D01*
X85358390Y-85988095D02*
X85929819Y-85416667D01*
X85929819Y-85416667D02*
X85929819Y-86035714D01*
X66879819Y-84511905D02*
X65879819Y-84511905D01*
X65879819Y-84511905D02*
X65879819Y-84750000D01*
X65879819Y-84750000D02*
X65927438Y-84892857D01*
X65927438Y-84892857D02*
X66022676Y-84988095D01*
X66022676Y-84988095D02*
X66117914Y-85035714D01*
X66117914Y-85035714D02*
X66308390Y-85083333D01*
X66308390Y-85083333D02*
X66451247Y-85083333D01*
X66451247Y-85083333D02*
X66641723Y-85035714D01*
X66641723Y-85035714D02*
X66736961Y-84988095D01*
X66736961Y-84988095D02*
X66832200Y-84892857D01*
X66832200Y-84892857D02*
X66879819Y-84750000D01*
X66879819Y-84750000D02*
X66879819Y-84511905D01*
X66879819Y-86035714D02*
X66879819Y-85464286D01*
X66879819Y-85750000D02*
X65879819Y-85750000D01*
X65879819Y-85750000D02*
X66022676Y-85654762D01*
X66022676Y-85654762D02*
X66117914Y-85559524D01*
X66117914Y-85559524D02*
X66165533Y-85464286D01*
X124029819Y-84511905D02*
X123029819Y-84511905D01*
X123029819Y-84511905D02*
X123029819Y-84750000D01*
X123029819Y-84750000D02*
X123077438Y-84892857D01*
X123077438Y-84892857D02*
X123172676Y-84988095D01*
X123172676Y-84988095D02*
X123267914Y-85035714D01*
X123267914Y-85035714D02*
X123458390Y-85083333D01*
X123458390Y-85083333D02*
X123601247Y-85083333D01*
X123601247Y-85083333D02*
X123791723Y-85035714D01*
X123791723Y-85035714D02*
X123886961Y-84988095D01*
X123886961Y-84988095D02*
X123982200Y-84892857D01*
X123982200Y-84892857D02*
X124029819Y-84750000D01*
X124029819Y-84750000D02*
X124029819Y-84511905D01*
X123363152Y-85940476D02*
X124029819Y-85940476D01*
X122982200Y-85702381D02*
X123696485Y-85464286D01*
X123696485Y-85464286D02*
X123696485Y-86083333D01*
X124029819Y-112610714D02*
X123029819Y-112610714D01*
X123029819Y-112610714D02*
X123029819Y-112848809D01*
X123029819Y-112848809D02*
X123077438Y-112991666D01*
X123077438Y-112991666D02*
X123172676Y-113086904D01*
X123172676Y-113086904D02*
X123267914Y-113134523D01*
X123267914Y-113134523D02*
X123458390Y-113182142D01*
X123458390Y-113182142D02*
X123601247Y-113182142D01*
X123601247Y-113182142D02*
X123791723Y-113134523D01*
X123791723Y-113134523D02*
X123886961Y-113086904D01*
X123886961Y-113086904D02*
X123982200Y-112991666D01*
X123982200Y-112991666D02*
X124029819Y-112848809D01*
X124029819Y-112848809D02*
X124029819Y-112610714D01*
X124029819Y-114134523D02*
X124029819Y-113563095D01*
X124029819Y-113848809D02*
X123029819Y-113848809D01*
X123029819Y-113848809D02*
X123172676Y-113753571D01*
X123172676Y-113753571D02*
X123267914Y-113658333D01*
X123267914Y-113658333D02*
X123315533Y-113563095D01*
X123029819Y-114467857D02*
X123029819Y-115086904D01*
X123029819Y-115086904D02*
X123410771Y-114753571D01*
X123410771Y-114753571D02*
X123410771Y-114896428D01*
X123410771Y-114896428D02*
X123458390Y-114991666D01*
X123458390Y-114991666D02*
X123506009Y-115039285D01*
X123506009Y-115039285D02*
X123601247Y-115086904D01*
X123601247Y-115086904D02*
X123839342Y-115086904D01*
X123839342Y-115086904D02*
X123934580Y-115039285D01*
X123934580Y-115039285D02*
X123982200Y-114991666D01*
X123982200Y-114991666D02*
X124029819Y-114896428D01*
X124029819Y-114896428D02*
X124029819Y-114610714D01*
X124029819Y-114610714D02*
X123982200Y-114515476D01*
X123982200Y-114515476D02*
X123934580Y-114467857D01*
X66879819Y-122135714D02*
X65879819Y-122135714D01*
X65879819Y-122135714D02*
X65879819Y-122373809D01*
X65879819Y-122373809D02*
X65927438Y-122516666D01*
X65927438Y-122516666D02*
X66022676Y-122611904D01*
X66022676Y-122611904D02*
X66117914Y-122659523D01*
X66117914Y-122659523D02*
X66308390Y-122707142D01*
X66308390Y-122707142D02*
X66451247Y-122707142D01*
X66451247Y-122707142D02*
X66641723Y-122659523D01*
X66641723Y-122659523D02*
X66736961Y-122611904D01*
X66736961Y-122611904D02*
X66832200Y-122516666D01*
X66832200Y-122516666D02*
X66879819Y-122373809D01*
X66879819Y-122373809D02*
X66879819Y-122135714D01*
X66879819Y-123659523D02*
X66879819Y-123088095D01*
X66879819Y-123373809D02*
X65879819Y-123373809D01*
X65879819Y-123373809D02*
X66022676Y-123278571D01*
X66022676Y-123278571D02*
X66117914Y-123183333D01*
X66117914Y-123183333D02*
X66165533Y-123088095D01*
X65879819Y-124278571D02*
X65879819Y-124373809D01*
X65879819Y-124373809D02*
X65927438Y-124469047D01*
X65927438Y-124469047D02*
X65975057Y-124516666D01*
X65975057Y-124516666D02*
X66070295Y-124564285D01*
X66070295Y-124564285D02*
X66260771Y-124611904D01*
X66260771Y-124611904D02*
X66498866Y-124611904D01*
X66498866Y-124611904D02*
X66689342Y-124564285D01*
X66689342Y-124564285D02*
X66784580Y-124516666D01*
X66784580Y-124516666D02*
X66832200Y-124469047D01*
X66832200Y-124469047D02*
X66879819Y-124373809D01*
X66879819Y-124373809D02*
X66879819Y-124278571D01*
X66879819Y-124278571D02*
X66832200Y-124183333D01*
X66832200Y-124183333D02*
X66784580Y-124135714D01*
X66784580Y-124135714D02*
X66689342Y-124088095D01*
X66689342Y-124088095D02*
X66498866Y-124040476D01*
X66498866Y-124040476D02*
X66260771Y-124040476D01*
X66260771Y-124040476D02*
X66070295Y-124088095D01*
X66070295Y-124088095D02*
X65975057Y-124135714D01*
X65975057Y-124135714D02*
X65927438Y-124183333D01*
X65927438Y-124183333D02*
X65879819Y-124278571D01*
X104979819Y-141185714D02*
X103979819Y-141185714D01*
X103979819Y-141185714D02*
X103979819Y-141423809D01*
X103979819Y-141423809D02*
X104027438Y-141566666D01*
X104027438Y-141566666D02*
X104122676Y-141661904D01*
X104122676Y-141661904D02*
X104217914Y-141709523D01*
X104217914Y-141709523D02*
X104408390Y-141757142D01*
X104408390Y-141757142D02*
X104551247Y-141757142D01*
X104551247Y-141757142D02*
X104741723Y-141709523D01*
X104741723Y-141709523D02*
X104836961Y-141661904D01*
X104836961Y-141661904D02*
X104932200Y-141566666D01*
X104932200Y-141566666D02*
X104979819Y-141423809D01*
X104979819Y-141423809D02*
X104979819Y-141185714D01*
X104979819Y-142709523D02*
X104979819Y-142138095D01*
X104979819Y-142423809D02*
X103979819Y-142423809D01*
X103979819Y-142423809D02*
X104122676Y-142328571D01*
X104122676Y-142328571D02*
X104217914Y-142233333D01*
X104217914Y-142233333D02*
X104265533Y-142138095D01*
X103979819Y-143042857D02*
X103979819Y-143709523D01*
X103979819Y-143709523D02*
X104979819Y-143280952D01*
X143079819Y-141185714D02*
X142079819Y-141185714D01*
X142079819Y-141185714D02*
X142079819Y-141423809D01*
X142079819Y-141423809D02*
X142127438Y-141566666D01*
X142127438Y-141566666D02*
X142222676Y-141661904D01*
X142222676Y-141661904D02*
X142317914Y-141709523D01*
X142317914Y-141709523D02*
X142508390Y-141757142D01*
X142508390Y-141757142D02*
X142651247Y-141757142D01*
X142651247Y-141757142D02*
X142841723Y-141709523D01*
X142841723Y-141709523D02*
X142936961Y-141661904D01*
X142936961Y-141661904D02*
X143032200Y-141566666D01*
X143032200Y-141566666D02*
X143079819Y-141423809D01*
X143079819Y-141423809D02*
X143079819Y-141185714D01*
X143079819Y-142709523D02*
X143079819Y-142138095D01*
X143079819Y-142423809D02*
X142079819Y-142423809D01*
X142079819Y-142423809D02*
X142222676Y-142328571D01*
X142222676Y-142328571D02*
X142317914Y-142233333D01*
X142317914Y-142233333D02*
X142365533Y-142138095D01*
X142508390Y-143280952D02*
X142460771Y-143185714D01*
X142460771Y-143185714D02*
X142413152Y-143138095D01*
X142413152Y-143138095D02*
X142317914Y-143090476D01*
X142317914Y-143090476D02*
X142270295Y-143090476D01*
X142270295Y-143090476D02*
X142175057Y-143138095D01*
X142175057Y-143138095D02*
X142127438Y-143185714D01*
X142127438Y-143185714D02*
X142079819Y-143280952D01*
X142079819Y-143280952D02*
X142079819Y-143471428D01*
X142079819Y-143471428D02*
X142127438Y-143566666D01*
X142127438Y-143566666D02*
X142175057Y-143614285D01*
X142175057Y-143614285D02*
X142270295Y-143661904D01*
X142270295Y-143661904D02*
X142317914Y-143661904D01*
X142317914Y-143661904D02*
X142413152Y-143614285D01*
X142413152Y-143614285D02*
X142460771Y-143566666D01*
X142460771Y-143566666D02*
X142508390Y-143471428D01*
X142508390Y-143471428D02*
X142508390Y-143280952D01*
X142508390Y-143280952D02*
X142556009Y-143185714D01*
X142556009Y-143185714D02*
X142603628Y-143138095D01*
X142603628Y-143138095D02*
X142698866Y-143090476D01*
X142698866Y-143090476D02*
X142889342Y-143090476D01*
X142889342Y-143090476D02*
X142984580Y-143138095D01*
X142984580Y-143138095D02*
X143032200Y-143185714D01*
X143032200Y-143185714D02*
X143079819Y-143280952D01*
X143079819Y-143280952D02*
X143079819Y-143471428D01*
X143079819Y-143471428D02*
X143032200Y-143566666D01*
X143032200Y-143566666D02*
X142984580Y-143614285D01*
X142984580Y-143614285D02*
X142889342Y-143661904D01*
X142889342Y-143661904D02*
X142698866Y-143661904D01*
X142698866Y-143661904D02*
X142603628Y-143614285D01*
X142603628Y-143614285D02*
X142556009Y-143566666D01*
X142556009Y-143566666D02*
X142508390Y-143471428D01*
X85929819Y-103561905D02*
X84929819Y-103561905D01*
X84929819Y-103561905D02*
X84929819Y-103800000D01*
X84929819Y-103800000D02*
X84977438Y-103942857D01*
X84977438Y-103942857D02*
X85072676Y-104038095D01*
X85072676Y-104038095D02*
X85167914Y-104085714D01*
X85167914Y-104085714D02*
X85358390Y-104133333D01*
X85358390Y-104133333D02*
X85501247Y-104133333D01*
X85501247Y-104133333D02*
X85691723Y-104085714D01*
X85691723Y-104085714D02*
X85786961Y-104038095D01*
X85786961Y-104038095D02*
X85882200Y-103942857D01*
X85882200Y-103942857D02*
X85929819Y-103800000D01*
X85929819Y-103800000D02*
X85929819Y-103561905D01*
X84929819Y-104466667D02*
X84929819Y-105133333D01*
X84929819Y-105133333D02*
X85929819Y-104704762D01*
X104979819Y-103561905D02*
X103979819Y-103561905D01*
X103979819Y-103561905D02*
X103979819Y-103800000D01*
X103979819Y-103800000D02*
X104027438Y-103942857D01*
X104027438Y-103942857D02*
X104122676Y-104038095D01*
X104122676Y-104038095D02*
X104217914Y-104085714D01*
X104217914Y-104085714D02*
X104408390Y-104133333D01*
X104408390Y-104133333D02*
X104551247Y-104133333D01*
X104551247Y-104133333D02*
X104741723Y-104085714D01*
X104741723Y-104085714D02*
X104836961Y-104038095D01*
X104836961Y-104038095D02*
X104932200Y-103942857D01*
X104932200Y-103942857D02*
X104979819Y-103800000D01*
X104979819Y-103800000D02*
X104979819Y-103561905D01*
X104408390Y-104704762D02*
X104360771Y-104609524D01*
X104360771Y-104609524D02*
X104313152Y-104561905D01*
X104313152Y-104561905D02*
X104217914Y-104514286D01*
X104217914Y-104514286D02*
X104170295Y-104514286D01*
X104170295Y-104514286D02*
X104075057Y-104561905D01*
X104075057Y-104561905D02*
X104027438Y-104609524D01*
X104027438Y-104609524D02*
X103979819Y-104704762D01*
X103979819Y-104704762D02*
X103979819Y-104895238D01*
X103979819Y-104895238D02*
X104027438Y-104990476D01*
X104027438Y-104990476D02*
X104075057Y-105038095D01*
X104075057Y-105038095D02*
X104170295Y-105085714D01*
X104170295Y-105085714D02*
X104217914Y-105085714D01*
X104217914Y-105085714D02*
X104313152Y-105038095D01*
X104313152Y-105038095D02*
X104360771Y-104990476D01*
X104360771Y-104990476D02*
X104408390Y-104895238D01*
X104408390Y-104895238D02*
X104408390Y-104704762D01*
X104408390Y-104704762D02*
X104456009Y-104609524D01*
X104456009Y-104609524D02*
X104503628Y-104561905D01*
X104503628Y-104561905D02*
X104598866Y-104514286D01*
X104598866Y-104514286D02*
X104789342Y-104514286D01*
X104789342Y-104514286D02*
X104884580Y-104561905D01*
X104884580Y-104561905D02*
X104932200Y-104609524D01*
X104932200Y-104609524D02*
X104979819Y-104704762D01*
X104979819Y-104704762D02*
X104979819Y-104895238D01*
X104979819Y-104895238D02*
X104932200Y-104990476D01*
X104932200Y-104990476D02*
X104884580Y-105038095D01*
X104884580Y-105038095D02*
X104789342Y-105085714D01*
X104789342Y-105085714D02*
X104598866Y-105085714D01*
X104598866Y-105085714D02*
X104503628Y-105038095D01*
X104503628Y-105038095D02*
X104456009Y-104990476D01*
X104456009Y-104990476D02*
X104408390Y-104895238D01*
X143079819Y-160235714D02*
X142079819Y-160235714D01*
X142079819Y-160235714D02*
X142079819Y-160473809D01*
X142079819Y-160473809D02*
X142127438Y-160616666D01*
X142127438Y-160616666D02*
X142222676Y-160711904D01*
X142222676Y-160711904D02*
X142317914Y-160759523D01*
X142317914Y-160759523D02*
X142508390Y-160807142D01*
X142508390Y-160807142D02*
X142651247Y-160807142D01*
X142651247Y-160807142D02*
X142841723Y-160759523D01*
X142841723Y-160759523D02*
X142936961Y-160711904D01*
X142936961Y-160711904D02*
X143032200Y-160616666D01*
X143032200Y-160616666D02*
X143079819Y-160473809D01*
X143079819Y-160473809D02*
X143079819Y-160235714D01*
X142175057Y-161188095D02*
X142127438Y-161235714D01*
X142127438Y-161235714D02*
X142079819Y-161330952D01*
X142079819Y-161330952D02*
X142079819Y-161569047D01*
X142079819Y-161569047D02*
X142127438Y-161664285D01*
X142127438Y-161664285D02*
X142175057Y-161711904D01*
X142175057Y-161711904D02*
X142270295Y-161759523D01*
X142270295Y-161759523D02*
X142365533Y-161759523D01*
X142365533Y-161759523D02*
X142508390Y-161711904D01*
X142508390Y-161711904D02*
X143079819Y-161140476D01*
X143079819Y-161140476D02*
X143079819Y-161759523D01*
X142175057Y-162140476D02*
X142127438Y-162188095D01*
X142127438Y-162188095D02*
X142079819Y-162283333D01*
X142079819Y-162283333D02*
X142079819Y-162521428D01*
X142079819Y-162521428D02*
X142127438Y-162616666D01*
X142127438Y-162616666D02*
X142175057Y-162664285D01*
X142175057Y-162664285D02*
X142270295Y-162711904D01*
X142270295Y-162711904D02*
X142365533Y-162711904D01*
X142365533Y-162711904D02*
X142508390Y-162664285D01*
X142508390Y-162664285D02*
X143079819Y-162092857D01*
X143079819Y-162092857D02*
X143079819Y-162711904D01*
X104979819Y-160235714D02*
X103979819Y-160235714D01*
X103979819Y-160235714D02*
X103979819Y-160473809D01*
X103979819Y-160473809D02*
X104027438Y-160616666D01*
X104027438Y-160616666D02*
X104122676Y-160711904D01*
X104122676Y-160711904D02*
X104217914Y-160759523D01*
X104217914Y-160759523D02*
X104408390Y-160807142D01*
X104408390Y-160807142D02*
X104551247Y-160807142D01*
X104551247Y-160807142D02*
X104741723Y-160759523D01*
X104741723Y-160759523D02*
X104836961Y-160711904D01*
X104836961Y-160711904D02*
X104932200Y-160616666D01*
X104932200Y-160616666D02*
X104979819Y-160473809D01*
X104979819Y-160473809D02*
X104979819Y-160235714D01*
X104075057Y-161188095D02*
X104027438Y-161235714D01*
X104027438Y-161235714D02*
X103979819Y-161330952D01*
X103979819Y-161330952D02*
X103979819Y-161569047D01*
X103979819Y-161569047D02*
X104027438Y-161664285D01*
X104027438Y-161664285D02*
X104075057Y-161711904D01*
X104075057Y-161711904D02*
X104170295Y-161759523D01*
X104170295Y-161759523D02*
X104265533Y-161759523D01*
X104265533Y-161759523D02*
X104408390Y-161711904D01*
X104408390Y-161711904D02*
X104979819Y-161140476D01*
X104979819Y-161140476D02*
X104979819Y-161759523D01*
X103979819Y-162378571D02*
X103979819Y-162473809D01*
X103979819Y-162473809D02*
X104027438Y-162569047D01*
X104027438Y-162569047D02*
X104075057Y-162616666D01*
X104075057Y-162616666D02*
X104170295Y-162664285D01*
X104170295Y-162664285D02*
X104360771Y-162711904D01*
X104360771Y-162711904D02*
X104598866Y-162711904D01*
X104598866Y-162711904D02*
X104789342Y-162664285D01*
X104789342Y-162664285D02*
X104884580Y-162616666D01*
X104884580Y-162616666D02*
X104932200Y-162569047D01*
X104932200Y-162569047D02*
X104979819Y-162473809D01*
X104979819Y-162473809D02*
X104979819Y-162378571D01*
X104979819Y-162378571D02*
X104932200Y-162283333D01*
X104932200Y-162283333D02*
X104884580Y-162235714D01*
X104884580Y-162235714D02*
X104789342Y-162188095D01*
X104789342Y-162188095D02*
X104598866Y-162140476D01*
X104598866Y-162140476D02*
X104360771Y-162140476D01*
X104360771Y-162140476D02*
X104170295Y-162188095D01*
X104170295Y-162188095D02*
X104075057Y-162235714D01*
X104075057Y-162235714D02*
X104027438Y-162283333D01*
X104027438Y-162283333D02*
X103979819Y-162378571D01*
X85929819Y-141185714D02*
X84929819Y-141185714D01*
X84929819Y-141185714D02*
X84929819Y-141423809D01*
X84929819Y-141423809D02*
X84977438Y-141566666D01*
X84977438Y-141566666D02*
X85072676Y-141661904D01*
X85072676Y-141661904D02*
X85167914Y-141709523D01*
X85167914Y-141709523D02*
X85358390Y-141757142D01*
X85358390Y-141757142D02*
X85501247Y-141757142D01*
X85501247Y-141757142D02*
X85691723Y-141709523D01*
X85691723Y-141709523D02*
X85786961Y-141661904D01*
X85786961Y-141661904D02*
X85882200Y-141566666D01*
X85882200Y-141566666D02*
X85929819Y-141423809D01*
X85929819Y-141423809D02*
X85929819Y-141185714D01*
X85929819Y-142709523D02*
X85929819Y-142138095D01*
X85929819Y-142423809D02*
X84929819Y-142423809D01*
X84929819Y-142423809D02*
X85072676Y-142328571D01*
X85072676Y-142328571D02*
X85167914Y-142233333D01*
X85167914Y-142233333D02*
X85215533Y-142138095D01*
X84929819Y-143566666D02*
X84929819Y-143376190D01*
X84929819Y-143376190D02*
X84977438Y-143280952D01*
X84977438Y-143280952D02*
X85025057Y-143233333D01*
X85025057Y-143233333D02*
X85167914Y-143138095D01*
X85167914Y-143138095D02*
X85358390Y-143090476D01*
X85358390Y-143090476D02*
X85739342Y-143090476D01*
X85739342Y-143090476D02*
X85834580Y-143138095D01*
X85834580Y-143138095D02*
X85882200Y-143185714D01*
X85882200Y-143185714D02*
X85929819Y-143280952D01*
X85929819Y-143280952D02*
X85929819Y-143471428D01*
X85929819Y-143471428D02*
X85882200Y-143566666D01*
X85882200Y-143566666D02*
X85834580Y-143614285D01*
X85834580Y-143614285D02*
X85739342Y-143661904D01*
X85739342Y-143661904D02*
X85501247Y-143661904D01*
X85501247Y-143661904D02*
X85406009Y-143614285D01*
X85406009Y-143614285D02*
X85358390Y-143566666D01*
X85358390Y-143566666D02*
X85310771Y-143471428D01*
X85310771Y-143471428D02*
X85310771Y-143280952D01*
X85310771Y-143280952D02*
X85358390Y-143185714D01*
X85358390Y-143185714D02*
X85406009Y-143138095D01*
X85406009Y-143138095D02*
X85501247Y-143090476D01*
X98857142Y-46657200D02*
X98714285Y-46704819D01*
X98714285Y-46704819D02*
X98476190Y-46704819D01*
X98476190Y-46704819D02*
X98380952Y-46657200D01*
X98380952Y-46657200D02*
X98333333Y-46609580D01*
X98333333Y-46609580D02*
X98285714Y-46514342D01*
X98285714Y-46514342D02*
X98285714Y-46419104D01*
X98285714Y-46419104D02*
X98333333Y-46323866D01*
X98333333Y-46323866D02*
X98380952Y-46276247D01*
X98380952Y-46276247D02*
X98476190Y-46228628D01*
X98476190Y-46228628D02*
X98666666Y-46181009D01*
X98666666Y-46181009D02*
X98761904Y-46133390D01*
X98761904Y-46133390D02*
X98809523Y-46085771D01*
X98809523Y-46085771D02*
X98857142Y-45990533D01*
X98857142Y-45990533D02*
X98857142Y-45895295D01*
X98857142Y-45895295D02*
X98809523Y-45800057D01*
X98809523Y-45800057D02*
X98761904Y-45752438D01*
X98761904Y-45752438D02*
X98666666Y-45704819D01*
X98666666Y-45704819D02*
X98428571Y-45704819D01*
X98428571Y-45704819D02*
X98285714Y-45752438D01*
X97952380Y-45704819D02*
X97714285Y-46704819D01*
X97714285Y-46704819D02*
X97523809Y-45990533D01*
X97523809Y-45990533D02*
X97333333Y-46704819D01*
X97333333Y-46704819D02*
X97095238Y-45704819D01*
X96142857Y-46704819D02*
X96476190Y-46228628D01*
X96714285Y-46704819D02*
X96714285Y-45704819D01*
X96714285Y-45704819D02*
X96333333Y-45704819D01*
X96333333Y-45704819D02*
X96238095Y-45752438D01*
X96238095Y-45752438D02*
X96190476Y-45800057D01*
X96190476Y-45800057D02*
X96142857Y-45895295D01*
X96142857Y-45895295D02*
X96142857Y-46038152D01*
X96142857Y-46038152D02*
X96190476Y-46133390D01*
X96190476Y-46133390D02*
X96238095Y-46181009D01*
X96238095Y-46181009D02*
X96333333Y-46228628D01*
X96333333Y-46228628D02*
X96714285Y-46228628D01*
D11*
%TO.C,D19*%
X74950000Y-163810000D02*
X72950000Y-163810000D01*
X74950000Y-163810000D02*
X74950000Y-159800000D01*
X72950000Y-163810000D02*
X72950000Y-159800000D01*
D12*
X74950000Y-162450000D02*
X72950000Y-162450000D01*
X73950000Y-162200000D02*
X73950000Y-161800000D01*
X74500000Y-161800000D02*
X73400000Y-161800000D01*
X73950000Y-161800000D02*
X74500000Y-161800000D01*
X73950000Y-161800000D02*
X74350000Y-161200000D01*
X73400000Y-161800000D02*
X73950000Y-161800000D01*
X74350000Y-161200000D02*
X73550000Y-161200000D01*
X73950000Y-161200000D02*
X73950000Y-160700000D01*
X73550000Y-161200000D02*
X73950000Y-161800000D01*
X73950000Y-160700000D02*
X73950000Y-161200000D01*
D11*
%TO.C,D12*%
X103525000Y-125710000D02*
X101525000Y-125710000D01*
X103525000Y-125710000D02*
X103525000Y-121700000D01*
X101525000Y-125710000D02*
X101525000Y-121700000D01*
D12*
X103525000Y-124350000D02*
X101525000Y-124350000D01*
X102525000Y-124100000D02*
X102525000Y-123700000D01*
X103075000Y-123700000D02*
X101975000Y-123700000D01*
X102525000Y-123700000D02*
X103075000Y-123700000D01*
X102525000Y-123700000D02*
X102925000Y-123100000D01*
X101975000Y-123700000D02*
X102525000Y-123700000D01*
X102925000Y-123100000D02*
X102125000Y-123100000D01*
X102525000Y-123100000D02*
X102525000Y-122600000D01*
X102125000Y-123100000D02*
X102525000Y-123700000D01*
X102525000Y-122600000D02*
X102525000Y-123100000D01*
D11*
%TO.C,D3*%
X103525000Y-87610000D02*
X101525000Y-87610000D01*
X103525000Y-87610000D02*
X103525000Y-83600000D01*
X101525000Y-87610000D02*
X101525000Y-83600000D01*
D12*
X103525000Y-86250000D02*
X101525000Y-86250000D01*
X102525000Y-86000000D02*
X102525000Y-85600000D01*
X103075000Y-85600000D02*
X101975000Y-85600000D01*
X102525000Y-85600000D02*
X103075000Y-85600000D01*
X102525000Y-85600000D02*
X102925000Y-85000000D01*
X101975000Y-85600000D02*
X102525000Y-85600000D01*
X102925000Y-85000000D02*
X102125000Y-85000000D01*
X102525000Y-85000000D02*
X102525000Y-84500000D01*
X102125000Y-85000000D02*
X102525000Y-85600000D01*
X102525000Y-84500000D02*
X102525000Y-85000000D01*
D11*
%TO.C,D21*%
X122575000Y-154285000D02*
X120575000Y-154285000D01*
X122575000Y-154285000D02*
X122575000Y-150275000D01*
X120575000Y-154285000D02*
X120575000Y-150275000D01*
D12*
X122575000Y-152925000D02*
X120575000Y-152925000D01*
X121575000Y-152675000D02*
X121575000Y-152275000D01*
X122125000Y-152275000D02*
X121025000Y-152275000D01*
X121575000Y-152275000D02*
X122125000Y-152275000D01*
X121575000Y-152275000D02*
X121975000Y-151675000D01*
X121025000Y-152275000D02*
X121575000Y-152275000D01*
X121975000Y-151675000D02*
X121175000Y-151675000D01*
X121575000Y-151675000D02*
X121575000Y-151175000D01*
X121175000Y-151675000D02*
X121575000Y-152275000D01*
X121575000Y-151175000D02*
X121575000Y-151675000D01*
D11*
%TO.C,D9*%
X141625000Y-106660000D02*
X139625000Y-106660000D01*
X141625000Y-106660000D02*
X141625000Y-102650000D01*
X139625000Y-106660000D02*
X139625000Y-102650000D01*
D12*
X141625000Y-105300000D02*
X139625000Y-105300000D01*
X140625000Y-105050000D02*
X140625000Y-104650000D01*
X141175000Y-104650000D02*
X140075000Y-104650000D01*
X140625000Y-104650000D02*
X141175000Y-104650000D01*
X140625000Y-104650000D02*
X141025000Y-104050000D01*
X140075000Y-104650000D02*
X140625000Y-104650000D01*
X141025000Y-104050000D02*
X140225000Y-104050000D01*
X140625000Y-104050000D02*
X140625000Y-103550000D01*
X140225000Y-104050000D02*
X140625000Y-104650000D01*
X140625000Y-103550000D02*
X140625000Y-104050000D01*
D11*
%TO.C,D5*%
X141625000Y-87610000D02*
X139625000Y-87610000D01*
X141625000Y-87610000D02*
X141625000Y-83600000D01*
X139625000Y-87610000D02*
X139625000Y-83600000D01*
D12*
X141625000Y-86250000D02*
X139625000Y-86250000D01*
X140625000Y-86000000D02*
X140625000Y-85600000D01*
X141175000Y-85600000D02*
X140075000Y-85600000D01*
X140625000Y-85600000D02*
X141175000Y-85600000D01*
X140625000Y-85600000D02*
X141025000Y-85000000D01*
X140075000Y-85600000D02*
X140625000Y-85600000D01*
X141025000Y-85000000D02*
X140225000Y-85000000D01*
X140625000Y-85000000D02*
X140625000Y-84500000D01*
X140225000Y-85000000D02*
X140625000Y-85600000D01*
X140625000Y-84500000D02*
X140625000Y-85000000D01*
D11*
%TO.C,D14*%
X141625000Y-125710000D02*
X139625000Y-125710000D01*
X141625000Y-125710000D02*
X141625000Y-121700000D01*
X139625000Y-125710000D02*
X139625000Y-121700000D01*
D12*
X141625000Y-124350000D02*
X139625000Y-124350000D01*
X140625000Y-124100000D02*
X140625000Y-123700000D01*
X141175000Y-123700000D02*
X140075000Y-123700000D01*
X140625000Y-123700000D02*
X141175000Y-123700000D01*
X140625000Y-123700000D02*
X141025000Y-123100000D01*
X140075000Y-123700000D02*
X140625000Y-123700000D01*
X141025000Y-123100000D02*
X140225000Y-123100000D01*
X140625000Y-123100000D02*
X140625000Y-122600000D01*
X140225000Y-123100000D02*
X140625000Y-123700000D01*
X140625000Y-122600000D02*
X140625000Y-123100000D01*
D11*
%TO.C,D15*%
X65425000Y-144760000D02*
X63425000Y-144760000D01*
X65425000Y-144760000D02*
X65425000Y-140750000D01*
X63425000Y-144760000D02*
X63425000Y-140750000D01*
D12*
X65425000Y-143400000D02*
X63425000Y-143400000D01*
X64425000Y-143150000D02*
X64425000Y-142750000D01*
X64975000Y-142750000D02*
X63875000Y-142750000D01*
X64425000Y-142750000D02*
X64975000Y-142750000D01*
X64425000Y-142750000D02*
X64825000Y-142150000D01*
X63875000Y-142750000D02*
X64425000Y-142750000D01*
X64825000Y-142150000D02*
X64025000Y-142150000D01*
X64425000Y-142150000D02*
X64425000Y-141650000D01*
X64025000Y-142150000D02*
X64425000Y-142750000D01*
X64425000Y-141650000D02*
X64425000Y-142150000D01*
D11*
%TO.C,D6*%
X65425000Y-106660000D02*
X63425000Y-106660000D01*
X65425000Y-106660000D02*
X65425000Y-102650000D01*
X63425000Y-106660000D02*
X63425000Y-102650000D01*
D12*
X65425000Y-105300000D02*
X63425000Y-105300000D01*
X64425000Y-105050000D02*
X64425000Y-104650000D01*
X64975000Y-104650000D02*
X63875000Y-104650000D01*
X64425000Y-104650000D02*
X64975000Y-104650000D01*
X64425000Y-104650000D02*
X64825000Y-104050000D01*
X63875000Y-104650000D02*
X64425000Y-104650000D01*
X64825000Y-104050000D02*
X64025000Y-104050000D01*
X64425000Y-104050000D02*
X64425000Y-103550000D01*
X64025000Y-104050000D02*
X64425000Y-104650000D01*
X64425000Y-103550000D02*
X64425000Y-104050000D01*
D11*
%TO.C,D11*%
X84475000Y-125710000D02*
X82475000Y-125710000D01*
X84475000Y-125710000D02*
X84475000Y-121700000D01*
X82475000Y-125710000D02*
X82475000Y-121700000D01*
D12*
X84475000Y-124350000D02*
X82475000Y-124350000D01*
X83475000Y-124100000D02*
X83475000Y-123700000D01*
X84025000Y-123700000D02*
X82925000Y-123700000D01*
X83475000Y-123700000D02*
X84025000Y-123700000D01*
X83475000Y-123700000D02*
X83875000Y-123100000D01*
X82925000Y-123700000D02*
X83475000Y-123700000D01*
X83875000Y-123100000D02*
X83075000Y-123100000D01*
X83475000Y-123100000D02*
X83475000Y-122600000D01*
X83075000Y-123100000D02*
X83475000Y-123700000D01*
X83475000Y-122600000D02*
X83475000Y-123100000D01*
D11*
%TO.C,D2*%
X84475000Y-87610000D02*
X82475000Y-87610000D01*
X84475000Y-87610000D02*
X84475000Y-83600000D01*
X82475000Y-87610000D02*
X82475000Y-83600000D01*
D12*
X84475000Y-86250000D02*
X82475000Y-86250000D01*
X83475000Y-86000000D02*
X83475000Y-85600000D01*
X84025000Y-85600000D02*
X82925000Y-85600000D01*
X83475000Y-85600000D02*
X84025000Y-85600000D01*
X83475000Y-85600000D02*
X83875000Y-85000000D01*
X82925000Y-85600000D02*
X83475000Y-85600000D01*
X83875000Y-85000000D02*
X83075000Y-85000000D01*
X83475000Y-85000000D02*
X83475000Y-84500000D01*
X83075000Y-85000000D02*
X83475000Y-85600000D01*
X83475000Y-84500000D02*
X83475000Y-85000000D01*
D11*
%TO.C,D1*%
X65425000Y-87610000D02*
X63425000Y-87610000D01*
X65425000Y-87610000D02*
X65425000Y-83600000D01*
X63425000Y-87610000D02*
X63425000Y-83600000D01*
D12*
X65425000Y-86250000D02*
X63425000Y-86250000D01*
X64425000Y-86000000D02*
X64425000Y-85600000D01*
X64975000Y-85600000D02*
X63875000Y-85600000D01*
X64425000Y-85600000D02*
X64975000Y-85600000D01*
X64425000Y-85600000D02*
X64825000Y-85000000D01*
X63875000Y-85600000D02*
X64425000Y-85600000D01*
X64825000Y-85000000D02*
X64025000Y-85000000D01*
X64425000Y-85000000D02*
X64425000Y-84500000D01*
X64025000Y-85000000D02*
X64425000Y-85600000D01*
X64425000Y-84500000D02*
X64425000Y-85000000D01*
D11*
%TO.C,D4*%
X122575000Y-87610000D02*
X120575000Y-87610000D01*
X122575000Y-87610000D02*
X122575000Y-83600000D01*
X120575000Y-87610000D02*
X120575000Y-83600000D01*
D12*
X122575000Y-86250000D02*
X120575000Y-86250000D01*
X121575000Y-86000000D02*
X121575000Y-85600000D01*
X122125000Y-85600000D02*
X121025000Y-85600000D01*
X121575000Y-85600000D02*
X122125000Y-85600000D01*
X121575000Y-85600000D02*
X121975000Y-85000000D01*
X121025000Y-85600000D02*
X121575000Y-85600000D01*
X121975000Y-85000000D02*
X121175000Y-85000000D01*
X121575000Y-85000000D02*
X121575000Y-84500000D01*
X121175000Y-85000000D02*
X121575000Y-85600000D01*
X121575000Y-84500000D02*
X121575000Y-85000000D01*
D11*
%TO.C,D13*%
X122575000Y-116185000D02*
X120575000Y-116185000D01*
X122575000Y-116185000D02*
X122575000Y-112175000D01*
X120575000Y-116185000D02*
X120575000Y-112175000D01*
D12*
X122575000Y-114825000D02*
X120575000Y-114825000D01*
X121575000Y-114575000D02*
X121575000Y-114175000D01*
X122125000Y-114175000D02*
X121025000Y-114175000D01*
X121575000Y-114175000D02*
X122125000Y-114175000D01*
X121575000Y-114175000D02*
X121975000Y-113575000D01*
X121025000Y-114175000D02*
X121575000Y-114175000D01*
X121975000Y-113575000D02*
X121175000Y-113575000D01*
X121575000Y-113575000D02*
X121575000Y-113075000D01*
X121175000Y-113575000D02*
X121575000Y-114175000D01*
X121575000Y-113075000D02*
X121575000Y-113575000D01*
D11*
%TO.C,D10*%
X65425000Y-125710000D02*
X63425000Y-125710000D01*
X65425000Y-125710000D02*
X65425000Y-121700000D01*
X63425000Y-125710000D02*
X63425000Y-121700000D01*
D12*
X65425000Y-124350000D02*
X63425000Y-124350000D01*
X64425000Y-124100000D02*
X64425000Y-123700000D01*
X64975000Y-123700000D02*
X63875000Y-123700000D01*
X64425000Y-123700000D02*
X64975000Y-123700000D01*
X64425000Y-123700000D02*
X64825000Y-123100000D01*
X63875000Y-123700000D02*
X64425000Y-123700000D01*
X64825000Y-123100000D02*
X64025000Y-123100000D01*
X64425000Y-123100000D02*
X64425000Y-122600000D01*
X64025000Y-123100000D02*
X64425000Y-123700000D01*
X64425000Y-122600000D02*
X64425000Y-123100000D01*
D11*
%TO.C,D17*%
X103525000Y-144760000D02*
X101525000Y-144760000D01*
X103525000Y-144760000D02*
X103525000Y-140750000D01*
X101525000Y-144760000D02*
X101525000Y-140750000D01*
D12*
X103525000Y-143400000D02*
X101525000Y-143400000D01*
X102525000Y-143150000D02*
X102525000Y-142750000D01*
X103075000Y-142750000D02*
X101975000Y-142750000D01*
X102525000Y-142750000D02*
X103075000Y-142750000D01*
X102525000Y-142750000D02*
X102925000Y-142150000D01*
X101975000Y-142750000D02*
X102525000Y-142750000D01*
X102925000Y-142150000D02*
X102125000Y-142150000D01*
X102525000Y-142150000D02*
X102525000Y-141650000D01*
X102125000Y-142150000D02*
X102525000Y-142750000D01*
X102525000Y-141650000D02*
X102525000Y-142150000D01*
D11*
%TO.C,D18*%
X141625000Y-144760000D02*
X139625000Y-144760000D01*
X141625000Y-144760000D02*
X141625000Y-140750000D01*
X139625000Y-144760000D02*
X139625000Y-140750000D01*
D12*
X141625000Y-143400000D02*
X139625000Y-143400000D01*
X140625000Y-143150000D02*
X140625000Y-142750000D01*
X141175000Y-142750000D02*
X140075000Y-142750000D01*
X140625000Y-142750000D02*
X141175000Y-142750000D01*
X140625000Y-142750000D02*
X141025000Y-142150000D01*
X140075000Y-142750000D02*
X140625000Y-142750000D01*
X141025000Y-142150000D02*
X140225000Y-142150000D01*
X140625000Y-142150000D02*
X140625000Y-141650000D01*
X140225000Y-142150000D02*
X140625000Y-142750000D01*
X140625000Y-141650000D02*
X140625000Y-142150000D01*
D11*
%TO.C,D7*%
X84475000Y-106660000D02*
X82475000Y-106660000D01*
X84475000Y-106660000D02*
X84475000Y-102650000D01*
X82475000Y-106660000D02*
X82475000Y-102650000D01*
D12*
X84475000Y-105300000D02*
X82475000Y-105300000D01*
X83475000Y-105050000D02*
X83475000Y-104650000D01*
X84025000Y-104650000D02*
X82925000Y-104650000D01*
X83475000Y-104650000D02*
X84025000Y-104650000D01*
X83475000Y-104650000D02*
X83875000Y-104050000D01*
X82925000Y-104650000D02*
X83475000Y-104650000D01*
X83875000Y-104050000D02*
X83075000Y-104050000D01*
X83475000Y-104050000D02*
X83475000Y-103550000D01*
X83075000Y-104050000D02*
X83475000Y-104650000D01*
X83475000Y-103550000D02*
X83475000Y-104050000D01*
D11*
%TO.C,D8*%
X103525000Y-106660000D02*
X101525000Y-106660000D01*
X103525000Y-106660000D02*
X103525000Y-102650000D01*
X101525000Y-106660000D02*
X101525000Y-102650000D01*
D12*
X103525000Y-105300000D02*
X101525000Y-105300000D01*
X102525000Y-105050000D02*
X102525000Y-104650000D01*
X103075000Y-104650000D02*
X101975000Y-104650000D01*
X102525000Y-104650000D02*
X103075000Y-104650000D01*
X102525000Y-104650000D02*
X102925000Y-104050000D01*
X101975000Y-104650000D02*
X102525000Y-104650000D01*
X102925000Y-104050000D02*
X102125000Y-104050000D01*
X102525000Y-104050000D02*
X102525000Y-103550000D01*
X102125000Y-104050000D02*
X102525000Y-104650000D01*
X102525000Y-103550000D02*
X102525000Y-104050000D01*
D11*
%TO.C,D22*%
X141625000Y-163810000D02*
X139625000Y-163810000D01*
X141625000Y-163810000D02*
X141625000Y-159800000D01*
X139625000Y-163810000D02*
X139625000Y-159800000D01*
D12*
X141625000Y-162450000D02*
X139625000Y-162450000D01*
X140625000Y-162200000D02*
X140625000Y-161800000D01*
X141175000Y-161800000D02*
X140075000Y-161800000D01*
X140625000Y-161800000D02*
X141175000Y-161800000D01*
X140625000Y-161800000D02*
X141025000Y-161200000D01*
X140075000Y-161800000D02*
X140625000Y-161800000D01*
X141025000Y-161200000D02*
X140225000Y-161200000D01*
X140625000Y-161200000D02*
X140625000Y-160700000D01*
X140225000Y-161200000D02*
X140625000Y-161800000D01*
X140625000Y-160700000D02*
X140625000Y-161200000D01*
D11*
%TO.C,D20*%
X103525000Y-163810000D02*
X101525000Y-163810000D01*
X103525000Y-163810000D02*
X103525000Y-159800000D01*
X101525000Y-163810000D02*
X101525000Y-159800000D01*
D12*
X103525000Y-162450000D02*
X101525000Y-162450000D01*
X102525000Y-162200000D02*
X102525000Y-161800000D01*
X103075000Y-161800000D02*
X101975000Y-161800000D01*
X102525000Y-161800000D02*
X103075000Y-161800000D01*
X102525000Y-161800000D02*
X102925000Y-161200000D01*
X101975000Y-161800000D02*
X102525000Y-161800000D01*
X102925000Y-161200000D02*
X102125000Y-161200000D01*
X102525000Y-161200000D02*
X102525000Y-160700000D01*
X102125000Y-161200000D02*
X102525000Y-161800000D01*
X102525000Y-160700000D02*
X102525000Y-161200000D01*
D11*
%TO.C,D16*%
X84475000Y-144760000D02*
X82475000Y-144760000D01*
X84475000Y-144760000D02*
X84475000Y-140750000D01*
X82475000Y-144760000D02*
X82475000Y-140750000D01*
D12*
X84475000Y-143400000D02*
X82475000Y-143400000D01*
X83475000Y-143150000D02*
X83475000Y-142750000D01*
X84025000Y-142750000D02*
X82925000Y-142750000D01*
X83475000Y-142750000D02*
X84025000Y-142750000D01*
X83475000Y-142750000D02*
X83875000Y-142150000D01*
X82925000Y-142750000D02*
X83475000Y-142750000D01*
X83875000Y-142150000D02*
X83075000Y-142150000D01*
X83475000Y-142150000D02*
X83475000Y-141650000D01*
X83075000Y-142150000D02*
X83475000Y-142750000D01*
X83475000Y-141650000D02*
X83475000Y-142150000D01*
D11*
%TO.C,SW16*%
X74295000Y-131500000D02*
X79395000Y-131500000D01*
X78195000Y-135700000D02*
X83295000Y-135700000D01*
X72295000Y-133500000D02*
G75*
G02*
X74295000Y-131500000I1999999J1D01*
G01*
X76195000Y-137700000D02*
G75*
G02*
X78195000Y-135700000I1999999J1D01*
G01*
%TO.C,SW6*%
X55245000Y-93400000D02*
X60345000Y-93400000D01*
X59145000Y-97600000D02*
X64245000Y-97600000D01*
X53245000Y-95400000D02*
G75*
G02*
X55245000Y-93400000I1999999J1D01*
G01*
X57145000Y-99600000D02*
G75*
G02*
X59145000Y-97600000I1999999J1D01*
G01*
%TO.C,SW15*%
X55245000Y-131500000D02*
X60345000Y-131500000D01*
X59145000Y-135700000D02*
X64245000Y-135700000D01*
X53245000Y-133500000D02*
G75*
G02*
X55245000Y-131500000I1999999J1D01*
G01*
X57145000Y-137700000D02*
G75*
G02*
X59145000Y-135700000I1999999J1D01*
G01*
%TO.C,SW1*%
X55245000Y-74350000D02*
X60345000Y-74350000D01*
X59145000Y-78550000D02*
X64245000Y-78550000D01*
X53245000Y-76350000D02*
G75*
G02*
X55245000Y-74350000I1999999J1D01*
G01*
X57145000Y-80550000D02*
G75*
G02*
X59145000Y-78550000I1999999J1D01*
G01*
%TO.C,SW12*%
X93345000Y-112450000D02*
X98445000Y-112450000D01*
X97245000Y-116650000D02*
X102345000Y-116650000D01*
X91345000Y-114450000D02*
G75*
G02*
X93345000Y-112450000I1999999J1D01*
G01*
X95245000Y-118650000D02*
G75*
G02*
X97245000Y-116650000I1999999J1D01*
G01*
%TO.C,SW21*%
X112395000Y-141025000D02*
X117495000Y-141025000D01*
X116295000Y-145225000D02*
X121395000Y-145225000D01*
X110395000Y-143025000D02*
G75*
G02*
X112395000Y-141025000I1999999J1D01*
G01*
X114295000Y-147225000D02*
G75*
G02*
X116295000Y-145225000I1999999J1D01*
G01*
%TO.C,SW18*%
X131445000Y-131500000D02*
X136545000Y-131500000D01*
X135345000Y-135700000D02*
X140445000Y-135700000D01*
X129445000Y-133500000D02*
G75*
G02*
X131445000Y-131500000I1999999J1D01*
G01*
X133345000Y-137700000D02*
G75*
G02*
X135345000Y-135700000I1999999J1D01*
G01*
%TO.C,SW2*%
X74295000Y-74350000D02*
X79395000Y-74350000D01*
X78195000Y-78550000D02*
X83295000Y-78550000D01*
X72295000Y-76350000D02*
G75*
G02*
X74295000Y-74350000I1999999J1D01*
G01*
X76195000Y-80550000D02*
G75*
G02*
X78195000Y-78550000I1999999J1D01*
G01*
%TO.C,SW19*%
X64770000Y-150550000D02*
X69870000Y-150550000D01*
X68670000Y-154750000D02*
X73770000Y-154750000D01*
X62770000Y-152550000D02*
G75*
G02*
X64770000Y-150550000I1999999J1D01*
G01*
X66670000Y-156750000D02*
G75*
G02*
X68670000Y-154750000I1999999J1D01*
G01*
%TO.C,SW17*%
X93345000Y-131500000D02*
X98445000Y-131500000D01*
X97245000Y-135700000D02*
X102345000Y-135700000D01*
X91345000Y-133500000D02*
G75*
G02*
X93345000Y-131500000I1999999J1D01*
G01*
X95245000Y-137700000D02*
G75*
G02*
X97245000Y-135700000I1999999J1D01*
G01*
%TO.C,SW5*%
X131445000Y-74350000D02*
X136545000Y-74350000D01*
X135345000Y-78550000D02*
X140445000Y-78550000D01*
X129445000Y-76350000D02*
G75*
G02*
X131445000Y-74350000I1999999J1D01*
G01*
X133345000Y-80550000D02*
G75*
G02*
X135345000Y-78550000I1999999J1D01*
G01*
%TO.C,SW11*%
X74295000Y-112450000D02*
X79395000Y-112450000D01*
X78195000Y-116650000D02*
X83295000Y-116650000D01*
X72295000Y-114450000D02*
G75*
G02*
X74295000Y-112450000I1999999J1D01*
G01*
X76195000Y-118650000D02*
G75*
G02*
X78195000Y-116650000I1999999J1D01*
G01*
%TO.C,SW7*%
X74295000Y-93400000D02*
X79395000Y-93400000D01*
X78195000Y-97600000D02*
X83295000Y-97600000D01*
X72295000Y-95400000D02*
G75*
G02*
X74295000Y-93400000I1999999J1D01*
G01*
X76195000Y-99600000D02*
G75*
G02*
X78195000Y-97600000I1999999J1D01*
G01*
%TO.C,SW4*%
X112395000Y-74350000D02*
X117495000Y-74350000D01*
X116295000Y-78550000D02*
X121395000Y-78550000D01*
X110395000Y-76350000D02*
G75*
G02*
X112395000Y-74350000I1999999J1D01*
G01*
X114295000Y-80550000D02*
G75*
G02*
X116295000Y-78550000I1999999J1D01*
G01*
%TO.C,SW10*%
X55245000Y-112450000D02*
X60345000Y-112450000D01*
X59145000Y-116650000D02*
X64245000Y-116650000D01*
X53245000Y-114450000D02*
G75*
G02*
X55245000Y-112450000I1999999J1D01*
G01*
X57145000Y-118650000D02*
G75*
G02*
X59145000Y-116650000I1999999J1D01*
G01*
%TO.C,SW14*%
X131445000Y-112450000D02*
X136545000Y-112450000D01*
X135345000Y-116650000D02*
X140445000Y-116650000D01*
X129445000Y-114450000D02*
G75*
G02*
X131445000Y-112450000I1999999J1D01*
G01*
X133345000Y-118650000D02*
G75*
G02*
X135345000Y-116650000I1999999J1D01*
G01*
%TO.C,SW13*%
X112395000Y-102925000D02*
X117495000Y-102925000D01*
X116295000Y-107125000D02*
X121395000Y-107125000D01*
X110395000Y-104925000D02*
G75*
G02*
X112395000Y-102925000I1999999J1D01*
G01*
X114295000Y-109125000D02*
G75*
G02*
X116295000Y-107125000I1999999J1D01*
G01*
%TO.C,SW3*%
X93345000Y-74350000D02*
X98445000Y-74350000D01*
X97245000Y-78550000D02*
X102345000Y-78550000D01*
X91345000Y-76350000D02*
G75*
G02*
X93345000Y-74350000I1999999J1D01*
G01*
X95245000Y-80550000D02*
G75*
G02*
X97245000Y-78550000I1999999J1D01*
G01*
%TO.C,SW20*%
X93345000Y-150550000D02*
X98445000Y-150550000D01*
X97245000Y-154750000D02*
X102345000Y-154750000D01*
X91345000Y-152550000D02*
G75*
G02*
X93345000Y-150550000I1999999J1D01*
G01*
X95245000Y-156750000D02*
G75*
G02*
X97245000Y-154750000I1999999J1D01*
G01*
%TO.C,SW8*%
X93345000Y-93400000D02*
X98445000Y-93400000D01*
X97245000Y-97600000D02*
X102345000Y-97600000D01*
X91345000Y-95400000D02*
G75*
G02*
X93345000Y-93400000I1999999J1D01*
G01*
X95245000Y-99600000D02*
G75*
G02*
X97245000Y-97600000I1999999J1D01*
G01*
%TO.C,SW22*%
X131445000Y-150550000D02*
X136545000Y-150550000D01*
X135345000Y-154750000D02*
X140445000Y-154750000D01*
X129445000Y-152550000D02*
G75*
G02*
X131445000Y-150550000I1999999J1D01*
G01*
X133345000Y-156750000D02*
G75*
G02*
X135345000Y-154750000I1999999J1D01*
G01*
%TO.C,SW9*%
X131445000Y-93400000D02*
X136545000Y-93400000D01*
X135345000Y-97600000D02*
X140445000Y-97600000D01*
X129445000Y-95400000D02*
G75*
G02*
X131445000Y-93400000I1999999J1D01*
G01*
X133345000Y-99600000D02*
G75*
G02*
X135345000Y-97600000I1999999J1D01*
G01*
%TO.C,SWR*%
X94750000Y-49000000D02*
X94750000Y-51000000D01*
X95750000Y-47700000D02*
X96200000Y-47250000D01*
X95750000Y-52300000D02*
X96200000Y-52750000D01*
X98800000Y-47250000D02*
X96200000Y-47250000D01*
X98800000Y-52750000D02*
X96200000Y-52750000D01*
X99250000Y-47700000D02*
X98800000Y-47250000D01*
X99250000Y-52300000D02*
X98800000Y-52750000D01*
X100250000Y-49000000D02*
X100250000Y-51000000D01*
D12*
%TO.C,REF\u002A\u002A*%
X45140000Y-53135980D02*
X45140000Y-49760980D01*
X45140000Y-63185980D02*
X45140000Y-66560980D01*
X45640000Y-49260980D02*
X77640000Y-49260980D01*
X47240000Y-53635980D02*
X45640000Y-53635980D01*
X47240000Y-53635980D02*
X50340490Y-53630490D01*
X47240000Y-62685980D02*
X45640000Y-62685980D01*
X47240000Y-62685980D02*
X50340490Y-62690490D01*
X50840490Y-54130490D02*
X50840490Y-62190490D01*
X77640000Y-67060980D02*
X45640000Y-67060980D01*
X78140000Y-49760980D02*
X78140000Y-66560980D01*
X45140000Y-49760980D02*
G75*
G02*
X45640000Y-49260980I499995J5D01*
G01*
X45140000Y-63185980D02*
G75*
G02*
X45640000Y-62685990I500000J-10D01*
G01*
X45640000Y-53635980D02*
G75*
G02*
X45140000Y-53135980I-16J499984D01*
G01*
X45640000Y-67060980D02*
G75*
G02*
X45140010Y-66560980I0J499990D01*
G01*
X50340490Y-53630490D02*
G75*
G02*
X50840490Y-54130490I-1J-500001D01*
G01*
X50840490Y-62190490D02*
G75*
G02*
X50340490Y-62690480I-499990J0D01*
G01*
X77640000Y-49260980D02*
G75*
G02*
X78140000Y-49760980I-18J-500018D01*
G01*
X78140000Y-66560980D02*
G75*
G02*
X77640000Y-67060990I-500000J-10D01*
G01*
D13*
G36*
X63359217Y-56954118D02*
G01*
X63362882Y-56955769D01*
X63381531Y-56978581D01*
X63392064Y-57029559D01*
X63395617Y-57118761D01*
X63393323Y-57256243D01*
X63384942Y-57542063D01*
X63150841Y-57542063D01*
X63150841Y-56956810D01*
X63233785Y-56947312D01*
X63299504Y-56945138D01*
X63359217Y-56954118D01*
G37*
G36*
X69561297Y-57312357D02*
G01*
X69551038Y-57402725D01*
X69520260Y-57467773D01*
X69464598Y-57507064D01*
X69379687Y-57520161D01*
X69299141Y-57507282D01*
X69246099Y-57468646D01*
X69216631Y-57408619D01*
X69206808Y-57331566D01*
X69207681Y-57278305D01*
X69212047Y-57225044D01*
X69561297Y-57225044D01*
X69561297Y-57312357D01*
G37*
G36*
X72125601Y-56340470D02*
G01*
X72125601Y-56359395D01*
X72098074Y-56480686D01*
X72022374Y-56559826D01*
X71907965Y-56602838D01*
X71838502Y-56612515D01*
X71762587Y-56615741D01*
X71628392Y-56605418D01*
X71513123Y-56569289D01*
X71433122Y-56498751D01*
X71403014Y-56383481D01*
X71403875Y-56352513D01*
X71408176Y-56321545D01*
X72123880Y-56321545D01*
X72125601Y-56340470D01*
G37*
G36*
X72125601Y-58921135D02*
G01*
X72125601Y-58940060D01*
X72098074Y-59061351D01*
X72022374Y-59140492D01*
X71907965Y-59183503D01*
X71838502Y-59193180D01*
X71762587Y-59196406D01*
X71628392Y-59186083D01*
X71513123Y-59149954D01*
X71433122Y-59079416D01*
X71403014Y-58964146D01*
X71403875Y-58933178D01*
X71408176Y-58902210D01*
X72123880Y-58902210D01*
X72125601Y-58921135D01*
G37*
G36*
X71837641Y-59720926D02*
G01*
X71907965Y-59725442D01*
X72025815Y-59749528D01*
X72104955Y-59800282D01*
X72134203Y-59888024D01*
X72104955Y-59974907D01*
X72024955Y-60026520D01*
X71907104Y-60050606D01*
X71762587Y-60056628D01*
X71687533Y-60055122D01*
X71617210Y-60050606D01*
X71499359Y-60026520D01*
X71420219Y-59975767D01*
X71390971Y-59888024D01*
X71420219Y-59800282D01*
X71500219Y-59749528D01*
X71618070Y-59725442D01*
X71762587Y-59719421D01*
X71837641Y-59720926D01*
G37*
G36*
X69647955Y-55436666D02*
G01*
X69719333Y-55441250D01*
X69838951Y-55465698D01*
X69919278Y-55517212D01*
X69948964Y-55606271D01*
X69919278Y-55694456D01*
X69838078Y-55746844D01*
X69718459Y-55771291D01*
X69647736Y-55775875D01*
X69571774Y-55777403D01*
X69495594Y-55775875D01*
X69424216Y-55771291D01*
X69304598Y-55746844D01*
X69224271Y-55695329D01*
X69194584Y-55606271D01*
X69224271Y-55517212D01*
X69305471Y-55465698D01*
X69425089Y-55441250D01*
X69495813Y-55436666D01*
X69571774Y-55435138D01*
X69647955Y-55436666D01*
G37*
G36*
X69647955Y-58056041D02*
G01*
X69719333Y-58060625D01*
X69838951Y-58085073D01*
X69919278Y-58136587D01*
X69948964Y-58225646D01*
X69919278Y-58313831D01*
X69838078Y-58366219D01*
X69718459Y-58390666D01*
X69647736Y-58395250D01*
X69571774Y-58396778D01*
X69495594Y-58395250D01*
X69424216Y-58390666D01*
X69304598Y-58366219D01*
X69224271Y-58314705D01*
X69194584Y-58225646D01*
X69224271Y-58136587D01*
X69305471Y-58085073D01*
X69425089Y-58060625D01*
X69495813Y-58056041D01*
X69571774Y-58054513D01*
X69647955Y-58056041D01*
G37*
G36*
X63242356Y-58639048D02*
G01*
X63383700Y-58643973D01*
X63500295Y-58651782D01*
X63580905Y-58662460D01*
X63614295Y-58675992D01*
X63614464Y-58676413D01*
X63632401Y-58767142D01*
X63618695Y-58849789D01*
X63577073Y-58901748D01*
X63560727Y-58907022D01*
X63487656Y-58917088D01*
X63371090Y-58925004D01*
X63221267Y-58930183D01*
X63048421Y-58932040D01*
X62965463Y-58931624D01*
X62802098Y-58928142D01*
X62666537Y-58921610D01*
X62569015Y-58912617D01*
X62519769Y-58901748D01*
X62497988Y-58884232D01*
X62467458Y-58818398D01*
X62466693Y-58739373D01*
X62498283Y-58674529D01*
X62503783Y-58670878D01*
X62557665Y-58658192D01*
X62654213Y-58648478D01*
X62782192Y-58641721D01*
X62930367Y-58637907D01*
X63087500Y-58637021D01*
X63242356Y-58639048D01*
G37*
G36*
X63168520Y-59031764D02*
G01*
X63334445Y-59092510D01*
X63472677Y-59198389D01*
X63574915Y-59342339D01*
X63632860Y-59517294D01*
X63640345Y-59601772D01*
X63628104Y-59733351D01*
X63592204Y-59855115D01*
X63537989Y-59950994D01*
X63470799Y-60004918D01*
X63430773Y-60006346D01*
X63364220Y-59977812D01*
X63307160Y-59928548D01*
X63283453Y-59875087D01*
X63292770Y-59833028D01*
X63327347Y-59767749D01*
X63360740Y-59692143D01*
X63367096Y-59583418D01*
X63337623Y-59478792D01*
X63284620Y-59404387D01*
X63183834Y-59334821D01*
X63066273Y-59308925D01*
X62947063Y-59329161D01*
X62841332Y-59397992D01*
X62799950Y-59444547D01*
X62764822Y-59517095D01*
X62755794Y-59615735D01*
X62756990Y-59653805D01*
X62767408Y-59728189D01*
X62785057Y-59766026D01*
X62791925Y-59770867D01*
X62817184Y-59821587D01*
X62805992Y-59887719D01*
X62767801Y-59952405D01*
X62712065Y-59998787D01*
X62648237Y-60010008D01*
X62609708Y-59987208D01*
X62557745Y-59919505D01*
X62510632Y-59824468D01*
X62476494Y-59719206D01*
X62463454Y-59620828D01*
X62464523Y-59597253D01*
X62487867Y-59482040D01*
X62534362Y-59355245D01*
X62594210Y-59240127D01*
X62657614Y-59159942D01*
X62766009Y-59090338D01*
X62907041Y-59039192D01*
X63048421Y-59019828D01*
X63168520Y-59031764D01*
G37*
G36*
X63265830Y-61139030D02*
G01*
X63297816Y-61153054D01*
X63401964Y-61219008D01*
X63500409Y-61306557D01*
X63577393Y-61400208D01*
X63617161Y-61484471D01*
X63626925Y-61531162D01*
X63642609Y-61609575D01*
X63648745Y-61661756D01*
X63629145Y-61810310D01*
X63560259Y-61955754D01*
X63447472Y-62084967D01*
X63422979Y-62105408D01*
X63267854Y-62194934D01*
X63101147Y-62233699D01*
X62933495Y-62223622D01*
X62775538Y-62166624D01*
X62637912Y-62064625D01*
X62531255Y-61919546D01*
X62490085Y-61819932D01*
X62468482Y-61668100D01*
X62755794Y-61668100D01*
X62759941Y-61739550D01*
X62785450Y-61807977D01*
X62845828Y-61870338D01*
X62915481Y-61914757D01*
X63038025Y-61947406D01*
X63161729Y-61936057D01*
X63267247Y-61880255D01*
X63319688Y-61815800D01*
X63354763Y-61708748D01*
X63349664Y-61595336D01*
X63305997Y-61493232D01*
X63225372Y-61420103D01*
X63196240Y-61407063D01*
X63077385Y-61388185D01*
X62952082Y-61408809D01*
X62845828Y-61465863D01*
X62797450Y-61512395D01*
X62764020Y-61576359D01*
X62755794Y-61668100D01*
X62468482Y-61668100D01*
X62467466Y-61660962D01*
X62492356Y-61508919D01*
X62558084Y-61370889D01*
X62657981Y-61253961D01*
X62785375Y-61165223D01*
X62933595Y-61111763D01*
X63077385Y-61101939D01*
X63095970Y-61100669D01*
X63265830Y-61139030D01*
G37*
G36*
X63242356Y-57644117D02*
G01*
X63383700Y-57649042D01*
X63500295Y-57656851D01*
X63580905Y-57667529D01*
X63614295Y-57681061D01*
X63624419Y-57723858D01*
X63631364Y-57797082D01*
X63631443Y-57802249D01*
X63608074Y-57877801D01*
X63536786Y-57922440D01*
X63416128Y-57937109D01*
X63367936Y-57937979D01*
X63328437Y-57949878D01*
X63313872Y-57988584D01*
X63311785Y-58069957D01*
X63303617Y-58168705D01*
X63253539Y-58317307D01*
X63163301Y-58431919D01*
X63039186Y-58505701D01*
X62887476Y-58531815D01*
X62882285Y-58531795D01*
X62729304Y-58508528D01*
X62611689Y-58440654D01*
X62528652Y-58327110D01*
X62479408Y-58166833D01*
X62463168Y-57958759D01*
X62463836Y-57937109D01*
X62755794Y-57937109D01*
X62755794Y-58062939D01*
X62755815Y-58068443D01*
X62769958Y-58177768D01*
X62812682Y-58239556D01*
X62887476Y-58258999D01*
X62926994Y-58253201D01*
X62984043Y-58223884D01*
X62992123Y-58212421D01*
X63011435Y-58149167D01*
X63019159Y-58062939D01*
X63019159Y-57937109D01*
X62755794Y-57937109D01*
X62463836Y-57937109D01*
X62467218Y-57827484D01*
X62479317Y-57729148D01*
X62498283Y-57679598D01*
X62503783Y-57675947D01*
X62557665Y-57663261D01*
X62654213Y-57653547D01*
X62782192Y-57646790D01*
X62930367Y-57642976D01*
X63019159Y-57642475D01*
X63087500Y-57642090D01*
X63242356Y-57644117D01*
G37*
G36*
X63555343Y-55752026D02*
G01*
X63602763Y-55793619D01*
X63607753Y-55802409D01*
X63630049Y-55895164D01*
X63596458Y-55979784D01*
X63509387Y-56049667D01*
X63399731Y-56108192D01*
X63399573Y-56550924D01*
X63502894Y-56600195D01*
X63519869Y-56608765D01*
X63587196Y-56652990D01*
X63623101Y-56693468D01*
X63626656Y-56704368D01*
X63627817Y-56781787D01*
X63599071Y-56854856D01*
X63549970Y-56896989D01*
X63544709Y-56897690D01*
X63491522Y-56885517D01*
X63399266Y-56851361D01*
X63278143Y-56800157D01*
X63138354Y-56736839D01*
X62990099Y-56666341D01*
X62843579Y-56593599D01*
X62708996Y-56523547D01*
X62596551Y-56461118D01*
X62516444Y-56411249D01*
X62478877Y-56378872D01*
X62465753Y-56346990D01*
X62469289Y-56327662D01*
X62989896Y-56327662D01*
X63004490Y-56344318D01*
X63052442Y-56374803D01*
X63110035Y-56403031D01*
X63152217Y-56415450D01*
X63152359Y-56415445D01*
X63161625Y-56389353D01*
X63165472Y-56327662D01*
X63165471Y-56326726D01*
X63161532Y-56265354D01*
X63152217Y-56239874D01*
X63121420Y-56247767D01*
X63065053Y-56273701D01*
X63012860Y-56304849D01*
X62989896Y-56327662D01*
X62469289Y-56327662D01*
X62478656Y-56276453D01*
X62479503Y-56275178D01*
X62517369Y-56245661D01*
X62597286Y-56197003D01*
X62709021Y-56134418D01*
X62842340Y-56063121D01*
X62987012Y-55988328D01*
X63132802Y-55915255D01*
X63152217Y-55905860D01*
X63269477Y-55849116D01*
X63386805Y-55795126D01*
X63474552Y-55758503D01*
X63522486Y-55744459D01*
X63555343Y-55752026D01*
G37*
G36*
X63242356Y-60131444D02*
G01*
X63383700Y-60136369D01*
X63500295Y-60144178D01*
X63580905Y-60154856D01*
X63614295Y-60168388D01*
X63624419Y-60211185D01*
X63631364Y-60284409D01*
X63631443Y-60289576D01*
X63608074Y-60365128D01*
X63536786Y-60409767D01*
X63416128Y-60424437D01*
X63383997Y-60424714D01*
X63333895Y-60433335D01*
X63314817Y-60466764D01*
X63311785Y-60541856D01*
X63311798Y-60551038D01*
X63315685Y-60614047D01*
X63335314Y-60655006D01*
X63383418Y-60688835D01*
X63472730Y-60730453D01*
X63577491Y-60786447D01*
X63628031Y-60842188D01*
X63627192Y-60905364D01*
X63578256Y-60983858D01*
X63522837Y-61052297D01*
X63355292Y-60982854D01*
X63331871Y-60973170D01*
X63247385Y-60940589D01*
X63193211Y-60929432D01*
X63149899Y-60938459D01*
X63097998Y-60966427D01*
X63007984Y-61005081D01*
X62866806Y-61020216D01*
X62728813Y-60989206D01*
X62608904Y-60916217D01*
X62521980Y-60805414D01*
X62512130Y-60783148D01*
X62486114Y-60687588D01*
X62468769Y-60567281D01*
X62460704Y-60438643D01*
X62460919Y-60424437D01*
X62755794Y-60424437D01*
X62755794Y-60550266D01*
X62757741Y-60591327D01*
X62783691Y-60687027D01*
X62833583Y-60740780D01*
X62899412Y-60747060D01*
X62973174Y-60700342D01*
X62977305Y-60695795D01*
X63007276Y-60629965D01*
X63019159Y-60539397D01*
X63019159Y-60424437D01*
X62755794Y-60424437D01*
X62460919Y-60424437D01*
X62462528Y-60318093D01*
X62474852Y-60222048D01*
X62498283Y-60166925D01*
X62503783Y-60163274D01*
X62557665Y-60150588D01*
X62654213Y-60140874D01*
X62782192Y-60134118D01*
X62930367Y-60130303D01*
X63019159Y-60129802D01*
X63087500Y-60129417D01*
X63242356Y-60131444D01*
G37*
G36*
X58076322Y-56222647D02*
G01*
X58203063Y-56284225D01*
X58312862Y-56394347D01*
X58323574Y-56408742D01*
X58377853Y-56491376D01*
X58414939Y-56562638D01*
X58423558Y-56586121D01*
X58449218Y-56747585D01*
X58425924Y-56916226D01*
X58357442Y-57077340D01*
X58247537Y-57216226D01*
X58159268Y-57300066D01*
X58012276Y-57009990D01*
X58074794Y-56947472D01*
X58111476Y-56898458D01*
X58139447Y-56796224D01*
X58120841Y-56690924D01*
X58056671Y-56601866D01*
X58049736Y-56596087D01*
X57977411Y-56550991D01*
X57913563Y-56532501D01*
X57903458Y-56533626D01*
X57839159Y-56555367D01*
X57742805Y-56599184D01*
X57628004Y-56657670D01*
X57508361Y-56723419D01*
X57397483Y-56789026D01*
X57308977Y-56847082D01*
X57256448Y-56890183D01*
X57220149Y-56960344D01*
X57205163Y-57064691D01*
X57208509Y-57112695D01*
X57248199Y-57212030D01*
X57331318Y-57272751D01*
X57456187Y-57293331D01*
X57498743Y-57294332D01*
X57553135Y-57307031D01*
X57591883Y-57345698D01*
X57634041Y-57424371D01*
X57654971Y-57471475D01*
X57677221Y-57540234D01*
X57676939Y-57576177D01*
X57660596Y-57585709D01*
X57592281Y-57600932D01*
X57494362Y-57608908D01*
X57386263Y-57609246D01*
X57287408Y-57601555D01*
X57217221Y-57585442D01*
X57138962Y-57539868D01*
X57032904Y-57436295D01*
X56946675Y-57303556D01*
X56893415Y-57158961D01*
X56888845Y-57138063D01*
X56873821Y-57040474D01*
X56879836Y-56962068D01*
X56908511Y-56872007D01*
X56945658Y-56794023D01*
X57016362Y-56698408D01*
X57119389Y-56603056D01*
X57262299Y-56501216D01*
X57452655Y-56386137D01*
X57558778Y-56328834D01*
X57757746Y-56244986D01*
X57929072Y-56209579D01*
X58076322Y-56222647D01*
G37*
G36*
X63452305Y-53893704D02*
G01*
X63523742Y-53955998D01*
X63585271Y-54039669D01*
X63621611Y-54127902D01*
X63634708Y-54186582D01*
X63646052Y-54235381D01*
X63645656Y-54305697D01*
X63618532Y-54405927D01*
X63571952Y-54507359D01*
X63514693Y-54586533D01*
X63494831Y-54605962D01*
X63436214Y-54649812D01*
X63368897Y-54669662D01*
X63268141Y-54674321D01*
X63194183Y-54671183D01*
X63103700Y-54648988D01*
X63037906Y-54597281D01*
X62986566Y-54506496D01*
X62939443Y-54367063D01*
X62910566Y-54274026D01*
X62883118Y-54211847D01*
X62853356Y-54183555D01*
X62813117Y-54176856D01*
X62783937Y-54180002D01*
X62738394Y-54215149D01*
X62735128Y-54285710D01*
X62774947Y-54387229D01*
X62828951Y-54488447D01*
X62745260Y-54560803D01*
X62708095Y-54590939D01*
X62648971Y-54619052D01*
X62598124Y-54600011D01*
X62538105Y-54531333D01*
X62502602Y-54468007D01*
X62483277Y-54383257D01*
X62477799Y-54260250D01*
X62477843Y-54233779D01*
X62481208Y-54138535D01*
X62495762Y-54076259D01*
X62529608Y-54025882D01*
X62590849Y-53966337D01*
X62628850Y-53932452D01*
X62691762Y-53888054D01*
X62752187Y-53872834D01*
X62835544Y-53877572D01*
X62855685Y-53880141D01*
X62955015Y-53907110D01*
X63030147Y-53961842D01*
X63091067Y-54054497D01*
X63147760Y-54195234D01*
X63178527Y-54279690D01*
X63210208Y-54344419D01*
X63242367Y-54374390D01*
X63283823Y-54381695D01*
X63295661Y-54381119D01*
X63349856Y-54353101D01*
X63368103Y-54290277D01*
X63349996Y-54202788D01*
X63295126Y-54100773D01*
X63260967Y-54050375D01*
X63235094Y-54000266D01*
X63238505Y-53965812D01*
X63268206Y-53927776D01*
X63317272Y-53890553D01*
X63386876Y-53869598D01*
X63452305Y-53893704D01*
G37*
G36*
X63242356Y-54776375D02*
G01*
X63383700Y-54781300D01*
X63500295Y-54789109D01*
X63580905Y-54799787D01*
X63614295Y-54813319D01*
X63615186Y-54816207D01*
X63620825Y-54865801D01*
X63625734Y-54959776D01*
X63629414Y-55085859D01*
X63631364Y-55231775D01*
X63631568Y-55274075D01*
X63630257Y-55434568D01*
X63623177Y-55546896D01*
X63607510Y-55619527D01*
X63580435Y-55660924D01*
X63539133Y-55679555D01*
X63480784Y-55683884D01*
X63435974Y-55677543D01*
X63390322Y-55644158D01*
X63361116Y-55575378D01*
X63345607Y-55463686D01*
X63341048Y-55301564D01*
X63340629Y-55205669D01*
X63336882Y-55128053D01*
X63326028Y-55087457D01*
X63304291Y-55071892D01*
X63267891Y-55069367D01*
X63249873Y-55069670D01*
X63218760Y-55077212D01*
X63202305Y-55104727D01*
X63195851Y-55165065D01*
X63194735Y-55271075D01*
X63194122Y-55331634D01*
X63185707Y-55426329D01*
X63161008Y-55479606D01*
X63112004Y-55503066D01*
X63030672Y-55508308D01*
X62997458Y-55503211D01*
X62943726Y-55457368D01*
X62912323Y-55361759D01*
X62902108Y-55213776D01*
X62901475Y-55157980D01*
X62894213Y-55098714D01*
X62872581Y-55074195D01*
X62828951Y-55069367D01*
X62828418Y-55069368D01*
X62793290Y-55071706D01*
X62771832Y-55086398D01*
X62760676Y-55124986D01*
X62756453Y-55199014D01*
X62755794Y-55320024D01*
X62753355Y-55445250D01*
X62741288Y-55561965D01*
X62716219Y-55635170D01*
X62674955Y-55673073D01*
X62614304Y-55683884D01*
X62600891Y-55683741D01*
X62547084Y-55676984D01*
X62509370Y-55653961D01*
X62484936Y-55606228D01*
X62470966Y-55525338D01*
X62464648Y-55402848D01*
X62463168Y-55230312D01*
X62464033Y-55116121D01*
X62469836Y-54959363D01*
X62481210Y-54858458D01*
X62498283Y-54811856D01*
X62503783Y-54808205D01*
X62557665Y-54795519D01*
X62654213Y-54785805D01*
X62782192Y-54779048D01*
X62930367Y-54775234D01*
X63087500Y-54774348D01*
X63242356Y-54776375D01*
G37*
G36*
X63883809Y-53646616D02*
G01*
X63884767Y-53647117D01*
X63890493Y-53656910D01*
X63895679Y-53680059D01*
X63900352Y-53719221D01*
X63904537Y-53777054D01*
X63908260Y-53856214D01*
X63911546Y-53959359D01*
X63914422Y-54089146D01*
X63916912Y-54248230D01*
X63919044Y-54439270D01*
X63920841Y-54664923D01*
X63922331Y-54927845D01*
X63923539Y-55230693D01*
X63924490Y-55576125D01*
X63925211Y-55966797D01*
X63925726Y-56405366D01*
X63926063Y-56894489D01*
X63926246Y-57436824D01*
X63926301Y-58035027D01*
X63926300Y-58439264D01*
X63926264Y-59002711D01*
X63926125Y-59512043D01*
X63925817Y-59969914D01*
X63925272Y-60378979D01*
X63924423Y-60741890D01*
X63923202Y-61061302D01*
X63921542Y-61339868D01*
X63919375Y-61580241D01*
X63916635Y-61785076D01*
X63913252Y-61957026D01*
X63909160Y-62098745D01*
X63904292Y-62212886D01*
X63898580Y-62302102D01*
X63891957Y-62369049D01*
X63884354Y-62416379D01*
X63875706Y-62446746D01*
X63865943Y-62462803D01*
X63855000Y-62467205D01*
X63842807Y-62462604D01*
X63829299Y-62451656D01*
X63814407Y-62437012D01*
X63810597Y-62412990D01*
X63806314Y-62333861D01*
X63802323Y-62203528D01*
X63798624Y-62025912D01*
X63795219Y-61804930D01*
X63792111Y-61544502D01*
X63789300Y-61248546D01*
X63786788Y-60920981D01*
X63784578Y-60565727D01*
X63782670Y-60186701D01*
X63781066Y-59787823D01*
X63779769Y-59373012D01*
X63778779Y-58946186D01*
X63778098Y-58511265D01*
X63777729Y-58072166D01*
X63777672Y-57632809D01*
X63777930Y-57197114D01*
X63778504Y-56768997D01*
X63779395Y-56352379D01*
X63780606Y-55951179D01*
X63782138Y-55569314D01*
X63783993Y-55210704D01*
X63786172Y-54879268D01*
X63788677Y-54578925D01*
X63791511Y-54313592D01*
X63794673Y-54087191D01*
X63798167Y-53903638D01*
X63801994Y-53766853D01*
X63806155Y-53680754D01*
X63810652Y-53649262D01*
X63827625Y-53642788D01*
X63883809Y-53646616D01*
G37*
G36*
X58854031Y-59192788D02*
G01*
X58966909Y-59262394D01*
X59006280Y-59312789D01*
X59033441Y-59412660D01*
X59031843Y-59429751D01*
X59016322Y-59504667D01*
X58986387Y-59621730D01*
X58944621Y-59771541D01*
X58893604Y-59944700D01*
X58835918Y-60131810D01*
X58781946Y-60302439D01*
X58728535Y-60467549D01*
X58685808Y-60591868D01*
X58650153Y-60683736D01*
X58617958Y-60751489D01*
X58585613Y-60803467D01*
X58549504Y-60848008D01*
X58506022Y-60893449D01*
X58402130Y-60980750D01*
X58282355Y-61048985D01*
X58169241Y-61083764D01*
X58077460Y-61078743D01*
X57994052Y-61034004D01*
X57918834Y-60946585D01*
X57891505Y-60838541D01*
X57893390Y-60818810D01*
X57894715Y-60812410D01*
X58042675Y-60812410D01*
X58049625Y-60865822D01*
X58070765Y-60899517D01*
X58105141Y-60919684D01*
X58184218Y-60935047D01*
X58302384Y-60911509D01*
X58414816Y-60837306D01*
X58417378Y-60834870D01*
X58449727Y-60795762D01*
X58483513Y-60736716D01*
X58521689Y-60650472D01*
X58567212Y-60529771D01*
X58623034Y-60367353D01*
X58692111Y-60155959D01*
X58711553Y-60095088D01*
X58767312Y-59915135D01*
X58815379Y-59752087D01*
X58853056Y-59615597D01*
X58877641Y-59515323D01*
X58886436Y-59460921D01*
X58884812Y-59435870D01*
X58852078Y-59362151D01*
X58786065Y-59323288D01*
X58698404Y-59320334D01*
X58600725Y-59354343D01*
X58504659Y-59426366D01*
X58480973Y-59454614D01*
X58445803Y-59513632D01*
X58405942Y-59601437D01*
X58358608Y-59724920D01*
X58301025Y-59890971D01*
X58230414Y-60106482D01*
X58175839Y-60277810D01*
X58116496Y-60471980D01*
X58075157Y-60621678D01*
X58050868Y-60733091D01*
X58042675Y-60812410D01*
X57894715Y-60812410D01*
X57909805Y-60739535D01*
X57940922Y-60618630D01*
X57984097Y-60465625D01*
X58036686Y-60290055D01*
X58096042Y-60101449D01*
X58156367Y-59915047D01*
X58209968Y-59753224D01*
X58252686Y-59631876D01*
X58288083Y-59542927D01*
X58319720Y-59478300D01*
X58351162Y-59429920D01*
X58385971Y-59389710D01*
X58427709Y-59349594D01*
X58450590Y-59329046D01*
X58595859Y-59226117D01*
X58698404Y-59191484D01*
X58730344Y-59180697D01*
X58854031Y-59192788D01*
G37*
G36*
X58754980Y-59466084D02*
G01*
X58775198Y-59491859D01*
X58783008Y-59541634D01*
X58778295Y-59556783D01*
X58769386Y-59607475D01*
X58761632Y-59621714D01*
X58718176Y-59634793D01*
X58687365Y-59639796D01*
X58704536Y-59659079D01*
X58709187Y-59662476D01*
X58726059Y-59708763D01*
X58705756Y-59771591D01*
X58654148Y-59830937D01*
X58630823Y-59854497D01*
X58644101Y-59867515D01*
X58657699Y-59871917D01*
X58664827Y-59905748D01*
X58643133Y-59957240D01*
X58598759Y-60007443D01*
X58577256Y-60030313D01*
X58587298Y-60044022D01*
X58601423Y-60048933D01*
X58606033Y-60083287D01*
X58582928Y-60134654D01*
X58538653Y-60184175D01*
X58512431Y-60213281D01*
X58524427Y-60242700D01*
X58537462Y-60263588D01*
X58535807Y-60317231D01*
X58514517Y-60370823D01*
X58481760Y-60395174D01*
X58467904Y-60413778D01*
X58469527Y-60467967D01*
X58471131Y-60516849D01*
X58440545Y-60557221D01*
X58416401Y-60578817D01*
X58410651Y-60641707D01*
X58408322Y-60694682D01*
X58356901Y-60771923D01*
X58302469Y-60813928D01*
X58232743Y-60830778D01*
X58169149Y-60794049D01*
X58152164Y-60768670D01*
X58143922Y-60707948D01*
X58163644Y-60653123D01*
X58205759Y-60629275D01*
X58231291Y-60623156D01*
X58220348Y-60592697D01*
X58208815Y-60567074D01*
X58211665Y-60505852D01*
X58237901Y-60449198D01*
X58278293Y-60423988D01*
X58299770Y-60420192D01*
X58280336Y-60400994D01*
X58263162Y-60380223D01*
X58259772Y-60325822D01*
X58283703Y-60272626D01*
X58326543Y-60248412D01*
X58355311Y-60243636D01*
X58336627Y-60224038D01*
X58318074Y-60184576D01*
X58326800Y-60123803D01*
X58355441Y-60068194D01*
X58395562Y-60043574D01*
X58414856Y-60040291D01*
X58399971Y-60021627D01*
X58386886Y-60000416D01*
X58388437Y-59946494D01*
X58409665Y-59892807D01*
X58442495Y-59868446D01*
X58456351Y-59849842D01*
X58454728Y-59795653D01*
X58453191Y-59746004D01*
X58486787Y-59705218D01*
X58517075Y-59676057D01*
X58516753Y-59607529D01*
X58513647Y-59589018D01*
X58522203Y-59527847D01*
X58575510Y-59478494D01*
X58642144Y-59441250D01*
X58700802Y-59433941D01*
X58754980Y-59466084D01*
G37*
G36*
X72830920Y-53831102D02*
G01*
X72830920Y-54343732D01*
X72830920Y-62111052D01*
X72830920Y-62623682D01*
X70663013Y-64068954D01*
X68495106Y-62623682D01*
X68495106Y-62111052D01*
X69032183Y-62111052D01*
X69210301Y-62111052D01*
X69210301Y-61826413D01*
X70113112Y-61826413D01*
X70113112Y-61609878D01*
X69210301Y-61609878D01*
X69210301Y-61427821D01*
X71230970Y-61427821D01*
X71309895Y-61475993D01*
X71395272Y-61524166D01*
X71483660Y-61571693D01*
X71571618Y-61617930D01*
X71658070Y-61661801D01*
X71741942Y-61702232D01*
X71819362Y-61738146D01*
X71886459Y-61768469D01*
X71230970Y-61768469D01*
X71230970Y-61959438D01*
X72295924Y-61959438D01*
X72295924Y-61789114D01*
X72177883Y-61739508D01*
X72060033Y-61687034D01*
X71942373Y-61631693D01*
X71824714Y-61573485D01*
X71706864Y-61512409D01*
X71588822Y-61448466D01*
X72295924Y-61448466D01*
X72295924Y-61257497D01*
X71230970Y-61257497D01*
X71230970Y-61427821D01*
X69210301Y-61427821D01*
X69210301Y-61325240D01*
X69032183Y-61325240D01*
X69032183Y-62111052D01*
X68495106Y-62111052D01*
X68495106Y-60661665D01*
X69032183Y-60661665D01*
X69112292Y-60710560D01*
X69198950Y-60759455D01*
X69288664Y-60807695D01*
X69377941Y-60854625D01*
X69465690Y-60899155D01*
X69550819Y-60940191D01*
X69629401Y-60976644D01*
X69697504Y-61007422D01*
X69032183Y-61007422D01*
X69032183Y-61201256D01*
X70113112Y-61201256D01*
X70113112Y-61028377D01*
X69993300Y-60978027D01*
X69873682Y-60924766D01*
X69754258Y-60868595D01*
X69634834Y-60809514D01*
X69515215Y-60747522D01*
X69395403Y-60682620D01*
X70113112Y-60682620D01*
X70113112Y-60553836D01*
X71230970Y-60553836D01*
X71334197Y-60552115D01*
X71440864Y-60550395D01*
X71549037Y-60548674D01*
X71656780Y-60546954D01*
X71763017Y-60545233D01*
X71866674Y-60543513D01*
X71965814Y-60542223D01*
X72058503Y-60541793D01*
X71938072Y-60577062D01*
X71809039Y-60614911D01*
X71692049Y-60648460D01*
X71607747Y-60672546D01*
X71607747Y-60827386D01*
X71688608Y-60848032D01*
X71795275Y-60878139D01*
X71920868Y-60914269D01*
X72058503Y-60952979D01*
X71965814Y-60952548D01*
X71866674Y-60951258D01*
X71763232Y-60949538D01*
X71657640Y-60947817D01*
X71550327Y-60946097D01*
X71441724Y-60944376D01*
X71334412Y-60943086D01*
X71230970Y-60942656D01*
X71230970Y-61138786D01*
X71363659Y-61133625D01*
X71500219Y-61128464D01*
X71638285Y-61122872D01*
X71775490Y-61116421D01*
X71911190Y-61108894D01*
X72044740Y-61100076D01*
X72173773Y-61089969D01*
X72295924Y-61078571D01*
X72295924Y-60903086D01*
X72183451Y-60865236D01*
X72062804Y-60827386D01*
X71940868Y-60789536D01*
X71824523Y-60751687D01*
X71937642Y-60712977D01*
X72060224Y-60672546D01*
X72182805Y-60632976D01*
X72295924Y-60596847D01*
X72295924Y-60421362D01*
X72173558Y-60408458D01*
X72043880Y-60397275D01*
X71909685Y-60387598D01*
X71773770Y-60379211D01*
X71636565Y-60372114D01*
X71498499Y-60366307D01*
X71362369Y-60361576D01*
X71230970Y-60357705D01*
X71230970Y-60553836D01*
X70113112Y-60553836D01*
X70113112Y-60488786D01*
X69032183Y-60488786D01*
X69032183Y-60661665D01*
X68495106Y-60661665D01*
X68495106Y-59645347D01*
X69032183Y-59645347D01*
X69032183Y-60300191D01*
X69210301Y-60300191D01*
X69210301Y-59860136D01*
X69453029Y-59860136D01*
X69453029Y-60242564D01*
X69631147Y-60242564D01*
X69631147Y-59860136D01*
X69934994Y-59860136D01*
X69934994Y-60338608D01*
X70113112Y-60338608D01*
X70113112Y-59888024D01*
X71206884Y-59888024D01*
X71222463Y-60003103D01*
X71269202Y-60098301D01*
X71347100Y-60173618D01*
X71425649Y-60216521D01*
X71521080Y-60247167D01*
X71633393Y-60265554D01*
X71762587Y-60271683D01*
X71891782Y-60265446D01*
X72004094Y-60246737D01*
X72099525Y-60215554D01*
X72178074Y-60171897D01*
X72255972Y-60096198D01*
X72302711Y-60002147D01*
X72318290Y-59889745D01*
X72302711Y-59774570D01*
X72255972Y-59679086D01*
X72178074Y-59603291D01*
X72099525Y-59560011D01*
X72004094Y-59529097D01*
X71891782Y-59510548D01*
X71762587Y-59504365D01*
X71633393Y-59510709D01*
X71521080Y-59529742D01*
X71425649Y-59561462D01*
X71347100Y-59605871D01*
X71269202Y-59682336D01*
X71222463Y-59776386D01*
X71206884Y-59888024D01*
X70113112Y-59888024D01*
X70113112Y-59645347D01*
X69032183Y-59645347D01*
X68495106Y-59645347D01*
X68495106Y-58915415D01*
X69032183Y-58915415D01*
X69112292Y-58964310D01*
X69198950Y-59013205D01*
X69288664Y-59061445D01*
X69377941Y-59108375D01*
X69465690Y-59152905D01*
X69550819Y-59193941D01*
X69629401Y-59230394D01*
X69697504Y-59261172D01*
X69032183Y-59261172D01*
X69032183Y-59455006D01*
X70113112Y-59455006D01*
X70113112Y-59282127D01*
X69993300Y-59231777D01*
X69873682Y-59178516D01*
X69754258Y-59122345D01*
X69634834Y-59063264D01*
X69515215Y-59001272D01*
X69411742Y-58945221D01*
X71218927Y-58945221D01*
X71226669Y-59045652D01*
X71249895Y-59137051D01*
X71289680Y-59217266D01*
X71347100Y-59284149D01*
X71422369Y-59337697D01*
X71515703Y-59377913D01*
X71628608Y-59403074D01*
X71762587Y-59411461D01*
X71899577Y-59402214D01*
X72014632Y-59374472D01*
X72109041Y-59330385D01*
X72184096Y-59272105D01*
X72240655Y-59200492D01*
X72279580Y-59116405D01*
X72302161Y-59021566D01*
X72309688Y-58917694D01*
X72303666Y-58806725D01*
X72283881Y-58690596D01*
X71244734Y-58690596D01*
X71224088Y-58826511D01*
X71218927Y-58945221D01*
X69411742Y-58945221D01*
X69395403Y-58936370D01*
X70113112Y-58936370D01*
X70113112Y-58742536D01*
X69032183Y-58742536D01*
X69032183Y-58915415D01*
X68495106Y-58915415D01*
X68495106Y-58225646D01*
X69007736Y-58225646D01*
X69023549Y-58342450D01*
X69070989Y-58439076D01*
X69150055Y-58515523D01*
X69229782Y-58559070D01*
X69326645Y-58590175D01*
X69440642Y-58608838D01*
X69571774Y-58615060D01*
X69702907Y-58608729D01*
X69816904Y-58589739D01*
X69913767Y-58558088D01*
X69993494Y-58513777D01*
X70072560Y-58436942D01*
X70120000Y-58341480D01*
X70135813Y-58227392D01*
X70120000Y-58110490D01*
X70072560Y-58013573D01*
X69993494Y-57936641D01*
X69913767Y-57892712D01*
X69816904Y-57861334D01*
X69702907Y-57842508D01*
X69571774Y-57836232D01*
X69440642Y-57842671D01*
X69326645Y-57861989D01*
X69229782Y-57894186D01*
X69150055Y-57939261D01*
X69070989Y-58016872D01*
X69023549Y-58112334D01*
X69007736Y-58225646D01*
X68495106Y-58225646D01*
X68495106Y-57307118D01*
X69019959Y-57307118D01*
X69029370Y-57434206D01*
X69057601Y-57540728D01*
X69104653Y-57626682D01*
X69173047Y-57689741D01*
X69265308Y-57727576D01*
X69381433Y-57740188D01*
X69498723Y-57727479D01*
X69592147Y-57689353D01*
X69661706Y-57625809D01*
X69709728Y-57538981D01*
X69738541Y-57431005D01*
X69748146Y-57301879D01*
X69748146Y-57225044D01*
X70113112Y-57225044D01*
X70113112Y-57010256D01*
X69046153Y-57010256D01*
X69033929Y-57080979D01*
X69026071Y-57160433D01*
X69021706Y-57239014D01*
X69019959Y-57307118D01*
X68495106Y-57307118D01*
X68495106Y-56985636D01*
X71230970Y-56985636D01*
X71230970Y-57630802D01*
X71406455Y-57630802D01*
X71406455Y-57197251D01*
X71645597Y-57197251D01*
X71645597Y-57574028D01*
X71821082Y-57574028D01*
X71821082Y-57197251D01*
X72120439Y-57197251D01*
X72120439Y-57668652D01*
X72295924Y-57668652D01*
X72295924Y-56985636D01*
X71230970Y-56985636D01*
X68495106Y-56985636D01*
X68495106Y-56145862D01*
X69032183Y-56145862D01*
X69032183Y-56323979D01*
X69126481Y-56354539D01*
X69250464Y-56393829D01*
X69384926Y-56435739D01*
X69510656Y-56475903D01*
X69377068Y-56519559D01*
X69244353Y-56563216D01*
X69124734Y-56601633D01*
X69032183Y-56633066D01*
X69032183Y-56811183D01*
X69171883Y-56823189D01*
X69308091Y-56834758D01*
X69441897Y-56845235D01*
X69574394Y-56853966D01*
X69706672Y-56861170D01*
X69839824Y-56867063D01*
X69974940Y-56871865D01*
X70113112Y-56875794D01*
X70113112Y-56678468D01*
X69273166Y-56688946D01*
X69730683Y-56556231D01*
X69730683Y-56399068D01*
X69606818Y-56364556D01*
X71218927Y-56364556D01*
X71226669Y-56464987D01*
X71249895Y-56556386D01*
X71289680Y-56636601D01*
X71347100Y-56703483D01*
X71422369Y-56757032D01*
X71515703Y-56797248D01*
X71628608Y-56822409D01*
X71762587Y-56830796D01*
X71899577Y-56821549D01*
X72014632Y-56793807D01*
X72109041Y-56749720D01*
X72184096Y-56691440D01*
X72240655Y-56619827D01*
X72279580Y-56535740D01*
X72302161Y-56440901D01*
X72309688Y-56337029D01*
X72303666Y-56226060D01*
X72283881Y-56109931D01*
X71244734Y-56109931D01*
X71224088Y-56245846D01*
X71218927Y-56364556D01*
X69606818Y-56364556D01*
X69273166Y-56271592D01*
X70113112Y-56280323D01*
X70113112Y-56082997D01*
X69977778Y-56088454D01*
X69837204Y-56094348D01*
X69694449Y-56100678D01*
X69552566Y-56107444D01*
X69413302Y-56115084D01*
X69278404Y-56124034D01*
X69150492Y-56134293D01*
X69032183Y-56145862D01*
X68495106Y-56145862D01*
X68495106Y-55606271D01*
X69007736Y-55606271D01*
X69023549Y-55723075D01*
X69070989Y-55819701D01*
X69150055Y-55896148D01*
X69229782Y-55939695D01*
X69326645Y-55970800D01*
X69440642Y-55989463D01*
X69571774Y-55995684D01*
X69702907Y-55989354D01*
X69816904Y-55970364D01*
X69913767Y-55938713D01*
X69936923Y-55925843D01*
X71230970Y-55925843D01*
X71406455Y-55925843D01*
X71406455Y-55695304D01*
X72120439Y-55695304D01*
X72120439Y-55925843D01*
X72295924Y-55925843D01*
X72295924Y-55249709D01*
X72120439Y-55249709D01*
X72120439Y-55481969D01*
X71406455Y-55481969D01*
X71406455Y-55249709D01*
X71230970Y-55249709D01*
X71230970Y-55925843D01*
X69936923Y-55925843D01*
X69993494Y-55894402D01*
X70072560Y-55817567D01*
X70120000Y-55722105D01*
X70135813Y-55608017D01*
X70120000Y-55491115D01*
X70072560Y-55394198D01*
X69993494Y-55317266D01*
X69913767Y-55273337D01*
X69816904Y-55241959D01*
X69702907Y-55223133D01*
X69571774Y-55216857D01*
X69440642Y-55223296D01*
X69326645Y-55242614D01*
X69229782Y-55274811D01*
X69150055Y-55319886D01*
X69070989Y-55397497D01*
X69023549Y-55492959D01*
X69007736Y-55606271D01*
X68495106Y-55606271D01*
X68495106Y-54834428D01*
X69007736Y-54834428D01*
X69017340Y-54938330D01*
X69039168Y-55019531D01*
X69065362Y-55078030D01*
X69086317Y-55113828D01*
X69257449Y-55057948D01*
X69212920Y-54961031D01*
X69194584Y-54830936D01*
X69212920Y-54732273D01*
X69274039Y-54646706D01*
X69388418Y-54585588D01*
X69468746Y-54567907D01*
X69566536Y-54562013D01*
X69680333Y-54569095D01*
X69774922Y-54590341D01*
X69850301Y-54625751D01*
X69924299Y-54709790D01*
X69948964Y-54834428D01*
X69929756Y-54973255D01*
X69891338Y-55061441D01*
X70060724Y-55115574D01*
X70112239Y-54992464D01*
X70129920Y-54908862D01*
X70135813Y-54813473D01*
X70127941Y-54745619D01*
X71206884Y-54745619D01*
X71212475Y-54837448D01*
X71229250Y-54916803D01*
X71279142Y-55039815D01*
X71442585Y-54977879D01*
X71401294Y-54882394D01*
X71384090Y-54761103D01*
X71414627Y-54634650D01*
X71506241Y-54592500D01*
X71560435Y-54609704D01*
X71601726Y-54653575D01*
X71633554Y-54713791D01*
X71659360Y-54780028D01*
X71701511Y-54884115D01*
X71763447Y-54983900D01*
X71859792Y-55058740D01*
X71924954Y-55080675D01*
X72005170Y-55087987D01*
X72137859Y-55063686D01*
X72236569Y-54990782D01*
X72281970Y-54914796D01*
X72309210Y-54816444D01*
X72318290Y-54695726D01*
X72311193Y-54576585D01*
X72289903Y-54484112D01*
X72237429Y-54365401D01*
X72065385Y-54427337D01*
X72116998Y-54538306D01*
X72135063Y-54609919D01*
X72141085Y-54695726D01*
X72129902Y-54784329D01*
X72098934Y-54840243D01*
X72054202Y-54868631D01*
X72003449Y-54876373D01*
X71944954Y-54857448D01*
X71899362Y-54809275D01*
X71863233Y-54743899D01*
X71833125Y-54671640D01*
X71793555Y-54571854D01*
X71736780Y-54478090D01*
X71651618Y-54408412D01*
X71525166Y-54380885D01*
X71391832Y-54405186D01*
X71291186Y-54478090D01*
X71244351Y-54551018D01*
X71216251Y-54640194D01*
X71206884Y-54745619D01*
X70127941Y-54745619D01*
X70119515Y-54672997D01*
X70070620Y-54556580D01*
X69989128Y-54464223D01*
X69908037Y-54411508D01*
X69811447Y-54373855D01*
X69699360Y-54351263D01*
X69571774Y-54343732D01*
X69444735Y-54352900D01*
X69332538Y-54380403D01*
X69235840Y-54424278D01*
X69155294Y-54482559D01*
X69091556Y-54554155D01*
X69045280Y-54637975D01*
X69017122Y-54732054D01*
X69007736Y-54834428D01*
X68495106Y-54834428D01*
X68495106Y-54343732D01*
X68495106Y-53831102D01*
X70663013Y-52385830D01*
X72830920Y-53831102D01*
G37*
G36*
X60267258Y-50535259D02*
G01*
X60291045Y-50549119D01*
X60283092Y-50576886D01*
X60248354Y-50653931D01*
X60189102Y-50770875D01*
X60108690Y-50921863D01*
X60010470Y-51101041D01*
X59897796Y-51302553D01*
X59774019Y-51520543D01*
X59642494Y-51749157D01*
X59506573Y-51982539D01*
X59369610Y-52214833D01*
X59234957Y-52440185D01*
X59105966Y-52652739D01*
X58985992Y-52846640D01*
X58878388Y-53016032D01*
X58720821Y-53259817D01*
X58957258Y-53499036D01*
X59169493Y-53727807D01*
X59480078Y-54119120D01*
X59497559Y-54141145D01*
X59554522Y-54226932D01*
X59807909Y-54608537D01*
X60099968Y-55128742D01*
X60373160Y-55700516D01*
X60626909Y-56322618D01*
X60675792Y-56462992D01*
X60782497Y-56769410D01*
X60860639Y-56993806D01*
X61033315Y-57576345D01*
X61073774Y-57712837D01*
X61117369Y-57886712D01*
X61265738Y-58478469D01*
X61280266Y-58569101D01*
X61280238Y-58681951D01*
X61260055Y-58812984D01*
X61217845Y-58973654D01*
X61151732Y-59175415D01*
X61105730Y-59306523D01*
X60896379Y-59877320D01*
X60681420Y-60423052D01*
X60463716Y-60937157D01*
X60246125Y-61413074D01*
X60031509Y-61844239D01*
X59822728Y-62224091D01*
X59776134Y-62305511D01*
X59721003Y-62406191D01*
X59683290Y-62480589D01*
X59669280Y-62516718D01*
X59674380Y-62531211D01*
X59704424Y-62590114D01*
X59756899Y-62684202D01*
X59826606Y-62804248D01*
X59908347Y-62941026D01*
X60068519Y-63215808D01*
X60239425Y-63527288D01*
X60409123Y-63852883D01*
X60566924Y-64172082D01*
X60702140Y-64464373D01*
X60703126Y-64466602D01*
X60745591Y-64565727D01*
X60798163Y-64692882D01*
X60856807Y-64837790D01*
X60917492Y-64990177D01*
X60976186Y-65139768D01*
X61028856Y-65276288D01*
X61071470Y-65389462D01*
X61099995Y-65469016D01*
X61110399Y-65504674D01*
X61108272Y-65506897D01*
X61069814Y-65513489D01*
X60998341Y-65516142D01*
X60886283Y-65516142D01*
X60730743Y-65113780D01*
X60620392Y-64838362D01*
X60382208Y-64297214D01*
X60120000Y-63762825D01*
X59842444Y-63252440D01*
X59558216Y-62783302D01*
X59390959Y-62523159D01*
X59551938Y-62258921D01*
X59568597Y-62231185D01*
X59630570Y-62123601D01*
X59703745Y-61991646D01*
X59783189Y-61844773D01*
X59863969Y-61692435D01*
X59941152Y-61544083D01*
X60009804Y-61409170D01*
X60064993Y-61297149D01*
X60101784Y-61217472D01*
X60115246Y-61179591D01*
X60098712Y-61178550D01*
X60041170Y-61196782D01*
X59954415Y-61231035D01*
X59851069Y-61275652D01*
X59743752Y-61324973D01*
X59645085Y-61373340D01*
X59567688Y-61415096D01*
X59524182Y-61444582D01*
X59498656Y-61481506D01*
X59461727Y-61564090D01*
X59429516Y-61665253D01*
X59407088Y-61742889D01*
X59372937Y-61839008D01*
X59342637Y-61902296D01*
X59308596Y-61941307D01*
X59210490Y-62007147D01*
X59081826Y-62058183D01*
X58940706Y-62086136D01*
X58923253Y-62087749D01*
X58845734Y-62090093D01*
X58805691Y-62075810D01*
X58785871Y-62039726D01*
X58727490Y-61930500D01*
X58613920Y-61823921D01*
X58605750Y-61819245D01*
X59042458Y-61819245D01*
X59045261Y-61821801D01*
X59074407Y-61823861D01*
X59110453Y-61784058D01*
X59155377Y-61698704D01*
X59211157Y-61564109D01*
X59279770Y-61376584D01*
X59292560Y-61339983D01*
X59339850Y-61200290D01*
X59378147Y-61080336D01*
X59403802Y-60991880D01*
X59413164Y-60946686D01*
X59410755Y-60916918D01*
X59389257Y-60881589D01*
X59354359Y-60895451D01*
X59316969Y-60957301D01*
X59281003Y-61049028D01*
X59232640Y-61181456D01*
X59183213Y-61324713D01*
X59136216Y-61467824D01*
X59095146Y-61599810D01*
X59063499Y-61709693D01*
X59044771Y-61786498D01*
X59042458Y-61819245D01*
X58605750Y-61819245D01*
X58446069Y-61727855D01*
X58222080Y-61640987D01*
X58190772Y-61630057D01*
X58095306Y-61583071D01*
X58051601Y-61533742D01*
X58022323Y-61484658D01*
X57963693Y-61430673D01*
X57949445Y-61422022D01*
X57911906Y-61406958D01*
X57860491Y-61399595D01*
X57784137Y-61399708D01*
X57671779Y-61407071D01*
X57512356Y-61421457D01*
X57408448Y-61430977D01*
X57251585Y-61441028D01*
X57122521Y-61438327D01*
X57014306Y-61418029D01*
X56919993Y-61375290D01*
X56832636Y-61305265D01*
X56745285Y-61203109D01*
X56650993Y-61063977D01*
X56542813Y-60883025D01*
X56413797Y-60655407D01*
X56404919Y-60639589D01*
X56278931Y-60415382D01*
X56177971Y-60236542D01*
X56098770Y-60097658D01*
X56038063Y-59993320D01*
X55992584Y-59918121D01*
X55959067Y-59866649D01*
X55934245Y-59833495D01*
X55914852Y-59813250D01*
X55897622Y-59800504D01*
X55879223Y-59793234D01*
X55819656Y-59792146D01*
X55722464Y-59809884D01*
X55579208Y-59847701D01*
X55439191Y-59884371D01*
X55330305Y-59902150D01*
X55257698Y-59895948D01*
X55212052Y-59864823D01*
X55184046Y-59807835D01*
X55164528Y-59772644D01*
X55120821Y-59764035D01*
X55117651Y-59765251D01*
X55039063Y-59793345D01*
X54981971Y-59802207D01*
X54937493Y-59784913D01*
X54896748Y-59734539D01*
X54850853Y-59644159D01*
X54790927Y-59506851D01*
X54786520Y-59496464D01*
X55095022Y-59496464D01*
X55118485Y-59515895D01*
X55183345Y-59505619D01*
X55197051Y-59502060D01*
X55243735Y-59481855D01*
X55250296Y-59446524D01*
X55222150Y-59378296D01*
X55210384Y-59355277D01*
X55179471Y-59318064D01*
X55151310Y-59334195D01*
X55118476Y-59405629D01*
X55106841Y-59437899D01*
X55095022Y-59496464D01*
X54786520Y-59496464D01*
X54769901Y-59457291D01*
X54730690Y-59357000D01*
X54712425Y-59288160D01*
X54712019Y-59235284D01*
X54726389Y-59182884D01*
X54755898Y-59062361D01*
X54744291Y-58950277D01*
X54686479Y-58829621D01*
X54649053Y-58753031D01*
X54615679Y-58606051D01*
X54619578Y-58516109D01*
X54848449Y-58516109D01*
X54854306Y-58579616D01*
X54885742Y-58674041D01*
X54940464Y-58789718D01*
X54960820Y-58828127D01*
X55000391Y-58910078D01*
X55016777Y-58971250D01*
X55013661Y-59034154D01*
X54994728Y-59121302D01*
X54974250Y-59225522D01*
X54973789Y-59300888D01*
X54993789Y-59369263D01*
X55015963Y-59417661D01*
X55046161Y-59452634D01*
X55074645Y-59431965D01*
X55108126Y-59354802D01*
X55133162Y-59298812D01*
X55161583Y-59276088D01*
X55179471Y-59287376D01*
X55195747Y-59297647D01*
X55240700Y-59366954D01*
X55301490Y-59487469D01*
X55353361Y-59585938D01*
X55395755Y-59640018D01*
X55429975Y-59648741D01*
X55451805Y-59642088D01*
X56431877Y-59642088D01*
X56453951Y-59686341D01*
X56487086Y-59726605D01*
X56514134Y-59738016D01*
X56533335Y-59710356D01*
X56552641Y-59648680D01*
X56557539Y-59617092D01*
X56548664Y-59587143D01*
X56504925Y-59593357D01*
X56465727Y-59606498D01*
X56433317Y-59620842D01*
X56431877Y-59642088D01*
X55451805Y-59642088D01*
X55465008Y-59638064D01*
X55548908Y-59614720D01*
X55670577Y-59581867D01*
X55820077Y-59542188D01*
X55987470Y-59498363D01*
X56138036Y-59458610D01*
X56291299Y-59416827D01*
X56418265Y-59380794D01*
X56508792Y-59353398D01*
X56548664Y-59338996D01*
X56552738Y-59337524D01*
X56556723Y-59335241D01*
X56590396Y-59296667D01*
X56604086Y-59248050D01*
X56595981Y-59210311D01*
X56564268Y-59204369D01*
X56531360Y-59214476D01*
X56449461Y-59237630D01*
X56329613Y-59270625D01*
X56181697Y-59310742D01*
X56015593Y-59355265D01*
X55868830Y-59394446D01*
X55716194Y-59435338D01*
X55589633Y-59469399D01*
X55499311Y-59493894D01*
X55455388Y-59506086D01*
X55428298Y-59521273D01*
X55401663Y-59570475D01*
X55401589Y-59571785D01*
X55393245Y-59586128D01*
X55375742Y-59546556D01*
X55359297Y-59502056D01*
X55321695Y-59412590D01*
X55276124Y-59312455D01*
X55268219Y-59295649D01*
X55221866Y-59184812D01*
X55207733Y-59117763D01*
X55237964Y-59117763D01*
X55243263Y-59145451D01*
X55265798Y-59209534D01*
X55298572Y-59292485D01*
X55334439Y-59376897D01*
X55366252Y-59445361D01*
X55386865Y-59480472D01*
X55388553Y-59480802D01*
X55428563Y-59473930D01*
X55514734Y-59454277D01*
X55638428Y-59423950D01*
X55791004Y-59385058D01*
X55963822Y-59339707D01*
X55993221Y-59331877D01*
X56165974Y-59285311D01*
X56318920Y-59243173D01*
X56442856Y-59208065D01*
X56528582Y-59182586D01*
X56566894Y-59169335D01*
X56570559Y-59166893D01*
X56579564Y-59135651D01*
X56562062Y-59071372D01*
X56515954Y-58965664D01*
X56493045Y-58918472D01*
X56447606Y-58838129D01*
X56411469Y-58800656D01*
X56377432Y-58797300D01*
X56377127Y-58797392D01*
X56332691Y-58810013D01*
X56241747Y-58835226D01*
X56114096Y-58870334D01*
X55959539Y-58912642D01*
X55787879Y-58959455D01*
X55777813Y-58962196D01*
X55610364Y-59008256D01*
X55463727Y-59049413D01*
X55346830Y-59083097D01*
X55268600Y-59106736D01*
X55237964Y-59117763D01*
X55207733Y-59117763D01*
X55203810Y-59099150D01*
X55207075Y-59067600D01*
X55237357Y-59067600D01*
X55253506Y-59065833D01*
X55317775Y-59051504D01*
X55422078Y-59025527D01*
X55556916Y-58990288D01*
X55712790Y-58948174D01*
X55811342Y-58921175D01*
X55973684Y-58876800D01*
X56118011Y-58837469D01*
X56231519Y-58806669D01*
X56301400Y-58787887D01*
X56322622Y-58782048D01*
X56377432Y-58759765D01*
X56383358Y-58757356D01*
X56694289Y-58757356D01*
X56719766Y-58843261D01*
X56731021Y-58858000D01*
X56752596Y-58856790D01*
X56777844Y-58804777D01*
X56792457Y-58758896D01*
X56805589Y-58676527D01*
X56802134Y-58609422D01*
X56785114Y-58568352D01*
X56757551Y-58564090D01*
X56722467Y-58607408D01*
X56703343Y-58656639D01*
X56694289Y-58757356D01*
X56383358Y-58757356D01*
X56391967Y-58753856D01*
X56433708Y-58707853D01*
X56467884Y-58624356D01*
X56481694Y-58580371D01*
X56495773Y-58517590D01*
X56492437Y-58492795D01*
X56489450Y-58493179D01*
X56444408Y-58503508D01*
X56353646Y-58526250D01*
X56225925Y-58559151D01*
X56070010Y-58599960D01*
X55894662Y-58646424D01*
X55317059Y-58800358D01*
X55272916Y-58929687D01*
X55259439Y-58970898D01*
X55240841Y-59037503D01*
X55237357Y-59067600D01*
X55207075Y-59067600D01*
X55212364Y-59016490D01*
X55245839Y-58914658D01*
X55256384Y-58886507D01*
X55276323Y-58815991D01*
X55271550Y-58761603D01*
X55241499Y-58694585D01*
X55190659Y-58596270D01*
X55145522Y-58691576D01*
X55138616Y-58705359D01*
X55100843Y-58760066D01*
X55069391Y-58777245D01*
X55052400Y-58763567D01*
X55011934Y-58709491D01*
X54965238Y-58630439D01*
X54935371Y-58577622D01*
X54895026Y-58516877D01*
X54870134Y-58493185D01*
X54848449Y-58516109D01*
X54619578Y-58516109D01*
X54622096Y-58458007D01*
X54623881Y-58453147D01*
X54924843Y-58453147D01*
X54941288Y-58512652D01*
X54971906Y-58591369D01*
X55008573Y-58670666D01*
X55043164Y-58731909D01*
X55067556Y-58756464D01*
X55072803Y-58752882D01*
X55099863Y-58714031D01*
X55137342Y-58646220D01*
X55140766Y-58639522D01*
X55162434Y-58600761D01*
X55178382Y-58581561D01*
X55205477Y-58581561D01*
X55227406Y-58627780D01*
X55264466Y-58685871D01*
X55303418Y-58735750D01*
X55331022Y-58757334D01*
X55334531Y-58757036D01*
X55382044Y-58746996D01*
X55475091Y-58724404D01*
X55604739Y-58691517D01*
X55762055Y-58650593D01*
X55938105Y-58603890D01*
X55983094Y-58591802D01*
X56152514Y-58545431D01*
X56298830Y-58504066D01*
X56413664Y-58470164D01*
X56488639Y-58446181D01*
X56492437Y-58444532D01*
X56515377Y-58434575D01*
X56515044Y-58430331D01*
X56495719Y-58374690D01*
X56457188Y-58308435D01*
X56413670Y-58252980D01*
X56379380Y-58229736D01*
X56356444Y-58234351D01*
X56284886Y-58252795D01*
X56175848Y-58282538D01*
X56039759Y-58320580D01*
X55887047Y-58363923D01*
X55728143Y-58409566D01*
X55573475Y-58454510D01*
X55433472Y-58495755D01*
X55318562Y-58530302D01*
X55239176Y-58555150D01*
X55205741Y-58567301D01*
X55205477Y-58581561D01*
X55178382Y-58581561D01*
X55187999Y-58569983D01*
X55226175Y-58543127D01*
X55285678Y-58516134D01*
X55375222Y-58484942D01*
X55503523Y-58445492D01*
X55679296Y-58393723D01*
X55811373Y-58354289D01*
X55952478Y-58310245D01*
X56064501Y-58273090D01*
X56138369Y-58245854D01*
X56165008Y-58231565D01*
X56156517Y-58207736D01*
X56124940Y-58156864D01*
X56117780Y-58147668D01*
X56100014Y-58132956D01*
X56072590Y-58126167D01*
X56027712Y-58128565D01*
X55957584Y-58141415D01*
X55854410Y-58165979D01*
X55710393Y-58203522D01*
X55517740Y-58255307D01*
X55485962Y-58263921D01*
X55314560Y-58311358D01*
X55163947Y-58354632D01*
X55043076Y-58391059D01*
X54960898Y-58417955D01*
X54926364Y-58432635D01*
X54924843Y-58453147D01*
X54623881Y-58453147D01*
X54669044Y-58330178D01*
X54691283Y-58297960D01*
X54738663Y-58255440D01*
X54811080Y-58222586D01*
X54870134Y-58205908D01*
X54924983Y-58190418D01*
X54927165Y-58189875D01*
X55111139Y-58141966D01*
X55247548Y-58097189D01*
X55345985Y-58046641D01*
X55416042Y-57981424D01*
X55431565Y-57954541D01*
X55699439Y-57954541D01*
X55726585Y-57961322D01*
X55741131Y-57942098D01*
X55770594Y-57872077D01*
X55790800Y-57812664D01*
X56054240Y-57812664D01*
X56057028Y-57855786D01*
X56072590Y-57870566D01*
X56076741Y-57874509D01*
X56113510Y-57878584D01*
X56186822Y-57896022D01*
X56262983Y-57938842D01*
X56324430Y-57975209D01*
X56379380Y-57975168D01*
X56382355Y-57975166D01*
X56388831Y-57970629D01*
X56398196Y-57945861D01*
X56385923Y-57899383D01*
X56348651Y-57822037D01*
X56283016Y-57704669D01*
X56140910Y-57458104D01*
X56109477Y-57574835D01*
X56098923Y-57614230D01*
X56068248Y-57735395D01*
X56054240Y-57812664D01*
X55790800Y-57812664D01*
X55809369Y-57758063D01*
X55854991Y-57607431D01*
X55904996Y-57427553D01*
X55948557Y-57266580D01*
X55989139Y-57120282D01*
X56022697Y-57003130D01*
X56046607Y-56924276D01*
X56058248Y-56892871D01*
X56061271Y-56893610D01*
X56088077Y-56926168D01*
X56136524Y-56998084D01*
X56140910Y-57005070D01*
X56200912Y-57100641D01*
X56275541Y-57225125D01*
X56370971Y-57387772D01*
X56525594Y-57652109D01*
X56664851Y-57891218D01*
X56757551Y-58051234D01*
X56786330Y-58100912D01*
X56887617Y-58277005D01*
X56966299Y-58415313D01*
X57019962Y-58511648D01*
X57046194Y-58561826D01*
X57052259Y-58583858D01*
X57052933Y-58629175D01*
X57043831Y-58698454D01*
X57023609Y-58798135D01*
X56990921Y-58934653D01*
X56944421Y-59114447D01*
X56882766Y-59343954D01*
X56853098Y-59453027D01*
X56785068Y-59701550D01*
X56729764Y-59900479D01*
X56685627Y-60054888D01*
X56651100Y-60169848D01*
X56624625Y-60250432D01*
X56604645Y-60301711D01*
X56589602Y-60328760D01*
X56577939Y-60336649D01*
X56557944Y-60315726D01*
X56514886Y-60253324D01*
X56455851Y-60159420D01*
X56387407Y-60044095D01*
X56323951Y-59936857D01*
X56261025Y-59835749D01*
X56212551Y-59763599D01*
X56185648Y-59731435D01*
X56178916Y-59734259D01*
X56192005Y-59772685D01*
X56227922Y-59841097D01*
X56232468Y-59849000D01*
X56274140Y-59921990D01*
X56337863Y-60034148D01*
X56417927Y-60175402D01*
X56508622Y-60335679D01*
X56604240Y-60504909D01*
X56632931Y-60555548D01*
X56721515Y-60709583D01*
X56799877Y-60842437D01*
X56863468Y-60946615D01*
X56907743Y-61014619D01*
X56928153Y-61038953D01*
X56940795Y-61022059D01*
X56968033Y-60959353D01*
X57003811Y-60861170D01*
X57043701Y-60739010D01*
X57081898Y-60617241D01*
X57134157Y-60452468D01*
X57195099Y-60261596D01*
X57259958Y-60059550D01*
X57323969Y-59861254D01*
X57336839Y-59821306D01*
X57392044Y-59644973D01*
X57439570Y-59485237D01*
X57476687Y-59351821D01*
X57500667Y-59254449D01*
X57508780Y-59202844D01*
X57500449Y-59127344D01*
X57476556Y-59046827D01*
X57432244Y-58950942D01*
X57362656Y-58829173D01*
X57262930Y-58671009D01*
X57254393Y-58657746D01*
X57187753Y-58551459D01*
X57143279Y-58478865D01*
X57459715Y-58478865D01*
X57461843Y-58527581D01*
X57496472Y-58604127D01*
X57565611Y-58717456D01*
X57612620Y-58788267D01*
X57664413Y-58854240D01*
X57719028Y-58900281D01*
X57785689Y-58928635D01*
X57873620Y-58941545D01*
X57992044Y-58941257D01*
X58150187Y-58930014D01*
X58357273Y-58910061D01*
X58499195Y-58894690D01*
X58647393Y-58875913D01*
X58765955Y-58857822D01*
X58845327Y-58841897D01*
X58875954Y-58829621D01*
X58876209Y-58827162D01*
X58860499Y-58785730D01*
X58819673Y-58710062D01*
X58761317Y-58611988D01*
X58693014Y-58503341D01*
X58622353Y-58395953D01*
X58556917Y-58301653D01*
X58504292Y-58232276D01*
X58472063Y-58199650D01*
X58445519Y-58199950D01*
X58370992Y-58212560D01*
X58261073Y-58235969D01*
X58127289Y-58267295D01*
X57981164Y-58303657D01*
X57834225Y-58342171D01*
X57697997Y-58379955D01*
X57584005Y-58414126D01*
X57503775Y-58441804D01*
X57488081Y-58449027D01*
X57459715Y-58478865D01*
X57143279Y-58478865D01*
X57098384Y-58405584D01*
X56991975Y-58229571D01*
X56874214Y-58032873D01*
X56750792Y-57824939D01*
X56627396Y-57615220D01*
X56586329Y-57545104D01*
X56472477Y-57350888D01*
X56367182Y-57171500D01*
X56274642Y-57014077D01*
X56199056Y-56885759D01*
X56144622Y-56793683D01*
X56115538Y-56744987D01*
X56057777Y-56650215D01*
X55887210Y-57271715D01*
X55865988Y-57348948D01*
X55817071Y-57526208D01*
X55773767Y-57682092D01*
X55738530Y-57807829D01*
X55713810Y-57894651D01*
X55702061Y-57933787D01*
X55699439Y-57954541D01*
X55431565Y-57954541D01*
X55467310Y-57892636D01*
X55509382Y-57771376D01*
X55551851Y-57608744D01*
X55563212Y-57562878D01*
X55629203Y-57306297D01*
X55697090Y-57057378D01*
X55764362Y-56824347D01*
X55821224Y-56639150D01*
X56343497Y-56639150D01*
X56372217Y-56698600D01*
X56397390Y-56743395D01*
X56491934Y-56909269D01*
X56595530Y-57087992D01*
X56703918Y-57272508D01*
X56812834Y-57455761D01*
X56918018Y-57630692D01*
X57015208Y-57790247D01*
X57100142Y-57927366D01*
X57168559Y-58034995D01*
X57216196Y-58106076D01*
X57238793Y-58133552D01*
X57270231Y-58125250D01*
X57346556Y-58091976D01*
X57426442Y-58053281D01*
X57964662Y-58053281D01*
X57978619Y-58051331D01*
X58041328Y-58037237D01*
X58138890Y-58012496D01*
X58257083Y-57980640D01*
X58318376Y-57963932D01*
X58428907Y-57935145D01*
X58472063Y-57924835D01*
X58512126Y-57915264D01*
X58553545Y-57907847D01*
X58564471Y-57914870D01*
X58605300Y-57961512D01*
X58667616Y-58044648D01*
X58745178Y-58155785D01*
X58831747Y-58286432D01*
X58879071Y-58358587D01*
X58962041Y-58480121D01*
X59032942Y-58577711D01*
X59085446Y-58642805D01*
X59113222Y-58666847D01*
X59146813Y-58650988D01*
X59149571Y-58592906D01*
X59117360Y-58495170D01*
X59051205Y-58360797D01*
X58952131Y-58192805D01*
X58870079Y-58063938D01*
X58791202Y-57943726D01*
X58725042Y-57846525D01*
X58680556Y-57785765D01*
X58606359Y-57693651D01*
X58270879Y-57873390D01*
X58242214Y-57888806D01*
X58125027Y-57953188D01*
X58034009Y-58005409D01*
X57977705Y-58040447D01*
X57964662Y-58053281D01*
X57426442Y-58053281D01*
X57460063Y-58036996D01*
X57603597Y-57963882D01*
X57770006Y-57876202D01*
X57952138Y-57777526D01*
X58087768Y-57703798D01*
X58272573Y-57605949D01*
X58431089Y-57525233D01*
X58557201Y-57464657D01*
X58606359Y-57443650D01*
X58644795Y-57427225D01*
X58687757Y-57415943D01*
X58714264Y-57432196D01*
X58770469Y-57492460D01*
X58844803Y-57588516D01*
X58931599Y-57711371D01*
X59025193Y-57852030D01*
X59119921Y-58001501D01*
X59210118Y-58150790D01*
X59290119Y-58290903D01*
X59354260Y-58412848D01*
X59396876Y-58507630D01*
X59412302Y-58566257D01*
X59411220Y-58576578D01*
X59392012Y-58640741D01*
X59353759Y-58735467D01*
X59302954Y-58844252D01*
X59193694Y-59063722D01*
X58510255Y-59126793D01*
X58391553Y-59138112D01*
X58207575Y-59157189D01*
X58047967Y-59175633D01*
X57921216Y-59192371D01*
X57835810Y-59206332D01*
X57800234Y-59216445D01*
X57796340Y-59222536D01*
X57774694Y-59274345D01*
X57739700Y-59370780D01*
X57693804Y-59504135D01*
X57639452Y-59666706D01*
X57579091Y-59850788D01*
X57515168Y-60048675D01*
X57450128Y-60252664D01*
X57386419Y-60455047D01*
X57326486Y-60648122D01*
X57272776Y-60824182D01*
X57227736Y-60975523D01*
X57193812Y-61094440D01*
X57173451Y-61173227D01*
X57169098Y-61204180D01*
X57173256Y-61205641D01*
X57222073Y-61206876D01*
X57317619Y-61202705D01*
X57451011Y-61193706D01*
X57613368Y-61180454D01*
X57795808Y-61163526D01*
X57799495Y-61163165D01*
X58000747Y-61144845D01*
X58171477Y-61132020D01*
X58304786Y-61125051D01*
X58393777Y-61124301D01*
X58431554Y-61130133D01*
X58434038Y-61132874D01*
X58443308Y-61185888D01*
X58426341Y-61280522D01*
X58411018Y-61347663D01*
X58410222Y-61407660D01*
X58433597Y-61449420D01*
X58456241Y-61468519D01*
X58526741Y-61507047D01*
X58617389Y-61542954D01*
X58710035Y-61570401D01*
X58786534Y-61583550D01*
X58828736Y-61576561D01*
X58830313Y-61574331D01*
X58849269Y-61531332D01*
X58884480Y-61440313D01*
X58933704Y-61307463D01*
X58994696Y-61138969D01*
X59065212Y-60941017D01*
X59143010Y-60719797D01*
X59223780Y-60487431D01*
X59488683Y-60487431D01*
X59496276Y-60568817D01*
X59534291Y-60658284D01*
X59606071Y-60774418D01*
X59641588Y-60833226D01*
X59669768Y-60913156D01*
X59667340Y-60996450D01*
X59662037Y-61028849D01*
X59659557Y-61064560D01*
X59671018Y-61082317D01*
X59704417Y-61081162D01*
X59767751Y-61060135D01*
X59869016Y-61018279D01*
X60016208Y-60954635D01*
X60272676Y-60843547D01*
X60400441Y-60538888D01*
X60461523Y-60390019D01*
X60533894Y-60208651D01*
X60608323Y-60018141D01*
X60675754Y-59841431D01*
X60702486Y-59769783D01*
X60771495Y-59581920D01*
X60848444Y-59369354D01*
X60925734Y-59153151D01*
X60995767Y-58954373D01*
X61050751Y-58795005D01*
X61095993Y-58657856D01*
X61123664Y-58563586D01*
X61135375Y-58505833D01*
X61132740Y-58478232D01*
X61117369Y-58474422D01*
X61114566Y-58475198D01*
X61048689Y-58490757D01*
X60964086Y-58507951D01*
X60814626Y-58539456D01*
X60710212Y-58571025D01*
X60644707Y-58605827D01*
X60608287Y-58647723D01*
X60592455Y-58682105D01*
X60557256Y-58766306D01*
X60508849Y-58886581D01*
X60451400Y-59032550D01*
X60389075Y-59193836D01*
X60337931Y-59324217D01*
X60277007Y-59471510D01*
X60222869Y-59593911D01*
X60179979Y-59681405D01*
X60152803Y-59723978D01*
X60115036Y-59747505D01*
X60030311Y-59780047D01*
X59927528Y-59806052D01*
X59810503Y-59834879D01*
X59715324Y-59881681D01*
X59654968Y-59951966D01*
X59616687Y-60055985D01*
X59601974Y-60109464D01*
X59566682Y-60223642D01*
X59527583Y-60338273D01*
X59508166Y-60395538D01*
X59488683Y-60487431D01*
X59223780Y-60487431D01*
X59225844Y-60481494D01*
X59305628Y-60251445D01*
X59389257Y-60011898D01*
X59396544Y-59991025D01*
X59485401Y-59738178D01*
X59555801Y-59539241D01*
X59823093Y-59539241D01*
X59839312Y-59562751D01*
X59892415Y-59575819D01*
X59940886Y-59568176D01*
X59990858Y-59539241D01*
X60004753Y-59512946D01*
X60037503Y-59438082D01*
X60083495Y-59325830D01*
X60138747Y-59185953D01*
X60199280Y-59028212D01*
X60245467Y-58903787D01*
X60298416Y-58754428D01*
X60340374Y-58628176D01*
X60367897Y-58535496D01*
X60377539Y-58486852D01*
X60368459Y-58435660D01*
X60328067Y-58332432D01*
X60262161Y-58209987D01*
X60178202Y-58083423D01*
X60158378Y-58056314D01*
X60149133Y-58043604D01*
X60455075Y-58043604D01*
X60471346Y-58091419D01*
X60512951Y-58176018D01*
X60588498Y-58325104D01*
X60725083Y-58307969D01*
X60752206Y-58304175D01*
X60872326Y-58281282D01*
X60980782Y-58252969D01*
X61099898Y-58215105D01*
X61066607Y-58083423D01*
X61033315Y-57951741D01*
X60793479Y-57958232D01*
X60764676Y-57959219D01*
X60647221Y-57967428D01*
X60551346Y-57980408D01*
X60495523Y-57995828D01*
X60492644Y-57997372D01*
X60462666Y-58017335D01*
X60455075Y-58043604D01*
X60149133Y-58043604D01*
X60116206Y-57998338D01*
X60096068Y-57970173D01*
X60067127Y-57963113D01*
X60013640Y-57978796D01*
X59962629Y-58008137D01*
X59939893Y-58039659D01*
X59951045Y-58081562D01*
X59983534Y-58159651D01*
X60029885Y-58254248D01*
X60060052Y-58314926D01*
X60122776Y-58485945D01*
X60137210Y-58629904D01*
X60103908Y-58750525D01*
X60076796Y-58810787D01*
X60037397Y-58909437D01*
X59991328Y-59031578D01*
X59943224Y-59164199D01*
X59897715Y-59294287D01*
X59859435Y-59408831D01*
X59833017Y-59494820D01*
X59823093Y-59539241D01*
X59555801Y-59539241D01*
X59568816Y-59502462D01*
X59643405Y-59293434D01*
X59705783Y-59120654D01*
X59752568Y-58993678D01*
X59782681Y-58913052D01*
X59833179Y-58775930D01*
X59873497Y-58663925D01*
X59900108Y-58586906D01*
X59909484Y-58554738D01*
X59907475Y-58541257D01*
X59899761Y-58516393D01*
X59884721Y-58481757D01*
X59860593Y-58434547D01*
X59825618Y-58371959D01*
X59778035Y-58291190D01*
X59716083Y-58189436D01*
X59638001Y-58063894D01*
X59542030Y-57911760D01*
X59426408Y-57730232D01*
X59289375Y-57516505D01*
X59236485Y-57434389D01*
X59560868Y-57434389D01*
X59574045Y-57482330D01*
X59608455Y-57554322D01*
X59654625Y-57633563D01*
X59703082Y-57703254D01*
X59744352Y-57746596D01*
X59748437Y-57749423D01*
X59792344Y-57767691D01*
X59852897Y-57765987D01*
X59949191Y-57744078D01*
X60066331Y-57716499D01*
X60067127Y-57716414D01*
X60164358Y-57706019D01*
X60231516Y-57719671D01*
X60280155Y-57757973D01*
X60301298Y-57780237D01*
X60335535Y-57797472D01*
X60387931Y-57794662D01*
X60477391Y-57773275D01*
X60533163Y-57759836D01*
X60667445Y-57733477D01*
X60795826Y-57714530D01*
X60866275Y-57703729D01*
X60936053Y-57684002D01*
X60961117Y-57662650D01*
X60955003Y-57632449D01*
X60935500Y-57558971D01*
X60907442Y-57461749D01*
X60875698Y-57356801D01*
X60845140Y-57260148D01*
X60820635Y-57187810D01*
X60807053Y-57155806D01*
X60782497Y-57150893D01*
X60708044Y-57155921D01*
X60595306Y-57171967D01*
X60454686Y-57196772D01*
X60296588Y-57228076D01*
X60131413Y-57263620D01*
X59969565Y-57301144D01*
X59821447Y-57338390D01*
X59697462Y-57373099D01*
X59608012Y-57403011D01*
X59563500Y-57425868D01*
X59560868Y-57434389D01*
X59236485Y-57434389D01*
X59129170Y-57267776D01*
X59016304Y-57093095D01*
X59312113Y-57093095D01*
X59345702Y-57141962D01*
X59398533Y-57205921D01*
X59719256Y-57118616D01*
X59869098Y-57079191D01*
X60250820Y-56991002D01*
X60605618Y-56926675D01*
X60665096Y-56916793D01*
X60713626Y-56899466D01*
X60722018Y-56867216D01*
X60701034Y-56806488D01*
X60675792Y-56743954D01*
X60369216Y-56798948D01*
X60273013Y-56817229D01*
X60116890Y-56849870D01*
X59948956Y-56887659D01*
X59780729Y-56927752D01*
X59623727Y-56967306D01*
X59489469Y-57003475D01*
X59389473Y-57033415D01*
X59335257Y-57054281D01*
X59318644Y-57065507D01*
X59312113Y-57093095D01*
X59016304Y-57093095D01*
X58944033Y-56981242D01*
X58732203Y-56654100D01*
X58491920Y-56283545D01*
X58259702Y-55925753D01*
X58599252Y-55925753D01*
X58613971Y-55972038D01*
X58653224Y-56052247D01*
X58711416Y-56157415D01*
X58782952Y-56278575D01*
X58862236Y-56406761D01*
X58943674Y-56533008D01*
X59021671Y-56648350D01*
X59090631Y-56743821D01*
X59144960Y-56810454D01*
X59179063Y-56839285D01*
X59217076Y-56836759D01*
X59302747Y-56820653D01*
X59425660Y-56792937D01*
X59576042Y-56755820D01*
X59744118Y-56711513D01*
X59904395Y-56667063D01*
X60053092Y-56623964D01*
X60173496Y-56587085D01*
X60256173Y-56559321D01*
X60291687Y-56543564D01*
X60293276Y-56535934D01*
X60274777Y-56486152D01*
X60226577Y-56398031D01*
X60152302Y-56277891D01*
X60055578Y-56132050D01*
X60034223Y-56100754D01*
X59931129Y-55952515D01*
X59849582Y-55845966D01*
X59780486Y-55775053D01*
X59714746Y-55733717D01*
X59643266Y-55715903D01*
X59556951Y-55715554D01*
X59446705Y-55726614D01*
X59375942Y-55737428D01*
X59248583Y-55762133D01*
X59099405Y-55795044D01*
X58947978Y-55832026D01*
X58820129Y-55864777D01*
X58710671Y-55892418D01*
X58634839Y-55911114D01*
X58604142Y-55917985D01*
X58599252Y-55925753D01*
X58259702Y-55925753D01*
X58221423Y-55866775D01*
X58183387Y-55808234D01*
X58066856Y-55629590D01*
X58364807Y-55629590D01*
X58395644Y-55673835D01*
X58398291Y-55676410D01*
X58423862Y-55692702D01*
X58461775Y-55697131D01*
X58522885Y-55688219D01*
X58618046Y-55664487D01*
X58758113Y-55624456D01*
X58798837Y-55612981D01*
X58964963Y-55573302D01*
X59146749Y-55538922D01*
X59332101Y-55511245D01*
X59508928Y-55491674D01*
X59556951Y-55488582D01*
X59665138Y-55481615D01*
X59788638Y-55482470D01*
X59867337Y-55495646D01*
X59877954Y-55501325D01*
X59932709Y-55552472D01*
X60013993Y-55650384D01*
X60119492Y-55792138D01*
X60246892Y-55974814D01*
X60251435Y-55981487D01*
X60347096Y-56120519D01*
X60430252Y-56238679D01*
X60495876Y-56329039D01*
X60538937Y-56384666D01*
X60554409Y-56398631D01*
X60554022Y-56396701D01*
X60533525Y-56358308D01*
X60485472Y-56280803D01*
X60414899Y-56171972D01*
X60326840Y-56039599D01*
X60226332Y-55891467D01*
X60134304Y-55758008D01*
X60028284Y-55609691D01*
X59942190Y-55500391D01*
X59869083Y-55424227D01*
X59802023Y-55375318D01*
X59734071Y-55347783D01*
X59658288Y-55335741D01*
X59567733Y-55333311D01*
X59511582Y-55334569D01*
X59282600Y-55355136D01*
X59010093Y-55400006D01*
X58701109Y-55468083D01*
X58667818Y-55476316D01*
X58518468Y-55517573D01*
X58421397Y-55554706D01*
X58371784Y-55590962D01*
X58364807Y-55629590D01*
X58066856Y-55629590D01*
X58028061Y-55570116D01*
X57882652Y-55348678D01*
X57750273Y-55148565D01*
X57634036Y-54974421D01*
X57616243Y-54948087D01*
X57958641Y-54948087D01*
X57960425Y-54988433D01*
X57992428Y-55055757D01*
X57999102Y-55067790D01*
X58058165Y-55160253D01*
X58124802Y-55248927D01*
X58135821Y-55262499D01*
X58160338Y-55293425D01*
X58183080Y-55314627D01*
X58212419Y-55325505D01*
X58256731Y-55325458D01*
X58324390Y-55313887D01*
X58423770Y-55290189D01*
X58563245Y-55253766D01*
X58751191Y-55204017D01*
X58906574Y-55168120D01*
X59087934Y-55138565D01*
X59238947Y-55127893D01*
X59341857Y-55125618D01*
X59432114Y-55119215D01*
X59483928Y-55110131D01*
X59506964Y-55098680D01*
X59529043Y-55073552D01*
X59514440Y-55032582D01*
X59473823Y-54956408D01*
X59416253Y-54862612D01*
X59350782Y-54766772D01*
X59291035Y-54661814D01*
X59266851Y-54538249D01*
X59266818Y-54526464D01*
X59264096Y-54491874D01*
X59530215Y-54491874D01*
X59530968Y-54505265D01*
X59552628Y-54587031D01*
X59567733Y-54621327D01*
X59598337Y-54690814D01*
X59660187Y-54804002D01*
X59730267Y-54913988D01*
X59800670Y-55008161D01*
X59863484Y-55073911D01*
X59910802Y-55098630D01*
X59944526Y-55097181D01*
X59969155Y-55090806D01*
X59963484Y-55077931D01*
X59933472Y-55023842D01*
X59883747Y-54938603D01*
X59821234Y-54833653D01*
X59752858Y-54720432D01*
X59685546Y-54610380D01*
X59626220Y-54514938D01*
X59581808Y-54445544D01*
X59559233Y-54413639D01*
X59554522Y-54409723D01*
X59536339Y-54422578D01*
X59530215Y-54491874D01*
X59264096Y-54491874D01*
X59261527Y-54459234D01*
X59238742Y-54431634D01*
X59186379Y-54426952D01*
X59113212Y-54430469D01*
X58992354Y-54440771D01*
X58848145Y-54456190D01*
X58692237Y-54475150D01*
X58536284Y-54496073D01*
X58391941Y-54517383D01*
X58270861Y-54537503D01*
X58184699Y-54554854D01*
X58145107Y-54567861D01*
X58131715Y-54583253D01*
X58097167Y-54648446D01*
X58066260Y-54735782D01*
X58054310Y-54774070D01*
X58019088Y-54859250D01*
X57984399Y-54913768D01*
X57958641Y-54948087D01*
X57616243Y-54948087D01*
X57537056Y-54830891D01*
X57462444Y-54722618D01*
X57413314Y-54654249D01*
X57392778Y-54630427D01*
X57354899Y-54648754D01*
X57295382Y-54694168D01*
X57231593Y-54751276D01*
X57180716Y-54804684D01*
X57159939Y-54838998D01*
X57172734Y-54865991D01*
X57213513Y-54934588D01*
X57277217Y-55035878D01*
X57358637Y-55161594D01*
X57452565Y-55303469D01*
X57536121Y-55430752D01*
X57619654Y-55563436D01*
X57685871Y-55674695D01*
X57729480Y-55755600D01*
X57745192Y-55797226D01*
X57743388Y-55806088D01*
X57721924Y-55833714D01*
X57672309Y-55871950D01*
X57589630Y-55923760D01*
X57468976Y-55992109D01*
X57305436Y-56079964D01*
X57094098Y-56190287D01*
X56956300Y-56261892D01*
X56784765Y-56351950D01*
X56633982Y-56432154D01*
X56511785Y-56498294D01*
X56426005Y-56546162D01*
X56384478Y-56571549D01*
X56348510Y-56603903D01*
X56343497Y-56639150D01*
X55821224Y-56639150D01*
X55828506Y-56615433D01*
X55887013Y-56438861D01*
X55927423Y-56329724D01*
X56194270Y-56329724D01*
X56194367Y-56332924D01*
X56203182Y-56350136D01*
X56230882Y-56351586D01*
X56283940Y-56334773D01*
X56368827Y-56297196D01*
X56492016Y-56236354D01*
X56659979Y-56149745D01*
X56731000Y-56112482D01*
X56864599Y-56040954D01*
X56976182Y-55979335D01*
X57055724Y-55933214D01*
X57093199Y-55908182D01*
X57103539Y-55885908D01*
X57092998Y-55841715D01*
X57053640Y-55769988D01*
X56981410Y-55661790D01*
X56951168Y-55619069D01*
X56886020Y-55532375D01*
X56835387Y-55472269D01*
X56808278Y-55449782D01*
X56806576Y-55450352D01*
X56778490Y-55479844D01*
X56725607Y-55547307D01*
X56654462Y-55643372D01*
X56571594Y-55758670D01*
X56483539Y-55883833D01*
X56396835Y-56009493D01*
X56318019Y-56126281D01*
X56253628Y-56224827D01*
X56210199Y-56295765D01*
X56194270Y-56329724D01*
X55927423Y-56329724D01*
X55937370Y-56302860D01*
X55977067Y-56215655D01*
X56013602Y-56154800D01*
X56057777Y-56085922D01*
X56081622Y-56048742D01*
X56169941Y-55915555D01*
X56271203Y-55766310D01*
X56378055Y-55612076D01*
X56498337Y-55437387D01*
X56593681Y-55290932D01*
X56661050Y-55175790D01*
X56683398Y-55129148D01*
X56941531Y-55129148D01*
X56946588Y-55156545D01*
X56965995Y-55197026D01*
X57004225Y-55259529D01*
X57065754Y-55352995D01*
X57155056Y-55486361D01*
X57229632Y-55593471D01*
X57299853Y-55686004D01*
X57354154Y-55748638D01*
X57384724Y-55771672D01*
X57407813Y-55767282D01*
X57418850Y-55745490D01*
X57406187Y-55700053D01*
X57367141Y-55625052D01*
X57299026Y-55514569D01*
X57199155Y-55362685D01*
X57176206Y-55328432D01*
X57091347Y-55204494D01*
X57031503Y-55123608D01*
X56991877Y-55080337D01*
X56967670Y-55069242D01*
X56954084Y-55084885D01*
X56946349Y-55105895D01*
X56941531Y-55129148D01*
X56683398Y-55129148D01*
X56704780Y-55084524D01*
X56729207Y-55009696D01*
X56730119Y-55005839D01*
X56761570Y-54904419D01*
X56808278Y-54822242D01*
X56808469Y-54821906D01*
X56882628Y-54742361D01*
X56967670Y-54672875D01*
X56995861Y-54649841D01*
X57081525Y-54565390D01*
X57177329Y-54406874D01*
X57197835Y-54346902D01*
X57454968Y-54346902D01*
X57481013Y-54367063D01*
X57484151Y-54367772D01*
X57519975Y-54396129D01*
X57578414Y-54457603D01*
X57648487Y-54540804D01*
X57685691Y-54586339D01*
X57751269Y-54657811D01*
X57795308Y-54688303D01*
X57824878Y-54683534D01*
X57850309Y-54652931D01*
X57857185Y-54597588D01*
X57829834Y-54517770D01*
X57766188Y-54403616D01*
X57724648Y-54341901D01*
X57642467Y-54256382D01*
X57565370Y-54225343D01*
X57496079Y-54250328D01*
X57491956Y-54253917D01*
X57459595Y-54301597D01*
X57454968Y-54346902D01*
X57197835Y-54346902D01*
X57247431Y-54201858D01*
X57271801Y-54127303D01*
X57315201Y-54074005D01*
X57392778Y-54034692D01*
X57394937Y-54033598D01*
X57410167Y-54027881D01*
X57525021Y-53998583D01*
X57565370Y-53994363D01*
X57639125Y-53986649D01*
X57673974Y-53987054D01*
X57730774Y-53994381D01*
X57775682Y-54019076D01*
X57823526Y-54071552D01*
X57889134Y-54162225D01*
X57895745Y-54171550D01*
X57962297Y-54255663D01*
X58021645Y-54315202D01*
X58061635Y-54337796D01*
X58065549Y-54337697D01*
X58123372Y-54331169D01*
X58217798Y-54316435D01*
X58235616Y-54313255D01*
X59480078Y-54313255D01*
X59483527Y-54333279D01*
X59492560Y-54346279D01*
X59517311Y-54367063D01*
X59521402Y-54366778D01*
X59527846Y-54349839D01*
X59496431Y-54320375D01*
X59480078Y-54313255D01*
X58235616Y-54313255D01*
X58330446Y-54296331D01*
X58443048Y-54278025D01*
X58597101Y-54257358D01*
X58769263Y-54237420D01*
X58939077Y-54220752D01*
X59031164Y-54212872D01*
X59165596Y-54203009D01*
X59186379Y-54202312D01*
X59258740Y-54199886D01*
X59321630Y-54203825D01*
X59365301Y-54215145D01*
X59400788Y-54234168D01*
X59433276Y-54253512D01*
X59443646Y-54250262D01*
X59422898Y-54213375D01*
X59368912Y-54136351D01*
X59346163Y-54105292D01*
X59249808Y-53981983D01*
X59135339Y-53844773D01*
X59013505Y-53705729D01*
X58895057Y-53576914D01*
X58790743Y-53470396D01*
X58711313Y-53398240D01*
X58668627Y-53362186D01*
X58614836Y-53309727D01*
X58593810Y-53278324D01*
X58602751Y-53256957D01*
X58638651Y-53194563D01*
X58695658Y-53103639D01*
X58766902Y-52995412D01*
X58823076Y-52910203D01*
X58933055Y-52737419D01*
X59061102Y-52530747D01*
X59200840Y-52300871D01*
X59345894Y-52058478D01*
X59489888Y-51814252D01*
X59626445Y-51578879D01*
X59749188Y-51363044D01*
X59851742Y-51177432D01*
X59871325Y-51141250D01*
X59974848Y-50950446D01*
X60054957Y-50804310D01*
X60115304Y-50696916D01*
X60159538Y-50622338D01*
X60191312Y-50574649D01*
X60214277Y-50547923D01*
X60232084Y-50536233D01*
X60248384Y-50533653D01*
X60267258Y-50535259D01*
G37*
%TD*%
M02*
