M48
; DRILL file {KiCad 9.0.5} date 2025-11-02T15:15:08-0800
; FORMAT={-:-/ absolute / metric / decimal}
; #@! TF.CreationDate,2025-11-02T15:15:08-08:00
; #@! TF.GenerationSoftware,Kicad,Pcbnew,9.0.5
; #@! TF.FileFunction,Plated,1,2,PTH
FMAT,2
METRIC
; #@! TA.AperFunction,Plated,PTH,ViaDrill
T1C0.300
; #@! TA.AperFunction,Plated,PTH,ComponentDrill
T2C1.000
%
G90
G05
T1
X61.75Y-58.0
X68.0Y-99.0
X68.0Y-117.0
X68.0Y-136.0
X72.0Y-89.0
X73.0Y-129.0
X74.0Y-111.0
X76.0Y-85.0
X78.0Y-76.0
X80.0Y-59.0
X80.0Y-66.0
X81.0Y-72.0
X82.0Y-80.0
X86.0Y-86.0
X86.0Y-88.0
X86.0Y-102.0
X86.0Y-107.0
X86.0Y-126.0
X87.0Y-86.0
X87.0Y-88.0
X87.0Y-124.0
X87.0Y-125.0
X87.645Y-85.0
X88.245Y-78.65
X88.245Y-97.65
X88.245Y-116.65
X88.245Y-135.65
X88.245Y-154.65
X91.0Y-128.0
X93.0Y-110.0
X106.0Y-85.0
X106.0Y-89.0
X106.0Y-102.0
X106.0Y-104.0
X106.0Y-124.0
X106.0Y-126.0
X106.0Y-140.0
X106.0Y-142.0
X107.245Y-78.65
X107.245Y-107.15
X107.245Y-145.15
X126.245Y-78.65
X126.245Y-97.65
X126.245Y-116.65
X126.245Y-135.65
X126.245Y-154.65
T2
X46.38Y-50.46
X46.38Y-65.7
X48.92Y-50.46
X48.92Y-65.7
X51.46Y-50.46
X51.46Y-65.7
X54.0Y-50.46
X54.0Y-53.0
X54.0Y-65.7
X56.54Y-50.46
X56.54Y-65.7
X59.08Y-50.46
X59.08Y-65.7
X61.62Y-50.46
X61.62Y-65.7
X64.16Y-50.46
X64.16Y-65.7
X66.7Y-50.46
X66.7Y-65.7
X69.24Y-50.46
X69.24Y-65.7
X71.78Y-50.46
X71.78Y-65.7
X74.32Y-50.46
X74.32Y-65.7
X76.86Y-50.46
X76.86Y-53.0
X76.86Y-55.54
X76.86Y-58.08
X76.86Y-60.62
X76.86Y-63.16
X76.86Y-65.7
M30
