M48
; DRILL file {KiCad 9.0.5} date 2025-11-02T15:15:08-0800
; FORMAT={-:-/ absolute / metric / decimal}
; #@! TF.CreationDate,2025-11-02T15:15:08-08:00
; #@! TF.GenerationSoftware,Kicad,Pcbnew,9.0.5
; #@! TF.FileFunction,NonPlated,1,2,NPTH
FMAT,2
METRIC
; #@! TA.AperFunction,NonPlated,NPTH,ComponentDrill
T1C1.750
; #@! TA.AperFunction,NonPlated,NPTH,ComponentDrill
T2C2.200
; #@! TA.AperFunction,NonPlated,NPTH,ComponentDrill
T3C3.048
; #@! TA.AperFunction,NonPlated,NPTH,ComponentDrill
T4C3.050
; #@! TA.AperFunction,NonPlated,NPTH,ComponentDrill
T5C3.988
; #@! TA.AperFunction,NonPlated,NPTH,ComponentDrill
T6C4.000
%
G90
G05
T1
X54.265Y-81.25
X54.265Y-100.3
X54.265Y-119.35
X54.265Y-138.4
X63.79Y-157.45
X64.425Y-81.25
X64.425Y-100.3
X64.425Y-119.35
X64.425Y-138.4
X73.315Y-81.25
X73.315Y-100.3
X73.315Y-119.35
X73.315Y-138.4
X73.95Y-157.45
X83.475Y-81.25
X83.475Y-100.3
X83.475Y-119.35
X83.475Y-138.4
X92.365Y-81.25
X92.365Y-100.3
X92.365Y-119.35
X92.365Y-138.4
X92.365Y-157.45
X102.525Y-81.25
X102.525Y-100.3
X102.525Y-119.35
X102.525Y-138.4
X102.525Y-157.45
X111.415Y-81.25
X111.415Y-109.825
X111.415Y-147.925
X121.575Y-81.25
X121.575Y-109.825
X121.575Y-147.925
X130.465Y-81.25
X130.465Y-100.3
X130.465Y-119.35
X130.465Y-138.4
X130.465Y-157.45
X140.625Y-81.25
X140.625Y-100.3
X140.625Y-119.35
X140.625Y-138.4
X140.625Y-157.45
T2
X50.0Y-46.0
X50.0Y-167.0
X145.0Y-46.0
X145.0Y-167.0
T3
X56.932Y-150.465
X80.808Y-150.465
T4
X55.535Y-78.71
X55.535Y-97.76
X55.535Y-116.81
X55.535Y-135.86
X61.885Y-76.17
X61.885Y-95.22
X61.885Y-114.27
X61.885Y-133.32
X65.06Y-154.91
X71.41Y-152.37
X74.585Y-78.71
X74.585Y-97.76
X74.585Y-116.81
X74.585Y-135.86
X80.935Y-76.17
X80.935Y-95.22
X80.935Y-114.27
X80.935Y-133.32
X93.635Y-78.71
X93.635Y-97.76
X93.635Y-116.81
X93.635Y-135.86
X93.635Y-154.91
X99.985Y-76.17
X99.985Y-95.22
X99.985Y-114.27
X99.985Y-133.32
X99.985Y-152.37
X112.685Y-78.71
X112.685Y-107.285
X112.685Y-145.385
X119.035Y-76.17
X119.035Y-104.745
X119.035Y-142.845
X131.735Y-78.71
X131.735Y-97.76
X131.735Y-116.81
X131.735Y-135.86
X131.735Y-154.91
X138.085Y-76.17
X138.085Y-95.22
X138.085Y-114.27
X138.085Y-133.32
X138.085Y-152.37
T5
X56.932Y-165.675
X80.808Y-165.675
T6
X59.345Y-81.25
X59.345Y-100.3
X59.345Y-119.35
X59.345Y-138.4
X68.87Y-157.45
X78.395Y-81.25
X78.395Y-100.3
X78.395Y-119.35
X78.395Y-138.4
X97.445Y-81.25
X97.445Y-100.3
X97.445Y-119.35
X97.445Y-138.4
X97.445Y-157.45
X116.495Y-81.25
X116.495Y-109.825
X116.495Y-147.925
X135.545Y-81.25
X135.545Y-100.3
X135.545Y-119.35
X135.545Y-138.4
X135.545Y-157.45
M30
