%TF.GenerationSoftware,KiCad,Pcbnew,9.0.5*%
%TF.CreationDate,2025-11-02T15:14:47-08:00*%
%TF.ProjectId,MacroPad,4d616372-6f50-4616-942e-6b696361645f,rev?*%
%TF.SameCoordinates,Original*%
%TF.FileFunction,Soldermask,Top*%
%TF.FilePolarity,Negative*%
%FSLAX46Y46*%
G04 Gerber Fmt 4.6, Leading zero omitted, Abs format (unit mm)*
G04 Created by KiCad (PCBNEW 9.0.5) date 2025-11-02 15:14:47*
%MOMM*%
%LPD*%
G01*
G04 APERTURE LIST*
G04 Aperture macros list*
%AMRoundRect*
0 Rectangle with rounded corners*
0 $1 Rounding radius*
0 $2 $3 $4 $5 $6 $7 $8 $9 X,Y pos of 4 corners*
0 Add a 4 corners polygon primitive as box body*
4,1,4,$2,$3,$4,$5,$6,$7,$8,$9,$2,$3,0*
0 Add four circle primitives for the rounded corners*
1,1,$1+$1,$2,$3*
1,1,$1+$1,$4,$5*
1,1,$1+$1,$6,$7*
1,1,$1+$1,$8,$9*
0 Add four rect primitives between the rounded corners*
20,1,$1+$1,$2,$3,$4,$5,0*
20,1,$1+$1,$4,$5,$6,$7,0*
20,1,$1+$1,$6,$7,$8,$9,0*
20,1,$1+$1,$8,$9,$2,$3,0*%
G04 Aperture macros list end*
%ADD10C,2.200000*%
%ADD11C,1.750000*%
%ADD12C,3.050000*%
%ADD13C,4.000000*%
%ADD14C,3.048000*%
%ADD15C,3.987800*%
%ADD16RoundRect,0.425000X-0.601041X0.000000X0.000000X-0.601041X0.601041X0.000000X0.000000X0.601041X0*%
%ADD17C,1.700000*%
%ADD18RoundRect,0.425000X-0.425000X0.425000X-0.425000X-0.425000X0.425000X-0.425000X0.425000X0.425000X0*%
%ADD19RoundRect,0.425000X0.425000X-0.425000X0.425000X0.425000X-0.425000X0.425000X-0.425000X-0.425000X0*%
%ADD20O,1.700000X1.700000*%
G04 APERTURE END LIST*
D10*
%TO.C,REF\u002A\u002A*%
X50000000Y-46000000D03*
%TD*%
%TO.C,REF\u002A\u002A*%
X50000000Y-167000000D03*
%TD*%
%TO.C,REF\u002A\u002A*%
X145000000Y-167000000D03*
%TD*%
%TO.C,REF\u002A\u002A*%
X145000000Y-46000000D03*
%TD*%
D11*
%TO.C,SW16*%
X73315000Y-138400000D03*
D12*
X74585000Y-135860000D03*
D13*
X78395000Y-138400000D03*
D12*
X80935000Y-133320000D03*
D11*
X83475000Y-138400000D03*
%TD*%
D14*
%TO.C,ST19*%
X56932000Y-150465000D03*
D15*
X56932000Y-165675000D03*
D14*
X80808000Y-150465000D03*
D15*
X80808000Y-165675000D03*
%TD*%
D11*
%TO.C,SW6*%
X54265000Y-100300000D03*
D12*
X55535000Y-97760000D03*
D13*
X59345000Y-100300000D03*
D12*
X61885000Y-95220000D03*
D11*
X64425000Y-100300000D03*
%TD*%
%TO.C,SW15*%
X54265000Y-138400000D03*
D12*
X55535000Y-135860000D03*
D13*
X59345000Y-138400000D03*
D12*
X61885000Y-133320000D03*
D11*
X64425000Y-138400000D03*
%TD*%
%TO.C,SW1*%
X54265000Y-81250000D03*
D12*
X55535000Y-78710000D03*
D13*
X59345000Y-81250000D03*
D12*
X61885000Y-76170000D03*
D11*
X64425000Y-81250000D03*
%TD*%
%TO.C,SW12*%
X92365000Y-119350000D03*
D12*
X93635000Y-116810000D03*
D13*
X97445000Y-119350000D03*
D12*
X99985000Y-114270000D03*
D11*
X102525000Y-119350000D03*
%TD*%
%TO.C,SW21*%
X111415000Y-147925000D03*
D12*
X112685000Y-145385000D03*
D13*
X116495000Y-147925000D03*
D12*
X119035000Y-142845000D03*
D11*
X121575000Y-147925000D03*
%TD*%
%TO.C,SW18*%
X130465000Y-138400000D03*
D12*
X131735000Y-135860000D03*
D13*
X135545000Y-138400000D03*
D12*
X138085000Y-133320000D03*
D11*
X140625000Y-138400000D03*
%TD*%
%TO.C,SW2*%
X73315000Y-81250000D03*
D12*
X74585000Y-78710000D03*
D13*
X78395000Y-81250000D03*
D12*
X80935000Y-76170000D03*
D11*
X83475000Y-81250000D03*
%TD*%
%TO.C,SW19*%
X63790000Y-157450000D03*
D12*
X65060000Y-154910000D03*
D13*
X68870000Y-157450000D03*
D12*
X71410000Y-152370000D03*
D11*
X73950000Y-157450000D03*
%TD*%
%TO.C,SW17*%
X92365000Y-138400000D03*
D12*
X93635000Y-135860000D03*
D13*
X97445000Y-138400000D03*
D12*
X99985000Y-133320000D03*
D11*
X102525000Y-138400000D03*
%TD*%
%TO.C,SW5*%
X130465000Y-81250000D03*
D12*
X131735000Y-78710000D03*
D13*
X135545000Y-81250000D03*
D12*
X138085000Y-76170000D03*
D11*
X140625000Y-81250000D03*
%TD*%
%TO.C,SW11*%
X73315000Y-119350000D03*
D12*
X74585000Y-116810000D03*
D13*
X78395000Y-119350000D03*
D12*
X80935000Y-114270000D03*
D11*
X83475000Y-119350000D03*
%TD*%
%TO.C,SW7*%
X73315000Y-100300000D03*
D12*
X74585000Y-97760000D03*
D13*
X78395000Y-100300000D03*
D12*
X80935000Y-95220000D03*
D11*
X83475000Y-100300000D03*
%TD*%
%TO.C,SW4*%
X111415000Y-81250000D03*
D12*
X112685000Y-78710000D03*
D13*
X116495000Y-81250000D03*
D12*
X119035000Y-76170000D03*
D11*
X121575000Y-81250000D03*
%TD*%
%TO.C,SW10*%
X54265000Y-119350000D03*
D12*
X55535000Y-116810000D03*
D13*
X59345000Y-119350000D03*
D12*
X61885000Y-114270000D03*
D11*
X64425000Y-119350000D03*
%TD*%
%TO.C,SW14*%
X130465000Y-119350000D03*
D12*
X131735000Y-116810000D03*
D13*
X135545000Y-119350000D03*
D12*
X138085000Y-114270000D03*
D11*
X140625000Y-119350000D03*
%TD*%
%TO.C,SW13*%
X111415000Y-109825000D03*
D12*
X112685000Y-107285000D03*
D13*
X116495000Y-109825000D03*
D12*
X119035000Y-104745000D03*
D11*
X121575000Y-109825000D03*
%TD*%
%TO.C,SW3*%
X92365000Y-81250000D03*
D12*
X93635000Y-78710000D03*
D13*
X97445000Y-81250000D03*
D12*
X99985000Y-76170000D03*
D11*
X102525000Y-81250000D03*
%TD*%
%TO.C,SW20*%
X92365000Y-157450000D03*
D12*
X93635000Y-154910000D03*
D13*
X97445000Y-157450000D03*
D12*
X99985000Y-152370000D03*
D11*
X102525000Y-157450000D03*
%TD*%
%TO.C,SW8*%
X92365000Y-100300000D03*
D12*
X93635000Y-97760000D03*
D13*
X97445000Y-100300000D03*
D12*
X99985000Y-95220000D03*
D11*
X102525000Y-100300000D03*
%TD*%
%TO.C,SW22*%
X130465000Y-157450000D03*
D12*
X131735000Y-154910000D03*
D13*
X135545000Y-157450000D03*
D12*
X138085000Y-152370000D03*
D11*
X140625000Y-157450000D03*
%TD*%
%TO.C,SW9*%
X130465000Y-100300000D03*
D12*
X131735000Y-97760000D03*
D13*
X135545000Y-100300000D03*
D12*
X138085000Y-95220000D03*
D11*
X140625000Y-100300000D03*
%TD*%
D16*
%TO.C,REF\u002A\u002A*%
X56540000Y-50460000D03*
D17*
X76860000Y-50460000D03*
X74320000Y-50460000D03*
X71780000Y-50460000D03*
X69240000Y-50460000D03*
X66700000Y-50460000D03*
X64160000Y-50460000D03*
X61620000Y-50460000D03*
X59080000Y-50460000D03*
X46380000Y-65700000D03*
X46380000Y-50460000D03*
D18*
X51460000Y-50460000D03*
D19*
X56540000Y-65700000D03*
X54000000Y-65700000D03*
D17*
X48920000Y-65700000D03*
X51460000Y-65700000D03*
X59080000Y-65700000D03*
X61620000Y-65700000D03*
X64160000Y-65700000D03*
X66700000Y-65700000D03*
X69240000Y-65700000D03*
X71780000Y-65700000D03*
X74320000Y-65700000D03*
X76860000Y-65700000D03*
X76860000Y-63160000D03*
D20*
X76860000Y-60620000D03*
X76860000Y-58080000D03*
X76860000Y-55540000D03*
X76860000Y-53000000D03*
D17*
X54000000Y-53000000D03*
D16*
X48920000Y-50460000D03*
D17*
X54000000Y-50460000D03*
%TD*%
M02*
