%TF.GenerationSoftware,KiCad,Pcbnew,9.0.6*%
%TF.CreationDate,2025-11-16T09:10:10-08:00*%
%TF.ProjectId,MacroPad,4d616372-6f50-4616-942e-6b696361645f,rev?*%
%TF.SameCoordinates,Original*%
%TF.FileFunction,Legend,Top*%
%TF.FilePolarity,Positive*%
%FSLAX46Y46*%
G04 Gerber Fmt 4.6, Leading zero omitted, Abs format (unit mm)*
G04 Created by KiCad (PCBNEW 9.0.6) date 2025-11-16 09:10:10*
%MOMM*%
%LPD*%
G01*
G04 APERTURE LIST*
G04 Aperture macros list*
%AMRoundRect*
0 Rectangle with rounded corners*
0 $1 Rounding radius*
0 $2 $3 $4 $5 $6 $7 $8 $9 X,Y pos of 4 corners*
0 Add a 4 corners polygon primitive as box body*
4,1,4,$2,$3,$4,$5,$6,$7,$8,$9,$2,$3,0*
0 Add four circle primitives for the rounded corners*
1,1,$1+$1,$2,$3*
1,1,$1+$1,$4,$5*
1,1,$1+$1,$6,$7*
1,1,$1+$1,$8,$9*
0 Add four rect primitives between the rounded corners*
20,1,$1+$1,$2,$3,$4,$5,0*
20,1,$1+$1,$4,$5,$6,$7,0*
20,1,$1+$1,$6,$7,$8,$9,0*
20,1,$1+$1,$8,$9,$2,$3,0*%
%AMFreePoly0*
4,1,37,0.000000,0.796148,0.078414,0.796148,0.232228,0.765552,0.377117,0.705537,0.507515,0.618408,0.618408,0.507515,0.705537,0.377117,0.765552,0.232228,0.796148,0.078414,0.796148,-0.078414,0.765552,-0.232228,0.705537,-0.377117,0.618408,-0.507515,0.507515,-0.618408,0.377117,-0.705537,0.232228,-0.765552,0.078414,-0.796148,0.000000,-0.796148,0.000000,-0.800000,-0.600000,-0.800000,
-0.603843,-0.796157,-0.639018,-0.796157,-0.711114,-0.766294,-0.766294,-0.711114,-0.796157,-0.639018,-0.796157,-0.603843,-0.800000,-0.600000,-0.800000,0.600000,-0.796157,0.603843,-0.796157,0.639018,-0.766294,0.711114,-0.711114,0.766294,-0.639018,0.796157,-0.603843,0.796157,-0.600000,0.800000,0.000000,0.800000,0.000000,0.796148,0.000000,0.796148,$1*%
%AMFreePoly1*
4,1,37,0.603843,0.796157,0.639018,0.796157,0.711114,0.766294,0.766294,0.711114,0.796157,0.639018,0.796157,0.603843,0.800000,0.600000,0.800000,-0.600000,0.796157,-0.603843,0.796157,-0.639018,0.766294,-0.711114,0.711114,-0.766294,0.639018,-0.796157,0.603843,-0.796157,0.600000,-0.800000,0.000000,-0.800000,0.000000,-0.796148,-0.078414,-0.796148,-0.232228,-0.765552,-0.377117,-0.705537,
-0.507515,-0.618408,-0.618408,-0.507515,-0.705537,-0.377117,-0.765552,-0.232228,-0.796148,-0.078414,-0.796148,0.078414,-0.765552,0.232228,-0.705537,0.377117,-0.618408,0.507515,-0.507515,0.618408,-0.377117,0.705537,-0.232228,0.765552,-0.078414,0.796148,0.000000,0.796148,0.000000,0.800000,0.600000,0.800000,0.603843,0.796157,0.603843,0.796157,$1*%
G04 Aperture macros list end*
%ADD10C,0.150000*%
%ADD11C,0.120000*%
%ADD12C,1.750000*%
%ADD13C,3.050000*%
%ADD14C,4.000000*%
%ADD15C,3.048000*%
%ADD16C,3.987800*%
%ADD17C,2.200000*%
%ADD18C,1.600000*%
%ADD19FreePoly0,90.000000*%
%ADD20FreePoly1,90.000000*%
%ADD21RoundRect,0.200000X0.600000X-0.600000X0.600000X0.600000X-0.600000X0.600000X-0.600000X-0.600000X0*%
G04 APERTURE END LIST*
D10*
X76585476Y-130807200D02*
X76728333Y-130854819D01*
X76728333Y-130854819D02*
X76966428Y-130854819D01*
X76966428Y-130854819D02*
X77061666Y-130807200D01*
X77061666Y-130807200D02*
X77109285Y-130759580D01*
X77109285Y-130759580D02*
X77156904Y-130664342D01*
X77156904Y-130664342D02*
X77156904Y-130569104D01*
X77156904Y-130569104D02*
X77109285Y-130473866D01*
X77109285Y-130473866D02*
X77061666Y-130426247D01*
X77061666Y-130426247D02*
X76966428Y-130378628D01*
X76966428Y-130378628D02*
X76775952Y-130331009D01*
X76775952Y-130331009D02*
X76680714Y-130283390D01*
X76680714Y-130283390D02*
X76633095Y-130235771D01*
X76633095Y-130235771D02*
X76585476Y-130140533D01*
X76585476Y-130140533D02*
X76585476Y-130045295D01*
X76585476Y-130045295D02*
X76633095Y-129950057D01*
X76633095Y-129950057D02*
X76680714Y-129902438D01*
X76680714Y-129902438D02*
X76775952Y-129854819D01*
X76775952Y-129854819D02*
X77014047Y-129854819D01*
X77014047Y-129854819D02*
X77156904Y-129902438D01*
X77490238Y-129854819D02*
X77728333Y-130854819D01*
X77728333Y-130854819D02*
X77918809Y-130140533D01*
X77918809Y-130140533D02*
X78109285Y-130854819D01*
X78109285Y-130854819D02*
X78347381Y-129854819D01*
X79252142Y-130854819D02*
X78680714Y-130854819D01*
X78966428Y-130854819D02*
X78966428Y-129854819D01*
X78966428Y-129854819D02*
X78871190Y-129997676D01*
X78871190Y-129997676D02*
X78775952Y-130092914D01*
X78775952Y-130092914D02*
X78680714Y-130140533D01*
X80109285Y-129854819D02*
X79918809Y-129854819D01*
X79918809Y-129854819D02*
X79823571Y-129902438D01*
X79823571Y-129902438D02*
X79775952Y-129950057D01*
X79775952Y-129950057D02*
X79680714Y-130092914D01*
X79680714Y-130092914D02*
X79633095Y-130283390D01*
X79633095Y-130283390D02*
X79633095Y-130664342D01*
X79633095Y-130664342D02*
X79680714Y-130759580D01*
X79680714Y-130759580D02*
X79728333Y-130807200D01*
X79728333Y-130807200D02*
X79823571Y-130854819D01*
X79823571Y-130854819D02*
X80014047Y-130854819D01*
X80014047Y-130854819D02*
X80109285Y-130807200D01*
X80109285Y-130807200D02*
X80156904Y-130759580D01*
X80156904Y-130759580D02*
X80204523Y-130664342D01*
X80204523Y-130664342D02*
X80204523Y-130426247D01*
X80204523Y-130426247D02*
X80156904Y-130331009D01*
X80156904Y-130331009D02*
X80109285Y-130283390D01*
X80109285Y-130283390D02*
X80014047Y-130235771D01*
X80014047Y-130235771D02*
X79823571Y-130235771D01*
X79823571Y-130235771D02*
X79728333Y-130283390D01*
X79728333Y-130283390D02*
X79680714Y-130331009D01*
X79680714Y-130331009D02*
X79633095Y-130426247D01*
X67250952Y-154907200D02*
X67393809Y-154954819D01*
X67393809Y-154954819D02*
X67631904Y-154954819D01*
X67631904Y-154954819D02*
X67727142Y-154907200D01*
X67727142Y-154907200D02*
X67774761Y-154859580D01*
X67774761Y-154859580D02*
X67822380Y-154764342D01*
X67822380Y-154764342D02*
X67822380Y-154669104D01*
X67822380Y-154669104D02*
X67774761Y-154573866D01*
X67774761Y-154573866D02*
X67727142Y-154526247D01*
X67727142Y-154526247D02*
X67631904Y-154478628D01*
X67631904Y-154478628D02*
X67441428Y-154431009D01*
X67441428Y-154431009D02*
X67346190Y-154383390D01*
X67346190Y-154383390D02*
X67298571Y-154335771D01*
X67298571Y-154335771D02*
X67250952Y-154240533D01*
X67250952Y-154240533D02*
X67250952Y-154145295D01*
X67250952Y-154145295D02*
X67298571Y-154050057D01*
X67298571Y-154050057D02*
X67346190Y-154002438D01*
X67346190Y-154002438D02*
X67441428Y-153954819D01*
X67441428Y-153954819D02*
X67679523Y-153954819D01*
X67679523Y-153954819D02*
X67822380Y-154002438D01*
X68108095Y-153954819D02*
X68679523Y-153954819D01*
X68393809Y-154954819D02*
X68393809Y-153954819D01*
X69536666Y-154954819D02*
X68965238Y-154954819D01*
X69250952Y-154954819D02*
X69250952Y-153954819D01*
X69250952Y-153954819D02*
X69155714Y-154097676D01*
X69155714Y-154097676D02*
X69060476Y-154192914D01*
X69060476Y-154192914D02*
X68965238Y-154240533D01*
X70012857Y-154954819D02*
X70203333Y-154954819D01*
X70203333Y-154954819D02*
X70298571Y-154907200D01*
X70298571Y-154907200D02*
X70346190Y-154859580D01*
X70346190Y-154859580D02*
X70441428Y-154716723D01*
X70441428Y-154716723D02*
X70489047Y-154526247D01*
X70489047Y-154526247D02*
X70489047Y-154145295D01*
X70489047Y-154145295D02*
X70441428Y-154050057D01*
X70441428Y-154050057D02*
X70393809Y-154002438D01*
X70393809Y-154002438D02*
X70298571Y-153954819D01*
X70298571Y-153954819D02*
X70108095Y-153954819D01*
X70108095Y-153954819D02*
X70012857Y-154002438D01*
X70012857Y-154002438D02*
X69965238Y-154050057D01*
X69965238Y-154050057D02*
X69917619Y-154145295D01*
X69917619Y-154145295D02*
X69917619Y-154383390D01*
X69917619Y-154383390D02*
X69965238Y-154478628D01*
X69965238Y-154478628D02*
X70012857Y-154526247D01*
X70012857Y-154526247D02*
X70108095Y-154573866D01*
X70108095Y-154573866D02*
X70298571Y-154573866D01*
X70298571Y-154573866D02*
X70393809Y-154526247D01*
X70393809Y-154526247D02*
X70441428Y-154478628D01*
X70441428Y-154478628D02*
X70489047Y-154383390D01*
X58011667Y-92707200D02*
X58154524Y-92754819D01*
X58154524Y-92754819D02*
X58392619Y-92754819D01*
X58392619Y-92754819D02*
X58487857Y-92707200D01*
X58487857Y-92707200D02*
X58535476Y-92659580D01*
X58535476Y-92659580D02*
X58583095Y-92564342D01*
X58583095Y-92564342D02*
X58583095Y-92469104D01*
X58583095Y-92469104D02*
X58535476Y-92373866D01*
X58535476Y-92373866D02*
X58487857Y-92326247D01*
X58487857Y-92326247D02*
X58392619Y-92278628D01*
X58392619Y-92278628D02*
X58202143Y-92231009D01*
X58202143Y-92231009D02*
X58106905Y-92183390D01*
X58106905Y-92183390D02*
X58059286Y-92135771D01*
X58059286Y-92135771D02*
X58011667Y-92040533D01*
X58011667Y-92040533D02*
X58011667Y-91945295D01*
X58011667Y-91945295D02*
X58059286Y-91850057D01*
X58059286Y-91850057D02*
X58106905Y-91802438D01*
X58106905Y-91802438D02*
X58202143Y-91754819D01*
X58202143Y-91754819D02*
X58440238Y-91754819D01*
X58440238Y-91754819D02*
X58583095Y-91802438D01*
X58916429Y-91754819D02*
X59154524Y-92754819D01*
X59154524Y-92754819D02*
X59345000Y-92040533D01*
X59345000Y-92040533D02*
X59535476Y-92754819D01*
X59535476Y-92754819D02*
X59773572Y-91754819D01*
X60583095Y-91754819D02*
X60392619Y-91754819D01*
X60392619Y-91754819D02*
X60297381Y-91802438D01*
X60297381Y-91802438D02*
X60249762Y-91850057D01*
X60249762Y-91850057D02*
X60154524Y-91992914D01*
X60154524Y-91992914D02*
X60106905Y-92183390D01*
X60106905Y-92183390D02*
X60106905Y-92564342D01*
X60106905Y-92564342D02*
X60154524Y-92659580D01*
X60154524Y-92659580D02*
X60202143Y-92707200D01*
X60202143Y-92707200D02*
X60297381Y-92754819D01*
X60297381Y-92754819D02*
X60487857Y-92754819D01*
X60487857Y-92754819D02*
X60583095Y-92707200D01*
X60583095Y-92707200D02*
X60630714Y-92659580D01*
X60630714Y-92659580D02*
X60678333Y-92564342D01*
X60678333Y-92564342D02*
X60678333Y-92326247D01*
X60678333Y-92326247D02*
X60630714Y-92231009D01*
X60630714Y-92231009D02*
X60583095Y-92183390D01*
X60583095Y-92183390D02*
X60487857Y-92135771D01*
X60487857Y-92135771D02*
X60297381Y-92135771D01*
X60297381Y-92135771D02*
X60202143Y-92183390D01*
X60202143Y-92183390D02*
X60154524Y-92231009D01*
X60154524Y-92231009D02*
X60106905Y-92326247D01*
X57535476Y-130807200D02*
X57678333Y-130854819D01*
X57678333Y-130854819D02*
X57916428Y-130854819D01*
X57916428Y-130854819D02*
X58011666Y-130807200D01*
X58011666Y-130807200D02*
X58059285Y-130759580D01*
X58059285Y-130759580D02*
X58106904Y-130664342D01*
X58106904Y-130664342D02*
X58106904Y-130569104D01*
X58106904Y-130569104D02*
X58059285Y-130473866D01*
X58059285Y-130473866D02*
X58011666Y-130426247D01*
X58011666Y-130426247D02*
X57916428Y-130378628D01*
X57916428Y-130378628D02*
X57725952Y-130331009D01*
X57725952Y-130331009D02*
X57630714Y-130283390D01*
X57630714Y-130283390D02*
X57583095Y-130235771D01*
X57583095Y-130235771D02*
X57535476Y-130140533D01*
X57535476Y-130140533D02*
X57535476Y-130045295D01*
X57535476Y-130045295D02*
X57583095Y-129950057D01*
X57583095Y-129950057D02*
X57630714Y-129902438D01*
X57630714Y-129902438D02*
X57725952Y-129854819D01*
X57725952Y-129854819D02*
X57964047Y-129854819D01*
X57964047Y-129854819D02*
X58106904Y-129902438D01*
X58440238Y-129854819D02*
X58678333Y-130854819D01*
X58678333Y-130854819D02*
X58868809Y-130140533D01*
X58868809Y-130140533D02*
X59059285Y-130854819D01*
X59059285Y-130854819D02*
X59297381Y-129854819D01*
X60202142Y-130854819D02*
X59630714Y-130854819D01*
X59916428Y-130854819D02*
X59916428Y-129854819D01*
X59916428Y-129854819D02*
X59821190Y-129997676D01*
X59821190Y-129997676D02*
X59725952Y-130092914D01*
X59725952Y-130092914D02*
X59630714Y-130140533D01*
X61106904Y-129854819D02*
X60630714Y-129854819D01*
X60630714Y-129854819D02*
X60583095Y-130331009D01*
X60583095Y-130331009D02*
X60630714Y-130283390D01*
X60630714Y-130283390D02*
X60725952Y-130235771D01*
X60725952Y-130235771D02*
X60964047Y-130235771D01*
X60964047Y-130235771D02*
X61059285Y-130283390D01*
X61059285Y-130283390D02*
X61106904Y-130331009D01*
X61106904Y-130331009D02*
X61154523Y-130426247D01*
X61154523Y-130426247D02*
X61154523Y-130664342D01*
X61154523Y-130664342D02*
X61106904Y-130759580D01*
X61106904Y-130759580D02*
X61059285Y-130807200D01*
X61059285Y-130807200D02*
X60964047Y-130854819D01*
X60964047Y-130854819D02*
X60725952Y-130854819D01*
X60725952Y-130854819D02*
X60630714Y-130807200D01*
X60630714Y-130807200D02*
X60583095Y-130759580D01*
X58011667Y-73657200D02*
X58154524Y-73704819D01*
X58154524Y-73704819D02*
X58392619Y-73704819D01*
X58392619Y-73704819D02*
X58487857Y-73657200D01*
X58487857Y-73657200D02*
X58535476Y-73609580D01*
X58535476Y-73609580D02*
X58583095Y-73514342D01*
X58583095Y-73514342D02*
X58583095Y-73419104D01*
X58583095Y-73419104D02*
X58535476Y-73323866D01*
X58535476Y-73323866D02*
X58487857Y-73276247D01*
X58487857Y-73276247D02*
X58392619Y-73228628D01*
X58392619Y-73228628D02*
X58202143Y-73181009D01*
X58202143Y-73181009D02*
X58106905Y-73133390D01*
X58106905Y-73133390D02*
X58059286Y-73085771D01*
X58059286Y-73085771D02*
X58011667Y-72990533D01*
X58011667Y-72990533D02*
X58011667Y-72895295D01*
X58011667Y-72895295D02*
X58059286Y-72800057D01*
X58059286Y-72800057D02*
X58106905Y-72752438D01*
X58106905Y-72752438D02*
X58202143Y-72704819D01*
X58202143Y-72704819D02*
X58440238Y-72704819D01*
X58440238Y-72704819D02*
X58583095Y-72752438D01*
X58916429Y-72704819D02*
X59154524Y-73704819D01*
X59154524Y-73704819D02*
X59345000Y-72990533D01*
X59345000Y-72990533D02*
X59535476Y-73704819D01*
X59535476Y-73704819D02*
X59773572Y-72704819D01*
X60678333Y-73704819D02*
X60106905Y-73704819D01*
X60392619Y-73704819D02*
X60392619Y-72704819D01*
X60392619Y-72704819D02*
X60297381Y-72847676D01*
X60297381Y-72847676D02*
X60202143Y-72942914D01*
X60202143Y-72942914D02*
X60106905Y-72990533D01*
X95635476Y-111757200D02*
X95778333Y-111804819D01*
X95778333Y-111804819D02*
X96016428Y-111804819D01*
X96016428Y-111804819D02*
X96111666Y-111757200D01*
X96111666Y-111757200D02*
X96159285Y-111709580D01*
X96159285Y-111709580D02*
X96206904Y-111614342D01*
X96206904Y-111614342D02*
X96206904Y-111519104D01*
X96206904Y-111519104D02*
X96159285Y-111423866D01*
X96159285Y-111423866D02*
X96111666Y-111376247D01*
X96111666Y-111376247D02*
X96016428Y-111328628D01*
X96016428Y-111328628D02*
X95825952Y-111281009D01*
X95825952Y-111281009D02*
X95730714Y-111233390D01*
X95730714Y-111233390D02*
X95683095Y-111185771D01*
X95683095Y-111185771D02*
X95635476Y-111090533D01*
X95635476Y-111090533D02*
X95635476Y-110995295D01*
X95635476Y-110995295D02*
X95683095Y-110900057D01*
X95683095Y-110900057D02*
X95730714Y-110852438D01*
X95730714Y-110852438D02*
X95825952Y-110804819D01*
X95825952Y-110804819D02*
X96064047Y-110804819D01*
X96064047Y-110804819D02*
X96206904Y-110852438D01*
X96540238Y-110804819D02*
X96778333Y-111804819D01*
X96778333Y-111804819D02*
X96968809Y-111090533D01*
X96968809Y-111090533D02*
X97159285Y-111804819D01*
X97159285Y-111804819D02*
X97397381Y-110804819D01*
X98302142Y-111804819D02*
X97730714Y-111804819D01*
X98016428Y-111804819D02*
X98016428Y-110804819D01*
X98016428Y-110804819D02*
X97921190Y-110947676D01*
X97921190Y-110947676D02*
X97825952Y-111042914D01*
X97825952Y-111042914D02*
X97730714Y-111090533D01*
X98683095Y-110900057D02*
X98730714Y-110852438D01*
X98730714Y-110852438D02*
X98825952Y-110804819D01*
X98825952Y-110804819D02*
X99064047Y-110804819D01*
X99064047Y-110804819D02*
X99159285Y-110852438D01*
X99159285Y-110852438D02*
X99206904Y-110900057D01*
X99206904Y-110900057D02*
X99254523Y-110995295D01*
X99254523Y-110995295D02*
X99254523Y-111090533D01*
X99254523Y-111090533D02*
X99206904Y-111233390D01*
X99206904Y-111233390D02*
X98635476Y-111804819D01*
X98635476Y-111804819D02*
X99254523Y-111804819D01*
X114685476Y-140332200D02*
X114828333Y-140379819D01*
X114828333Y-140379819D02*
X115066428Y-140379819D01*
X115066428Y-140379819D02*
X115161666Y-140332200D01*
X115161666Y-140332200D02*
X115209285Y-140284580D01*
X115209285Y-140284580D02*
X115256904Y-140189342D01*
X115256904Y-140189342D02*
X115256904Y-140094104D01*
X115256904Y-140094104D02*
X115209285Y-139998866D01*
X115209285Y-139998866D02*
X115161666Y-139951247D01*
X115161666Y-139951247D02*
X115066428Y-139903628D01*
X115066428Y-139903628D02*
X114875952Y-139856009D01*
X114875952Y-139856009D02*
X114780714Y-139808390D01*
X114780714Y-139808390D02*
X114733095Y-139760771D01*
X114733095Y-139760771D02*
X114685476Y-139665533D01*
X114685476Y-139665533D02*
X114685476Y-139570295D01*
X114685476Y-139570295D02*
X114733095Y-139475057D01*
X114733095Y-139475057D02*
X114780714Y-139427438D01*
X114780714Y-139427438D02*
X114875952Y-139379819D01*
X114875952Y-139379819D02*
X115114047Y-139379819D01*
X115114047Y-139379819D02*
X115256904Y-139427438D01*
X115590238Y-139379819D02*
X115828333Y-140379819D01*
X115828333Y-140379819D02*
X116018809Y-139665533D01*
X116018809Y-139665533D02*
X116209285Y-140379819D01*
X116209285Y-140379819D02*
X116447381Y-139379819D01*
X116780714Y-139475057D02*
X116828333Y-139427438D01*
X116828333Y-139427438D02*
X116923571Y-139379819D01*
X116923571Y-139379819D02*
X117161666Y-139379819D01*
X117161666Y-139379819D02*
X117256904Y-139427438D01*
X117256904Y-139427438D02*
X117304523Y-139475057D01*
X117304523Y-139475057D02*
X117352142Y-139570295D01*
X117352142Y-139570295D02*
X117352142Y-139665533D01*
X117352142Y-139665533D02*
X117304523Y-139808390D01*
X117304523Y-139808390D02*
X116733095Y-140379819D01*
X116733095Y-140379819D02*
X117352142Y-140379819D01*
X118304523Y-140379819D02*
X117733095Y-140379819D01*
X118018809Y-140379819D02*
X118018809Y-139379819D01*
X118018809Y-139379819D02*
X117923571Y-139522676D01*
X117923571Y-139522676D02*
X117828333Y-139617914D01*
X117828333Y-139617914D02*
X117733095Y-139665533D01*
X133735476Y-130807200D02*
X133878333Y-130854819D01*
X133878333Y-130854819D02*
X134116428Y-130854819D01*
X134116428Y-130854819D02*
X134211666Y-130807200D01*
X134211666Y-130807200D02*
X134259285Y-130759580D01*
X134259285Y-130759580D02*
X134306904Y-130664342D01*
X134306904Y-130664342D02*
X134306904Y-130569104D01*
X134306904Y-130569104D02*
X134259285Y-130473866D01*
X134259285Y-130473866D02*
X134211666Y-130426247D01*
X134211666Y-130426247D02*
X134116428Y-130378628D01*
X134116428Y-130378628D02*
X133925952Y-130331009D01*
X133925952Y-130331009D02*
X133830714Y-130283390D01*
X133830714Y-130283390D02*
X133783095Y-130235771D01*
X133783095Y-130235771D02*
X133735476Y-130140533D01*
X133735476Y-130140533D02*
X133735476Y-130045295D01*
X133735476Y-130045295D02*
X133783095Y-129950057D01*
X133783095Y-129950057D02*
X133830714Y-129902438D01*
X133830714Y-129902438D02*
X133925952Y-129854819D01*
X133925952Y-129854819D02*
X134164047Y-129854819D01*
X134164047Y-129854819D02*
X134306904Y-129902438D01*
X134640238Y-129854819D02*
X134878333Y-130854819D01*
X134878333Y-130854819D02*
X135068809Y-130140533D01*
X135068809Y-130140533D02*
X135259285Y-130854819D01*
X135259285Y-130854819D02*
X135497381Y-129854819D01*
X136402142Y-130854819D02*
X135830714Y-130854819D01*
X136116428Y-130854819D02*
X136116428Y-129854819D01*
X136116428Y-129854819D02*
X136021190Y-129997676D01*
X136021190Y-129997676D02*
X135925952Y-130092914D01*
X135925952Y-130092914D02*
X135830714Y-130140533D01*
X136973571Y-130283390D02*
X136878333Y-130235771D01*
X136878333Y-130235771D02*
X136830714Y-130188152D01*
X136830714Y-130188152D02*
X136783095Y-130092914D01*
X136783095Y-130092914D02*
X136783095Y-130045295D01*
X136783095Y-130045295D02*
X136830714Y-129950057D01*
X136830714Y-129950057D02*
X136878333Y-129902438D01*
X136878333Y-129902438D02*
X136973571Y-129854819D01*
X136973571Y-129854819D02*
X137164047Y-129854819D01*
X137164047Y-129854819D02*
X137259285Y-129902438D01*
X137259285Y-129902438D02*
X137306904Y-129950057D01*
X137306904Y-129950057D02*
X137354523Y-130045295D01*
X137354523Y-130045295D02*
X137354523Y-130092914D01*
X137354523Y-130092914D02*
X137306904Y-130188152D01*
X137306904Y-130188152D02*
X137259285Y-130235771D01*
X137259285Y-130235771D02*
X137164047Y-130283390D01*
X137164047Y-130283390D02*
X136973571Y-130283390D01*
X136973571Y-130283390D02*
X136878333Y-130331009D01*
X136878333Y-130331009D02*
X136830714Y-130378628D01*
X136830714Y-130378628D02*
X136783095Y-130473866D01*
X136783095Y-130473866D02*
X136783095Y-130664342D01*
X136783095Y-130664342D02*
X136830714Y-130759580D01*
X136830714Y-130759580D02*
X136878333Y-130807200D01*
X136878333Y-130807200D02*
X136973571Y-130854819D01*
X136973571Y-130854819D02*
X137164047Y-130854819D01*
X137164047Y-130854819D02*
X137259285Y-130807200D01*
X137259285Y-130807200D02*
X137306904Y-130759580D01*
X137306904Y-130759580D02*
X137354523Y-130664342D01*
X137354523Y-130664342D02*
X137354523Y-130473866D01*
X137354523Y-130473866D02*
X137306904Y-130378628D01*
X137306904Y-130378628D02*
X137259285Y-130331009D01*
X137259285Y-130331009D02*
X137164047Y-130283390D01*
X77061667Y-73657200D02*
X77204524Y-73704819D01*
X77204524Y-73704819D02*
X77442619Y-73704819D01*
X77442619Y-73704819D02*
X77537857Y-73657200D01*
X77537857Y-73657200D02*
X77585476Y-73609580D01*
X77585476Y-73609580D02*
X77633095Y-73514342D01*
X77633095Y-73514342D02*
X77633095Y-73419104D01*
X77633095Y-73419104D02*
X77585476Y-73323866D01*
X77585476Y-73323866D02*
X77537857Y-73276247D01*
X77537857Y-73276247D02*
X77442619Y-73228628D01*
X77442619Y-73228628D02*
X77252143Y-73181009D01*
X77252143Y-73181009D02*
X77156905Y-73133390D01*
X77156905Y-73133390D02*
X77109286Y-73085771D01*
X77109286Y-73085771D02*
X77061667Y-72990533D01*
X77061667Y-72990533D02*
X77061667Y-72895295D01*
X77061667Y-72895295D02*
X77109286Y-72800057D01*
X77109286Y-72800057D02*
X77156905Y-72752438D01*
X77156905Y-72752438D02*
X77252143Y-72704819D01*
X77252143Y-72704819D02*
X77490238Y-72704819D01*
X77490238Y-72704819D02*
X77633095Y-72752438D01*
X77966429Y-72704819D02*
X78204524Y-73704819D01*
X78204524Y-73704819D02*
X78395000Y-72990533D01*
X78395000Y-72990533D02*
X78585476Y-73704819D01*
X78585476Y-73704819D02*
X78823572Y-72704819D01*
X79156905Y-72800057D02*
X79204524Y-72752438D01*
X79204524Y-72752438D02*
X79299762Y-72704819D01*
X79299762Y-72704819D02*
X79537857Y-72704819D01*
X79537857Y-72704819D02*
X79633095Y-72752438D01*
X79633095Y-72752438D02*
X79680714Y-72800057D01*
X79680714Y-72800057D02*
X79728333Y-72895295D01*
X79728333Y-72895295D02*
X79728333Y-72990533D01*
X79728333Y-72990533D02*
X79680714Y-73133390D01*
X79680714Y-73133390D02*
X79109286Y-73704819D01*
X79109286Y-73704819D02*
X79728333Y-73704819D01*
X67060476Y-149857200D02*
X67203333Y-149904819D01*
X67203333Y-149904819D02*
X67441428Y-149904819D01*
X67441428Y-149904819D02*
X67536666Y-149857200D01*
X67536666Y-149857200D02*
X67584285Y-149809580D01*
X67584285Y-149809580D02*
X67631904Y-149714342D01*
X67631904Y-149714342D02*
X67631904Y-149619104D01*
X67631904Y-149619104D02*
X67584285Y-149523866D01*
X67584285Y-149523866D02*
X67536666Y-149476247D01*
X67536666Y-149476247D02*
X67441428Y-149428628D01*
X67441428Y-149428628D02*
X67250952Y-149381009D01*
X67250952Y-149381009D02*
X67155714Y-149333390D01*
X67155714Y-149333390D02*
X67108095Y-149285771D01*
X67108095Y-149285771D02*
X67060476Y-149190533D01*
X67060476Y-149190533D02*
X67060476Y-149095295D01*
X67060476Y-149095295D02*
X67108095Y-149000057D01*
X67108095Y-149000057D02*
X67155714Y-148952438D01*
X67155714Y-148952438D02*
X67250952Y-148904819D01*
X67250952Y-148904819D02*
X67489047Y-148904819D01*
X67489047Y-148904819D02*
X67631904Y-148952438D01*
X67965238Y-148904819D02*
X68203333Y-149904819D01*
X68203333Y-149904819D02*
X68393809Y-149190533D01*
X68393809Y-149190533D02*
X68584285Y-149904819D01*
X68584285Y-149904819D02*
X68822381Y-148904819D01*
X69727142Y-149904819D02*
X69155714Y-149904819D01*
X69441428Y-149904819D02*
X69441428Y-148904819D01*
X69441428Y-148904819D02*
X69346190Y-149047676D01*
X69346190Y-149047676D02*
X69250952Y-149142914D01*
X69250952Y-149142914D02*
X69155714Y-149190533D01*
X70203333Y-149904819D02*
X70393809Y-149904819D01*
X70393809Y-149904819D02*
X70489047Y-149857200D01*
X70489047Y-149857200D02*
X70536666Y-149809580D01*
X70536666Y-149809580D02*
X70631904Y-149666723D01*
X70631904Y-149666723D02*
X70679523Y-149476247D01*
X70679523Y-149476247D02*
X70679523Y-149095295D01*
X70679523Y-149095295D02*
X70631904Y-149000057D01*
X70631904Y-149000057D02*
X70584285Y-148952438D01*
X70584285Y-148952438D02*
X70489047Y-148904819D01*
X70489047Y-148904819D02*
X70298571Y-148904819D01*
X70298571Y-148904819D02*
X70203333Y-148952438D01*
X70203333Y-148952438D02*
X70155714Y-149000057D01*
X70155714Y-149000057D02*
X70108095Y-149095295D01*
X70108095Y-149095295D02*
X70108095Y-149333390D01*
X70108095Y-149333390D02*
X70155714Y-149428628D01*
X70155714Y-149428628D02*
X70203333Y-149476247D01*
X70203333Y-149476247D02*
X70298571Y-149523866D01*
X70298571Y-149523866D02*
X70489047Y-149523866D01*
X70489047Y-149523866D02*
X70584285Y-149476247D01*
X70584285Y-149476247D02*
X70631904Y-149428628D01*
X70631904Y-149428628D02*
X70679523Y-149333390D01*
X95635476Y-130807200D02*
X95778333Y-130854819D01*
X95778333Y-130854819D02*
X96016428Y-130854819D01*
X96016428Y-130854819D02*
X96111666Y-130807200D01*
X96111666Y-130807200D02*
X96159285Y-130759580D01*
X96159285Y-130759580D02*
X96206904Y-130664342D01*
X96206904Y-130664342D02*
X96206904Y-130569104D01*
X96206904Y-130569104D02*
X96159285Y-130473866D01*
X96159285Y-130473866D02*
X96111666Y-130426247D01*
X96111666Y-130426247D02*
X96016428Y-130378628D01*
X96016428Y-130378628D02*
X95825952Y-130331009D01*
X95825952Y-130331009D02*
X95730714Y-130283390D01*
X95730714Y-130283390D02*
X95683095Y-130235771D01*
X95683095Y-130235771D02*
X95635476Y-130140533D01*
X95635476Y-130140533D02*
X95635476Y-130045295D01*
X95635476Y-130045295D02*
X95683095Y-129950057D01*
X95683095Y-129950057D02*
X95730714Y-129902438D01*
X95730714Y-129902438D02*
X95825952Y-129854819D01*
X95825952Y-129854819D02*
X96064047Y-129854819D01*
X96064047Y-129854819D02*
X96206904Y-129902438D01*
X96540238Y-129854819D02*
X96778333Y-130854819D01*
X96778333Y-130854819D02*
X96968809Y-130140533D01*
X96968809Y-130140533D02*
X97159285Y-130854819D01*
X97159285Y-130854819D02*
X97397381Y-129854819D01*
X98302142Y-130854819D02*
X97730714Y-130854819D01*
X98016428Y-130854819D02*
X98016428Y-129854819D01*
X98016428Y-129854819D02*
X97921190Y-129997676D01*
X97921190Y-129997676D02*
X97825952Y-130092914D01*
X97825952Y-130092914D02*
X97730714Y-130140533D01*
X98635476Y-129854819D02*
X99302142Y-129854819D01*
X99302142Y-129854819D02*
X98873571Y-130854819D01*
X134211667Y-73657200D02*
X134354524Y-73704819D01*
X134354524Y-73704819D02*
X134592619Y-73704819D01*
X134592619Y-73704819D02*
X134687857Y-73657200D01*
X134687857Y-73657200D02*
X134735476Y-73609580D01*
X134735476Y-73609580D02*
X134783095Y-73514342D01*
X134783095Y-73514342D02*
X134783095Y-73419104D01*
X134783095Y-73419104D02*
X134735476Y-73323866D01*
X134735476Y-73323866D02*
X134687857Y-73276247D01*
X134687857Y-73276247D02*
X134592619Y-73228628D01*
X134592619Y-73228628D02*
X134402143Y-73181009D01*
X134402143Y-73181009D02*
X134306905Y-73133390D01*
X134306905Y-73133390D02*
X134259286Y-73085771D01*
X134259286Y-73085771D02*
X134211667Y-72990533D01*
X134211667Y-72990533D02*
X134211667Y-72895295D01*
X134211667Y-72895295D02*
X134259286Y-72800057D01*
X134259286Y-72800057D02*
X134306905Y-72752438D01*
X134306905Y-72752438D02*
X134402143Y-72704819D01*
X134402143Y-72704819D02*
X134640238Y-72704819D01*
X134640238Y-72704819D02*
X134783095Y-72752438D01*
X135116429Y-72704819D02*
X135354524Y-73704819D01*
X135354524Y-73704819D02*
X135545000Y-72990533D01*
X135545000Y-72990533D02*
X135735476Y-73704819D01*
X135735476Y-73704819D02*
X135973572Y-72704819D01*
X136830714Y-72704819D02*
X136354524Y-72704819D01*
X136354524Y-72704819D02*
X136306905Y-73181009D01*
X136306905Y-73181009D02*
X136354524Y-73133390D01*
X136354524Y-73133390D02*
X136449762Y-73085771D01*
X136449762Y-73085771D02*
X136687857Y-73085771D01*
X136687857Y-73085771D02*
X136783095Y-73133390D01*
X136783095Y-73133390D02*
X136830714Y-73181009D01*
X136830714Y-73181009D02*
X136878333Y-73276247D01*
X136878333Y-73276247D02*
X136878333Y-73514342D01*
X136878333Y-73514342D02*
X136830714Y-73609580D01*
X136830714Y-73609580D02*
X136783095Y-73657200D01*
X136783095Y-73657200D02*
X136687857Y-73704819D01*
X136687857Y-73704819D02*
X136449762Y-73704819D01*
X136449762Y-73704819D02*
X136354524Y-73657200D01*
X136354524Y-73657200D02*
X136306905Y-73609580D01*
X76585476Y-111757200D02*
X76728333Y-111804819D01*
X76728333Y-111804819D02*
X76966428Y-111804819D01*
X76966428Y-111804819D02*
X77061666Y-111757200D01*
X77061666Y-111757200D02*
X77109285Y-111709580D01*
X77109285Y-111709580D02*
X77156904Y-111614342D01*
X77156904Y-111614342D02*
X77156904Y-111519104D01*
X77156904Y-111519104D02*
X77109285Y-111423866D01*
X77109285Y-111423866D02*
X77061666Y-111376247D01*
X77061666Y-111376247D02*
X76966428Y-111328628D01*
X76966428Y-111328628D02*
X76775952Y-111281009D01*
X76775952Y-111281009D02*
X76680714Y-111233390D01*
X76680714Y-111233390D02*
X76633095Y-111185771D01*
X76633095Y-111185771D02*
X76585476Y-111090533D01*
X76585476Y-111090533D02*
X76585476Y-110995295D01*
X76585476Y-110995295D02*
X76633095Y-110900057D01*
X76633095Y-110900057D02*
X76680714Y-110852438D01*
X76680714Y-110852438D02*
X76775952Y-110804819D01*
X76775952Y-110804819D02*
X77014047Y-110804819D01*
X77014047Y-110804819D02*
X77156904Y-110852438D01*
X77490238Y-110804819D02*
X77728333Y-111804819D01*
X77728333Y-111804819D02*
X77918809Y-111090533D01*
X77918809Y-111090533D02*
X78109285Y-111804819D01*
X78109285Y-111804819D02*
X78347381Y-110804819D01*
X79252142Y-111804819D02*
X78680714Y-111804819D01*
X78966428Y-111804819D02*
X78966428Y-110804819D01*
X78966428Y-110804819D02*
X78871190Y-110947676D01*
X78871190Y-110947676D02*
X78775952Y-111042914D01*
X78775952Y-111042914D02*
X78680714Y-111090533D01*
X80204523Y-111804819D02*
X79633095Y-111804819D01*
X79918809Y-111804819D02*
X79918809Y-110804819D01*
X79918809Y-110804819D02*
X79823571Y-110947676D01*
X79823571Y-110947676D02*
X79728333Y-111042914D01*
X79728333Y-111042914D02*
X79633095Y-111090533D01*
X77061667Y-92707200D02*
X77204524Y-92754819D01*
X77204524Y-92754819D02*
X77442619Y-92754819D01*
X77442619Y-92754819D02*
X77537857Y-92707200D01*
X77537857Y-92707200D02*
X77585476Y-92659580D01*
X77585476Y-92659580D02*
X77633095Y-92564342D01*
X77633095Y-92564342D02*
X77633095Y-92469104D01*
X77633095Y-92469104D02*
X77585476Y-92373866D01*
X77585476Y-92373866D02*
X77537857Y-92326247D01*
X77537857Y-92326247D02*
X77442619Y-92278628D01*
X77442619Y-92278628D02*
X77252143Y-92231009D01*
X77252143Y-92231009D02*
X77156905Y-92183390D01*
X77156905Y-92183390D02*
X77109286Y-92135771D01*
X77109286Y-92135771D02*
X77061667Y-92040533D01*
X77061667Y-92040533D02*
X77061667Y-91945295D01*
X77061667Y-91945295D02*
X77109286Y-91850057D01*
X77109286Y-91850057D02*
X77156905Y-91802438D01*
X77156905Y-91802438D02*
X77252143Y-91754819D01*
X77252143Y-91754819D02*
X77490238Y-91754819D01*
X77490238Y-91754819D02*
X77633095Y-91802438D01*
X77966429Y-91754819D02*
X78204524Y-92754819D01*
X78204524Y-92754819D02*
X78395000Y-92040533D01*
X78395000Y-92040533D02*
X78585476Y-92754819D01*
X78585476Y-92754819D02*
X78823572Y-91754819D01*
X79109286Y-91754819D02*
X79775952Y-91754819D01*
X79775952Y-91754819D02*
X79347381Y-92754819D01*
X97769819Y-47704292D02*
X97293628Y-48037625D01*
X97769819Y-48275720D02*
X96769819Y-48275720D01*
X96769819Y-48275720D02*
X96769819Y-47894768D01*
X96769819Y-47894768D02*
X96817438Y-47799530D01*
X96817438Y-47799530D02*
X96865057Y-47751911D01*
X96865057Y-47751911D02*
X96960295Y-47704292D01*
X96960295Y-47704292D02*
X97103152Y-47704292D01*
X97103152Y-47704292D02*
X97198390Y-47751911D01*
X97198390Y-47751911D02*
X97246009Y-47799530D01*
X97246009Y-47799530D02*
X97293628Y-47894768D01*
X97293628Y-47894768D02*
X97293628Y-48275720D01*
X97246009Y-47275720D02*
X97246009Y-46942387D01*
X97769819Y-46799530D02*
X97769819Y-47275720D01*
X97769819Y-47275720D02*
X96769819Y-47275720D01*
X96769819Y-47275720D02*
X96769819Y-46799530D01*
X97246009Y-46037625D02*
X97246009Y-46370958D01*
X97769819Y-46370958D02*
X96769819Y-46370958D01*
X96769819Y-46370958D02*
X96769819Y-45894768D01*
X96769819Y-45370958D02*
X97007914Y-45370958D01*
X96912676Y-45609053D02*
X97007914Y-45370958D01*
X97007914Y-45370958D02*
X96912676Y-45132863D01*
X97198390Y-45513815D02*
X97007914Y-45370958D01*
X97007914Y-45370958D02*
X97198390Y-45228101D01*
X96769819Y-44609053D02*
X97007914Y-44609053D01*
X96912676Y-44847148D02*
X97007914Y-44609053D01*
X97007914Y-44609053D02*
X96912676Y-44370958D01*
X97198390Y-44751910D02*
X97007914Y-44609053D01*
X97007914Y-44609053D02*
X97198390Y-44466196D01*
X115161667Y-73657200D02*
X115304524Y-73704819D01*
X115304524Y-73704819D02*
X115542619Y-73704819D01*
X115542619Y-73704819D02*
X115637857Y-73657200D01*
X115637857Y-73657200D02*
X115685476Y-73609580D01*
X115685476Y-73609580D02*
X115733095Y-73514342D01*
X115733095Y-73514342D02*
X115733095Y-73419104D01*
X115733095Y-73419104D02*
X115685476Y-73323866D01*
X115685476Y-73323866D02*
X115637857Y-73276247D01*
X115637857Y-73276247D02*
X115542619Y-73228628D01*
X115542619Y-73228628D02*
X115352143Y-73181009D01*
X115352143Y-73181009D02*
X115256905Y-73133390D01*
X115256905Y-73133390D02*
X115209286Y-73085771D01*
X115209286Y-73085771D02*
X115161667Y-72990533D01*
X115161667Y-72990533D02*
X115161667Y-72895295D01*
X115161667Y-72895295D02*
X115209286Y-72800057D01*
X115209286Y-72800057D02*
X115256905Y-72752438D01*
X115256905Y-72752438D02*
X115352143Y-72704819D01*
X115352143Y-72704819D02*
X115590238Y-72704819D01*
X115590238Y-72704819D02*
X115733095Y-72752438D01*
X116066429Y-72704819D02*
X116304524Y-73704819D01*
X116304524Y-73704819D02*
X116495000Y-72990533D01*
X116495000Y-72990533D02*
X116685476Y-73704819D01*
X116685476Y-73704819D02*
X116923572Y-72704819D01*
X117733095Y-73038152D02*
X117733095Y-73704819D01*
X117495000Y-72657200D02*
X117256905Y-73371485D01*
X117256905Y-73371485D02*
X117875952Y-73371485D01*
X57535476Y-111757200D02*
X57678333Y-111804819D01*
X57678333Y-111804819D02*
X57916428Y-111804819D01*
X57916428Y-111804819D02*
X58011666Y-111757200D01*
X58011666Y-111757200D02*
X58059285Y-111709580D01*
X58059285Y-111709580D02*
X58106904Y-111614342D01*
X58106904Y-111614342D02*
X58106904Y-111519104D01*
X58106904Y-111519104D02*
X58059285Y-111423866D01*
X58059285Y-111423866D02*
X58011666Y-111376247D01*
X58011666Y-111376247D02*
X57916428Y-111328628D01*
X57916428Y-111328628D02*
X57725952Y-111281009D01*
X57725952Y-111281009D02*
X57630714Y-111233390D01*
X57630714Y-111233390D02*
X57583095Y-111185771D01*
X57583095Y-111185771D02*
X57535476Y-111090533D01*
X57535476Y-111090533D02*
X57535476Y-110995295D01*
X57535476Y-110995295D02*
X57583095Y-110900057D01*
X57583095Y-110900057D02*
X57630714Y-110852438D01*
X57630714Y-110852438D02*
X57725952Y-110804819D01*
X57725952Y-110804819D02*
X57964047Y-110804819D01*
X57964047Y-110804819D02*
X58106904Y-110852438D01*
X58440238Y-110804819D02*
X58678333Y-111804819D01*
X58678333Y-111804819D02*
X58868809Y-111090533D01*
X58868809Y-111090533D02*
X59059285Y-111804819D01*
X59059285Y-111804819D02*
X59297381Y-110804819D01*
X60202142Y-111804819D02*
X59630714Y-111804819D01*
X59916428Y-111804819D02*
X59916428Y-110804819D01*
X59916428Y-110804819D02*
X59821190Y-110947676D01*
X59821190Y-110947676D02*
X59725952Y-111042914D01*
X59725952Y-111042914D02*
X59630714Y-111090533D01*
X60821190Y-110804819D02*
X60916428Y-110804819D01*
X60916428Y-110804819D02*
X61011666Y-110852438D01*
X61011666Y-110852438D02*
X61059285Y-110900057D01*
X61059285Y-110900057D02*
X61106904Y-110995295D01*
X61106904Y-110995295D02*
X61154523Y-111185771D01*
X61154523Y-111185771D02*
X61154523Y-111423866D01*
X61154523Y-111423866D02*
X61106904Y-111614342D01*
X61106904Y-111614342D02*
X61059285Y-111709580D01*
X61059285Y-111709580D02*
X61011666Y-111757200D01*
X61011666Y-111757200D02*
X60916428Y-111804819D01*
X60916428Y-111804819D02*
X60821190Y-111804819D01*
X60821190Y-111804819D02*
X60725952Y-111757200D01*
X60725952Y-111757200D02*
X60678333Y-111709580D01*
X60678333Y-111709580D02*
X60630714Y-111614342D01*
X60630714Y-111614342D02*
X60583095Y-111423866D01*
X60583095Y-111423866D02*
X60583095Y-111185771D01*
X60583095Y-111185771D02*
X60630714Y-110995295D01*
X60630714Y-110995295D02*
X60678333Y-110900057D01*
X60678333Y-110900057D02*
X60725952Y-110852438D01*
X60725952Y-110852438D02*
X60821190Y-110804819D01*
X133735476Y-111757200D02*
X133878333Y-111804819D01*
X133878333Y-111804819D02*
X134116428Y-111804819D01*
X134116428Y-111804819D02*
X134211666Y-111757200D01*
X134211666Y-111757200D02*
X134259285Y-111709580D01*
X134259285Y-111709580D02*
X134306904Y-111614342D01*
X134306904Y-111614342D02*
X134306904Y-111519104D01*
X134306904Y-111519104D02*
X134259285Y-111423866D01*
X134259285Y-111423866D02*
X134211666Y-111376247D01*
X134211666Y-111376247D02*
X134116428Y-111328628D01*
X134116428Y-111328628D02*
X133925952Y-111281009D01*
X133925952Y-111281009D02*
X133830714Y-111233390D01*
X133830714Y-111233390D02*
X133783095Y-111185771D01*
X133783095Y-111185771D02*
X133735476Y-111090533D01*
X133735476Y-111090533D02*
X133735476Y-110995295D01*
X133735476Y-110995295D02*
X133783095Y-110900057D01*
X133783095Y-110900057D02*
X133830714Y-110852438D01*
X133830714Y-110852438D02*
X133925952Y-110804819D01*
X133925952Y-110804819D02*
X134164047Y-110804819D01*
X134164047Y-110804819D02*
X134306904Y-110852438D01*
X134640238Y-110804819D02*
X134878333Y-111804819D01*
X134878333Y-111804819D02*
X135068809Y-111090533D01*
X135068809Y-111090533D02*
X135259285Y-111804819D01*
X135259285Y-111804819D02*
X135497381Y-110804819D01*
X136402142Y-111804819D02*
X135830714Y-111804819D01*
X136116428Y-111804819D02*
X136116428Y-110804819D01*
X136116428Y-110804819D02*
X136021190Y-110947676D01*
X136021190Y-110947676D02*
X135925952Y-111042914D01*
X135925952Y-111042914D02*
X135830714Y-111090533D01*
X137259285Y-111138152D02*
X137259285Y-111804819D01*
X137021190Y-110757200D02*
X136783095Y-111471485D01*
X136783095Y-111471485D02*
X137402142Y-111471485D01*
X114685476Y-102232200D02*
X114828333Y-102279819D01*
X114828333Y-102279819D02*
X115066428Y-102279819D01*
X115066428Y-102279819D02*
X115161666Y-102232200D01*
X115161666Y-102232200D02*
X115209285Y-102184580D01*
X115209285Y-102184580D02*
X115256904Y-102089342D01*
X115256904Y-102089342D02*
X115256904Y-101994104D01*
X115256904Y-101994104D02*
X115209285Y-101898866D01*
X115209285Y-101898866D02*
X115161666Y-101851247D01*
X115161666Y-101851247D02*
X115066428Y-101803628D01*
X115066428Y-101803628D02*
X114875952Y-101756009D01*
X114875952Y-101756009D02*
X114780714Y-101708390D01*
X114780714Y-101708390D02*
X114733095Y-101660771D01*
X114733095Y-101660771D02*
X114685476Y-101565533D01*
X114685476Y-101565533D02*
X114685476Y-101470295D01*
X114685476Y-101470295D02*
X114733095Y-101375057D01*
X114733095Y-101375057D02*
X114780714Y-101327438D01*
X114780714Y-101327438D02*
X114875952Y-101279819D01*
X114875952Y-101279819D02*
X115114047Y-101279819D01*
X115114047Y-101279819D02*
X115256904Y-101327438D01*
X115590238Y-101279819D02*
X115828333Y-102279819D01*
X115828333Y-102279819D02*
X116018809Y-101565533D01*
X116018809Y-101565533D02*
X116209285Y-102279819D01*
X116209285Y-102279819D02*
X116447381Y-101279819D01*
X117352142Y-102279819D02*
X116780714Y-102279819D01*
X117066428Y-102279819D02*
X117066428Y-101279819D01*
X117066428Y-101279819D02*
X116971190Y-101422676D01*
X116971190Y-101422676D02*
X116875952Y-101517914D01*
X116875952Y-101517914D02*
X116780714Y-101565533D01*
X117685476Y-101279819D02*
X118304523Y-101279819D01*
X118304523Y-101279819D02*
X117971190Y-101660771D01*
X117971190Y-101660771D02*
X118114047Y-101660771D01*
X118114047Y-101660771D02*
X118209285Y-101708390D01*
X118209285Y-101708390D02*
X118256904Y-101756009D01*
X118256904Y-101756009D02*
X118304523Y-101851247D01*
X118304523Y-101851247D02*
X118304523Y-102089342D01*
X118304523Y-102089342D02*
X118256904Y-102184580D01*
X118256904Y-102184580D02*
X118209285Y-102232200D01*
X118209285Y-102232200D02*
X118114047Y-102279819D01*
X118114047Y-102279819D02*
X117828333Y-102279819D01*
X117828333Y-102279819D02*
X117733095Y-102232200D01*
X117733095Y-102232200D02*
X117685476Y-102184580D01*
X96111667Y-73657200D02*
X96254524Y-73704819D01*
X96254524Y-73704819D02*
X96492619Y-73704819D01*
X96492619Y-73704819D02*
X96587857Y-73657200D01*
X96587857Y-73657200D02*
X96635476Y-73609580D01*
X96635476Y-73609580D02*
X96683095Y-73514342D01*
X96683095Y-73514342D02*
X96683095Y-73419104D01*
X96683095Y-73419104D02*
X96635476Y-73323866D01*
X96635476Y-73323866D02*
X96587857Y-73276247D01*
X96587857Y-73276247D02*
X96492619Y-73228628D01*
X96492619Y-73228628D02*
X96302143Y-73181009D01*
X96302143Y-73181009D02*
X96206905Y-73133390D01*
X96206905Y-73133390D02*
X96159286Y-73085771D01*
X96159286Y-73085771D02*
X96111667Y-72990533D01*
X96111667Y-72990533D02*
X96111667Y-72895295D01*
X96111667Y-72895295D02*
X96159286Y-72800057D01*
X96159286Y-72800057D02*
X96206905Y-72752438D01*
X96206905Y-72752438D02*
X96302143Y-72704819D01*
X96302143Y-72704819D02*
X96540238Y-72704819D01*
X96540238Y-72704819D02*
X96683095Y-72752438D01*
X97016429Y-72704819D02*
X97254524Y-73704819D01*
X97254524Y-73704819D02*
X97445000Y-72990533D01*
X97445000Y-72990533D02*
X97635476Y-73704819D01*
X97635476Y-73704819D02*
X97873572Y-72704819D01*
X98159286Y-72704819D02*
X98778333Y-72704819D01*
X98778333Y-72704819D02*
X98445000Y-73085771D01*
X98445000Y-73085771D02*
X98587857Y-73085771D01*
X98587857Y-73085771D02*
X98683095Y-73133390D01*
X98683095Y-73133390D02*
X98730714Y-73181009D01*
X98730714Y-73181009D02*
X98778333Y-73276247D01*
X98778333Y-73276247D02*
X98778333Y-73514342D01*
X98778333Y-73514342D02*
X98730714Y-73609580D01*
X98730714Y-73609580D02*
X98683095Y-73657200D01*
X98683095Y-73657200D02*
X98587857Y-73704819D01*
X98587857Y-73704819D02*
X98302143Y-73704819D01*
X98302143Y-73704819D02*
X98206905Y-73657200D01*
X98206905Y-73657200D02*
X98159286Y-73609580D01*
X95635476Y-149857200D02*
X95778333Y-149904819D01*
X95778333Y-149904819D02*
X96016428Y-149904819D01*
X96016428Y-149904819D02*
X96111666Y-149857200D01*
X96111666Y-149857200D02*
X96159285Y-149809580D01*
X96159285Y-149809580D02*
X96206904Y-149714342D01*
X96206904Y-149714342D02*
X96206904Y-149619104D01*
X96206904Y-149619104D02*
X96159285Y-149523866D01*
X96159285Y-149523866D02*
X96111666Y-149476247D01*
X96111666Y-149476247D02*
X96016428Y-149428628D01*
X96016428Y-149428628D02*
X95825952Y-149381009D01*
X95825952Y-149381009D02*
X95730714Y-149333390D01*
X95730714Y-149333390D02*
X95683095Y-149285771D01*
X95683095Y-149285771D02*
X95635476Y-149190533D01*
X95635476Y-149190533D02*
X95635476Y-149095295D01*
X95635476Y-149095295D02*
X95683095Y-149000057D01*
X95683095Y-149000057D02*
X95730714Y-148952438D01*
X95730714Y-148952438D02*
X95825952Y-148904819D01*
X95825952Y-148904819D02*
X96064047Y-148904819D01*
X96064047Y-148904819D02*
X96206904Y-148952438D01*
X96540238Y-148904819D02*
X96778333Y-149904819D01*
X96778333Y-149904819D02*
X96968809Y-149190533D01*
X96968809Y-149190533D02*
X97159285Y-149904819D01*
X97159285Y-149904819D02*
X97397381Y-148904819D01*
X97730714Y-149000057D02*
X97778333Y-148952438D01*
X97778333Y-148952438D02*
X97873571Y-148904819D01*
X97873571Y-148904819D02*
X98111666Y-148904819D01*
X98111666Y-148904819D02*
X98206904Y-148952438D01*
X98206904Y-148952438D02*
X98254523Y-149000057D01*
X98254523Y-149000057D02*
X98302142Y-149095295D01*
X98302142Y-149095295D02*
X98302142Y-149190533D01*
X98302142Y-149190533D02*
X98254523Y-149333390D01*
X98254523Y-149333390D02*
X97683095Y-149904819D01*
X97683095Y-149904819D02*
X98302142Y-149904819D01*
X98921190Y-148904819D02*
X99016428Y-148904819D01*
X99016428Y-148904819D02*
X99111666Y-148952438D01*
X99111666Y-148952438D02*
X99159285Y-149000057D01*
X99159285Y-149000057D02*
X99206904Y-149095295D01*
X99206904Y-149095295D02*
X99254523Y-149285771D01*
X99254523Y-149285771D02*
X99254523Y-149523866D01*
X99254523Y-149523866D02*
X99206904Y-149714342D01*
X99206904Y-149714342D02*
X99159285Y-149809580D01*
X99159285Y-149809580D02*
X99111666Y-149857200D01*
X99111666Y-149857200D02*
X99016428Y-149904819D01*
X99016428Y-149904819D02*
X98921190Y-149904819D01*
X98921190Y-149904819D02*
X98825952Y-149857200D01*
X98825952Y-149857200D02*
X98778333Y-149809580D01*
X98778333Y-149809580D02*
X98730714Y-149714342D01*
X98730714Y-149714342D02*
X98683095Y-149523866D01*
X98683095Y-149523866D02*
X98683095Y-149285771D01*
X98683095Y-149285771D02*
X98730714Y-149095295D01*
X98730714Y-149095295D02*
X98778333Y-149000057D01*
X98778333Y-149000057D02*
X98825952Y-148952438D01*
X98825952Y-148952438D02*
X98921190Y-148904819D01*
X96111667Y-92707200D02*
X96254524Y-92754819D01*
X96254524Y-92754819D02*
X96492619Y-92754819D01*
X96492619Y-92754819D02*
X96587857Y-92707200D01*
X96587857Y-92707200D02*
X96635476Y-92659580D01*
X96635476Y-92659580D02*
X96683095Y-92564342D01*
X96683095Y-92564342D02*
X96683095Y-92469104D01*
X96683095Y-92469104D02*
X96635476Y-92373866D01*
X96635476Y-92373866D02*
X96587857Y-92326247D01*
X96587857Y-92326247D02*
X96492619Y-92278628D01*
X96492619Y-92278628D02*
X96302143Y-92231009D01*
X96302143Y-92231009D02*
X96206905Y-92183390D01*
X96206905Y-92183390D02*
X96159286Y-92135771D01*
X96159286Y-92135771D02*
X96111667Y-92040533D01*
X96111667Y-92040533D02*
X96111667Y-91945295D01*
X96111667Y-91945295D02*
X96159286Y-91850057D01*
X96159286Y-91850057D02*
X96206905Y-91802438D01*
X96206905Y-91802438D02*
X96302143Y-91754819D01*
X96302143Y-91754819D02*
X96540238Y-91754819D01*
X96540238Y-91754819D02*
X96683095Y-91802438D01*
X97016429Y-91754819D02*
X97254524Y-92754819D01*
X97254524Y-92754819D02*
X97445000Y-92040533D01*
X97445000Y-92040533D02*
X97635476Y-92754819D01*
X97635476Y-92754819D02*
X97873572Y-91754819D01*
X98397381Y-92183390D02*
X98302143Y-92135771D01*
X98302143Y-92135771D02*
X98254524Y-92088152D01*
X98254524Y-92088152D02*
X98206905Y-91992914D01*
X98206905Y-91992914D02*
X98206905Y-91945295D01*
X98206905Y-91945295D02*
X98254524Y-91850057D01*
X98254524Y-91850057D02*
X98302143Y-91802438D01*
X98302143Y-91802438D02*
X98397381Y-91754819D01*
X98397381Y-91754819D02*
X98587857Y-91754819D01*
X98587857Y-91754819D02*
X98683095Y-91802438D01*
X98683095Y-91802438D02*
X98730714Y-91850057D01*
X98730714Y-91850057D02*
X98778333Y-91945295D01*
X98778333Y-91945295D02*
X98778333Y-91992914D01*
X98778333Y-91992914D02*
X98730714Y-92088152D01*
X98730714Y-92088152D02*
X98683095Y-92135771D01*
X98683095Y-92135771D02*
X98587857Y-92183390D01*
X98587857Y-92183390D02*
X98397381Y-92183390D01*
X98397381Y-92183390D02*
X98302143Y-92231009D01*
X98302143Y-92231009D02*
X98254524Y-92278628D01*
X98254524Y-92278628D02*
X98206905Y-92373866D01*
X98206905Y-92373866D02*
X98206905Y-92564342D01*
X98206905Y-92564342D02*
X98254524Y-92659580D01*
X98254524Y-92659580D02*
X98302143Y-92707200D01*
X98302143Y-92707200D02*
X98397381Y-92754819D01*
X98397381Y-92754819D02*
X98587857Y-92754819D01*
X98587857Y-92754819D02*
X98683095Y-92707200D01*
X98683095Y-92707200D02*
X98730714Y-92659580D01*
X98730714Y-92659580D02*
X98778333Y-92564342D01*
X98778333Y-92564342D02*
X98778333Y-92373866D01*
X98778333Y-92373866D02*
X98730714Y-92278628D01*
X98730714Y-92278628D02*
X98683095Y-92231009D01*
X98683095Y-92231009D02*
X98587857Y-92183390D01*
X133735476Y-149857200D02*
X133878333Y-149904819D01*
X133878333Y-149904819D02*
X134116428Y-149904819D01*
X134116428Y-149904819D02*
X134211666Y-149857200D01*
X134211666Y-149857200D02*
X134259285Y-149809580D01*
X134259285Y-149809580D02*
X134306904Y-149714342D01*
X134306904Y-149714342D02*
X134306904Y-149619104D01*
X134306904Y-149619104D02*
X134259285Y-149523866D01*
X134259285Y-149523866D02*
X134211666Y-149476247D01*
X134211666Y-149476247D02*
X134116428Y-149428628D01*
X134116428Y-149428628D02*
X133925952Y-149381009D01*
X133925952Y-149381009D02*
X133830714Y-149333390D01*
X133830714Y-149333390D02*
X133783095Y-149285771D01*
X133783095Y-149285771D02*
X133735476Y-149190533D01*
X133735476Y-149190533D02*
X133735476Y-149095295D01*
X133735476Y-149095295D02*
X133783095Y-149000057D01*
X133783095Y-149000057D02*
X133830714Y-148952438D01*
X133830714Y-148952438D02*
X133925952Y-148904819D01*
X133925952Y-148904819D02*
X134164047Y-148904819D01*
X134164047Y-148904819D02*
X134306904Y-148952438D01*
X134640238Y-148904819D02*
X134878333Y-149904819D01*
X134878333Y-149904819D02*
X135068809Y-149190533D01*
X135068809Y-149190533D02*
X135259285Y-149904819D01*
X135259285Y-149904819D02*
X135497381Y-148904819D01*
X135830714Y-149000057D02*
X135878333Y-148952438D01*
X135878333Y-148952438D02*
X135973571Y-148904819D01*
X135973571Y-148904819D02*
X136211666Y-148904819D01*
X136211666Y-148904819D02*
X136306904Y-148952438D01*
X136306904Y-148952438D02*
X136354523Y-149000057D01*
X136354523Y-149000057D02*
X136402142Y-149095295D01*
X136402142Y-149095295D02*
X136402142Y-149190533D01*
X136402142Y-149190533D02*
X136354523Y-149333390D01*
X136354523Y-149333390D02*
X135783095Y-149904819D01*
X135783095Y-149904819D02*
X136402142Y-149904819D01*
X136783095Y-149000057D02*
X136830714Y-148952438D01*
X136830714Y-148952438D02*
X136925952Y-148904819D01*
X136925952Y-148904819D02*
X137164047Y-148904819D01*
X137164047Y-148904819D02*
X137259285Y-148952438D01*
X137259285Y-148952438D02*
X137306904Y-149000057D01*
X137306904Y-149000057D02*
X137354523Y-149095295D01*
X137354523Y-149095295D02*
X137354523Y-149190533D01*
X137354523Y-149190533D02*
X137306904Y-149333390D01*
X137306904Y-149333390D02*
X136735476Y-149904819D01*
X136735476Y-149904819D02*
X137354523Y-149904819D01*
X134211667Y-92707200D02*
X134354524Y-92754819D01*
X134354524Y-92754819D02*
X134592619Y-92754819D01*
X134592619Y-92754819D02*
X134687857Y-92707200D01*
X134687857Y-92707200D02*
X134735476Y-92659580D01*
X134735476Y-92659580D02*
X134783095Y-92564342D01*
X134783095Y-92564342D02*
X134783095Y-92469104D01*
X134783095Y-92469104D02*
X134735476Y-92373866D01*
X134735476Y-92373866D02*
X134687857Y-92326247D01*
X134687857Y-92326247D02*
X134592619Y-92278628D01*
X134592619Y-92278628D02*
X134402143Y-92231009D01*
X134402143Y-92231009D02*
X134306905Y-92183390D01*
X134306905Y-92183390D02*
X134259286Y-92135771D01*
X134259286Y-92135771D02*
X134211667Y-92040533D01*
X134211667Y-92040533D02*
X134211667Y-91945295D01*
X134211667Y-91945295D02*
X134259286Y-91850057D01*
X134259286Y-91850057D02*
X134306905Y-91802438D01*
X134306905Y-91802438D02*
X134402143Y-91754819D01*
X134402143Y-91754819D02*
X134640238Y-91754819D01*
X134640238Y-91754819D02*
X134783095Y-91802438D01*
X135116429Y-91754819D02*
X135354524Y-92754819D01*
X135354524Y-92754819D02*
X135545000Y-92040533D01*
X135545000Y-92040533D02*
X135735476Y-92754819D01*
X135735476Y-92754819D02*
X135973572Y-91754819D01*
X136402143Y-92754819D02*
X136592619Y-92754819D01*
X136592619Y-92754819D02*
X136687857Y-92707200D01*
X136687857Y-92707200D02*
X136735476Y-92659580D01*
X136735476Y-92659580D02*
X136830714Y-92516723D01*
X136830714Y-92516723D02*
X136878333Y-92326247D01*
X136878333Y-92326247D02*
X136878333Y-91945295D01*
X136878333Y-91945295D02*
X136830714Y-91850057D01*
X136830714Y-91850057D02*
X136783095Y-91802438D01*
X136783095Y-91802438D02*
X136687857Y-91754819D01*
X136687857Y-91754819D02*
X136497381Y-91754819D01*
X136497381Y-91754819D02*
X136402143Y-91802438D01*
X136402143Y-91802438D02*
X136354524Y-91850057D01*
X136354524Y-91850057D02*
X136306905Y-91945295D01*
X136306905Y-91945295D02*
X136306905Y-92183390D01*
X136306905Y-92183390D02*
X136354524Y-92278628D01*
X136354524Y-92278628D02*
X136402143Y-92326247D01*
X136402143Y-92326247D02*
X136497381Y-92373866D01*
X136497381Y-92373866D02*
X136687857Y-92373866D01*
X136687857Y-92373866D02*
X136783095Y-92326247D01*
X136783095Y-92326247D02*
X136830714Y-92278628D01*
X136830714Y-92278628D02*
X136878333Y-92183390D01*
D11*
%TO.C,SW16*%
X71295000Y-131300000D02*
X71295000Y-145500000D01*
X71295000Y-145500000D02*
X85495000Y-145500000D01*
X85495000Y-131300000D02*
X71295000Y-131300000D01*
X85495000Y-145500000D02*
X85495000Y-131300000D01*
%TO.C,SW6*%
X52245000Y-93200000D02*
X52245000Y-107400000D01*
X52245000Y-107400000D02*
X66445000Y-107400000D01*
X66445000Y-93200000D02*
X52245000Y-93200000D01*
X66445000Y-107400000D02*
X66445000Y-93200000D01*
%TO.C,SW15*%
X52245000Y-131300000D02*
X52245000Y-145500000D01*
X52245000Y-145500000D02*
X66445000Y-145500000D01*
X66445000Y-131300000D02*
X52245000Y-131300000D01*
X66445000Y-145500000D02*
X66445000Y-131300000D01*
%TO.C,SW1*%
X52245000Y-74150000D02*
X52245000Y-88350000D01*
X52245000Y-88350000D02*
X66445000Y-88350000D01*
X66445000Y-74150000D02*
X52245000Y-74150000D01*
X66445000Y-88350000D02*
X66445000Y-74150000D01*
%TO.C,SW12*%
X90345000Y-112250000D02*
X90345000Y-126450000D01*
X90345000Y-126450000D02*
X104545000Y-126450000D01*
X104545000Y-112250000D02*
X90345000Y-112250000D01*
X104545000Y-126450000D02*
X104545000Y-112250000D01*
%TO.C,SW21*%
X109395000Y-140825000D02*
X109395000Y-155025000D01*
X109395000Y-155025000D02*
X123595000Y-155025000D01*
X123595000Y-140825000D02*
X109395000Y-140825000D01*
X123595000Y-155025000D02*
X123595000Y-140825000D01*
%TO.C,SW18*%
X128445000Y-131300000D02*
X128445000Y-145500000D01*
X128445000Y-145500000D02*
X142645000Y-145500000D01*
X142645000Y-131300000D02*
X128445000Y-131300000D01*
X142645000Y-145500000D02*
X142645000Y-131300000D01*
%TO.C,SW2*%
X71295000Y-74150000D02*
X71295000Y-88350000D01*
X71295000Y-88350000D02*
X85495000Y-88350000D01*
X85495000Y-74150000D02*
X71295000Y-74150000D01*
X85495000Y-88350000D02*
X85495000Y-74150000D01*
%TO.C,SW19*%
X61770000Y-150350000D02*
X61770000Y-164550000D01*
X61770000Y-164550000D02*
X75970000Y-164550000D01*
X75970000Y-150350000D02*
X61770000Y-150350000D01*
X75970000Y-164550000D02*
X75970000Y-150350000D01*
%TO.C,SW17*%
X90345000Y-131300000D02*
X90345000Y-145500000D01*
X90345000Y-145500000D02*
X104545000Y-145500000D01*
X104545000Y-131300000D02*
X90345000Y-131300000D01*
X104545000Y-145500000D02*
X104545000Y-131300000D01*
%TO.C,SW5*%
X128445000Y-74150000D02*
X128445000Y-88350000D01*
X128445000Y-88350000D02*
X142645000Y-88350000D01*
X142645000Y-74150000D02*
X128445000Y-74150000D01*
X142645000Y-88350000D02*
X142645000Y-74150000D01*
%TO.C,SW11*%
X71295000Y-112250000D02*
X71295000Y-126450000D01*
X71295000Y-126450000D02*
X85495000Y-126450000D01*
X85495000Y-112250000D02*
X71295000Y-112250000D01*
X85495000Y-126450000D02*
X85495000Y-112250000D01*
%TO.C,SW7*%
X71295000Y-93200000D02*
X71295000Y-107400000D01*
X71295000Y-107400000D02*
X85495000Y-107400000D01*
X85495000Y-93200000D02*
X71295000Y-93200000D01*
X85495000Y-107400000D02*
X85495000Y-93200000D01*
%TO.C,REF\u002A\u002A*%
X45640000Y-56250000D02*
X46460000Y-56250000D01*
X45640000Y-64470000D02*
X45640000Y-56250000D01*
X45640000Y-64470000D02*
X46460000Y-64470000D01*
X46460000Y-56250000D02*
X46460000Y-56460000D01*
X46460000Y-56460000D02*
X47856000Y-56460000D01*
X46460000Y-64260000D02*
X47856000Y-64260000D01*
X46460000Y-64470000D02*
X46460000Y-64260000D01*
X46940000Y-50360000D02*
X46940000Y-52850000D01*
X46940000Y-52850000D02*
X47853520Y-52850000D01*
X46940000Y-54197939D02*
X46940000Y-52850000D01*
X46940000Y-56125000D02*
X46940000Y-55122061D01*
X46940000Y-64595000D02*
X46940000Y-56125000D01*
X46940000Y-65597939D02*
X46940000Y-64595000D01*
X46940000Y-67870000D02*
X46940000Y-66522060D01*
X46940000Y-67870000D02*
X47853520Y-67870000D01*
X46940000Y-70360000D02*
X46940000Y-67870000D01*
X47003000Y-70630000D02*
X98097000Y-70630000D01*
X47550000Y-49750000D02*
X97550000Y-49750000D01*
X47550000Y-70970000D02*
X97550000Y-70970000D01*
X49220000Y-71290000D02*
X47620000Y-71290000D01*
X50244000Y-56460000D02*
X51460000Y-56460000D01*
X50244000Y-64260000D02*
X51460000Y-64260000D01*
X50246480Y-52850000D02*
X94853520Y-52850000D01*
X50246480Y-67870000D02*
X94853520Y-67870000D01*
X51460000Y-56460000D02*
X51460000Y-64260000D01*
X97246480Y-52850000D02*
X98160000Y-52850000D01*
X97246480Y-67870000D02*
X98160000Y-67870000D01*
X98097000Y-50090000D02*
X47003000Y-50090000D01*
X98160000Y-54197939D02*
X98160000Y-50360000D01*
X98160000Y-55122061D02*
X98160000Y-56760000D01*
X98160000Y-56760000D02*
X98160000Y-63960000D01*
X98160000Y-63960000D02*
X98160000Y-65597939D01*
X98160000Y-70360000D02*
X98160000Y-66522061D01*
X46940000Y-50360000D02*
G75*
G02*
X47550000Y-49750000I610000J0D01*
G01*
X47550000Y-70970000D02*
G75*
G02*
X46940000Y-70360000I0J610000D01*
G01*
X97550000Y-49750000D02*
G75*
G02*
X98160000Y-50360000I0J-610000D01*
G01*
X98160000Y-70360000D02*
G75*
G02*
X97550000Y-70970000I-609901J-99D01*
G01*
%TO.C,SW4*%
X109395000Y-74150000D02*
X109395000Y-88350000D01*
X109395000Y-88350000D02*
X123595000Y-88350000D01*
X123595000Y-74150000D02*
X109395000Y-74150000D01*
X123595000Y-88350000D02*
X123595000Y-74150000D01*
%TO.C,SW10*%
X52245000Y-112250000D02*
X52245000Y-126450000D01*
X52245000Y-126450000D02*
X66445000Y-126450000D01*
X66445000Y-112250000D02*
X52245000Y-112250000D01*
X66445000Y-126450000D02*
X66445000Y-112250000D01*
%TO.C,SW14*%
X128445000Y-112250000D02*
X128445000Y-126450000D01*
X128445000Y-126450000D02*
X142645000Y-126450000D01*
X142645000Y-112250000D02*
X128445000Y-112250000D01*
X142645000Y-126450000D02*
X142645000Y-112250000D01*
%TO.C,SW13*%
X109395000Y-102725000D02*
X109395000Y-116925000D01*
X109395000Y-116925000D02*
X123595000Y-116925000D01*
X123595000Y-102725000D02*
X109395000Y-102725000D01*
X123595000Y-116925000D02*
X123595000Y-102725000D01*
%TO.C,SW3*%
X90345000Y-74150000D02*
X90345000Y-88350000D01*
X90345000Y-88350000D02*
X104545000Y-88350000D01*
X104545000Y-74150000D02*
X90345000Y-74150000D01*
X104545000Y-88350000D02*
X104545000Y-74150000D01*
%TO.C,SW20*%
X90345000Y-150350000D02*
X90345000Y-164550000D01*
X90345000Y-164550000D02*
X104545000Y-164550000D01*
X104545000Y-150350000D02*
X90345000Y-150350000D01*
X104545000Y-164550000D02*
X104545000Y-150350000D01*
%TO.C,SW8*%
X90345000Y-93200000D02*
X90345000Y-107400000D01*
X90345000Y-107400000D02*
X104545000Y-107400000D01*
X104545000Y-93200000D02*
X90345000Y-93200000D01*
X104545000Y-107400000D02*
X104545000Y-93200000D01*
%TO.C,SW22*%
X128445000Y-150350000D02*
X128445000Y-164550000D01*
X128445000Y-164550000D02*
X142645000Y-164550000D01*
X142645000Y-150350000D02*
X128445000Y-150350000D01*
X142645000Y-164550000D02*
X142645000Y-150350000D01*
%TO.C,SW9*%
X128445000Y-93200000D02*
X128445000Y-107400000D01*
X128445000Y-107400000D02*
X142645000Y-107400000D01*
X142645000Y-93200000D02*
X128445000Y-93200000D01*
X142645000Y-107400000D02*
X142645000Y-93200000D01*
%TD*%
%LPC*%
D12*
%TO.C,SW16*%
X73315000Y-138400000D03*
D13*
X74585000Y-135860000D03*
D14*
X78395000Y-138400000D03*
D13*
X80935000Y-133320000D03*
D12*
X83475000Y-138400000D03*
%TD*%
D15*
%TO.C,ST19*%
X56932000Y-150465000D03*
D16*
X56932000Y-165675000D03*
D15*
X80808000Y-150465000D03*
D16*
X80808000Y-165675000D03*
%TD*%
D12*
%TO.C,SW6*%
X54265000Y-100300000D03*
D13*
X55535000Y-97760000D03*
D14*
X59345000Y-100300000D03*
D13*
X61885000Y-95220000D03*
D12*
X64425000Y-100300000D03*
%TD*%
D17*
%TO.C,REF\u002A\u002A*%
X145000000Y-46000000D03*
%TD*%
D12*
%TO.C,SW15*%
X54265000Y-138400000D03*
D13*
X55535000Y-135860000D03*
D14*
X59345000Y-138400000D03*
D13*
X61885000Y-133320000D03*
D12*
X64425000Y-138400000D03*
%TD*%
%TO.C,SW1*%
X54265000Y-81250000D03*
D13*
X55535000Y-78710000D03*
D14*
X59345000Y-81250000D03*
D13*
X61885000Y-76170000D03*
D12*
X64425000Y-81250000D03*
%TD*%
%TO.C,SW12*%
X92365000Y-119350000D03*
D13*
X93635000Y-116810000D03*
D14*
X97445000Y-119350000D03*
D13*
X99985000Y-114270000D03*
D12*
X102525000Y-119350000D03*
%TD*%
%TO.C,SW21*%
X111415000Y-147925000D03*
D13*
X112685000Y-145385000D03*
D14*
X116495000Y-147925000D03*
D13*
X119035000Y-142845000D03*
D12*
X121575000Y-147925000D03*
%TD*%
%TO.C,SW18*%
X130465000Y-138400000D03*
D13*
X131735000Y-135860000D03*
D14*
X135545000Y-138400000D03*
D13*
X138085000Y-133320000D03*
D12*
X140625000Y-138400000D03*
%TD*%
%TO.C,SW2*%
X73315000Y-81250000D03*
D13*
X74585000Y-78710000D03*
D14*
X78395000Y-81250000D03*
D13*
X80935000Y-76170000D03*
D12*
X83475000Y-81250000D03*
%TD*%
D17*
%TO.C,REF\u002A\u002A*%
X145000000Y-167000000D03*
%TD*%
D12*
%TO.C,SW19*%
X63790000Y-157450000D03*
D13*
X65060000Y-154910000D03*
D14*
X68870000Y-157450000D03*
D13*
X71410000Y-152370000D03*
D12*
X73950000Y-157450000D03*
%TD*%
D17*
%TO.C,REF\u002A\u002A*%
X50000000Y-46000000D03*
%TD*%
D12*
%TO.C,SW17*%
X92365000Y-138400000D03*
D13*
X93635000Y-135860000D03*
D14*
X97445000Y-138400000D03*
D13*
X99985000Y-133320000D03*
D12*
X102525000Y-138400000D03*
%TD*%
%TO.C,SW5*%
X130465000Y-81250000D03*
D13*
X131735000Y-78710000D03*
D14*
X135545000Y-81250000D03*
D13*
X138085000Y-76170000D03*
D12*
X140625000Y-81250000D03*
%TD*%
%TO.C,SW11*%
X73315000Y-119350000D03*
D13*
X74585000Y-116810000D03*
D14*
X78395000Y-119350000D03*
D13*
X80935000Y-114270000D03*
D12*
X83475000Y-119350000D03*
%TD*%
%TO.C,SW7*%
X73315000Y-100300000D03*
D13*
X74585000Y-97760000D03*
D14*
X78395000Y-100300000D03*
D13*
X80935000Y-95220000D03*
D12*
X83475000Y-100300000D03*
%TD*%
D18*
%TO.C,REF\u002A\u002A*%
X96680000Y-51470000D03*
X94140000Y-51470000D03*
D19*
X91600000Y-51470000D03*
D18*
X89060000Y-51470000D03*
X86520000Y-51470000D03*
X83980000Y-51470000D03*
X81440000Y-51470000D03*
D19*
X78900000Y-51470000D03*
D18*
X76360000Y-51470000D03*
X71280000Y-51470000D03*
X68740000Y-51470000D03*
D19*
X66200000Y-51470000D03*
D18*
X63660000Y-51470000D03*
X61120000Y-51470000D03*
X58580000Y-51470000D03*
X56040000Y-51470000D03*
D19*
X53500000Y-51470000D03*
D18*
X50960000Y-51470000D03*
X48420000Y-51470000D03*
D20*
X53500000Y-69250000D03*
X66200000Y-69250000D03*
X78900000Y-69250000D03*
X91600000Y-69250000D03*
D21*
X48420000Y-69250000D03*
D18*
X50960000Y-69250000D03*
X56040000Y-69250000D03*
X58580000Y-69250000D03*
X61120000Y-69250000D03*
X63660000Y-69250000D03*
X68740000Y-69250000D03*
X71280000Y-69250000D03*
X73820000Y-69250000D03*
X76360000Y-69250000D03*
X81440000Y-69250000D03*
X83980000Y-69250000D03*
X86520000Y-69250000D03*
X89060000Y-69250000D03*
X94140000Y-69250000D03*
X96680000Y-69250000D03*
X73820000Y-51470000D03*
%TD*%
D12*
%TO.C,SW4*%
X111415000Y-81250000D03*
D13*
X112685000Y-78710000D03*
D14*
X116495000Y-81250000D03*
D13*
X119035000Y-76170000D03*
D12*
X121575000Y-81250000D03*
%TD*%
%TO.C,SW10*%
X54265000Y-119350000D03*
D13*
X55535000Y-116810000D03*
D14*
X59345000Y-119350000D03*
D13*
X61885000Y-114270000D03*
D12*
X64425000Y-119350000D03*
%TD*%
%TO.C,SW14*%
X130465000Y-119350000D03*
D13*
X131735000Y-116810000D03*
D14*
X135545000Y-119350000D03*
D13*
X138085000Y-114270000D03*
D12*
X140625000Y-119350000D03*
%TD*%
%TO.C,SW13*%
X111415000Y-109825000D03*
D13*
X112685000Y-107285000D03*
D14*
X116495000Y-109825000D03*
D13*
X119035000Y-104745000D03*
D12*
X121575000Y-109825000D03*
%TD*%
%TO.C,SW3*%
X92365000Y-81250000D03*
D13*
X93635000Y-78710000D03*
D14*
X97445000Y-81250000D03*
D13*
X99985000Y-76170000D03*
D12*
X102525000Y-81250000D03*
%TD*%
%TO.C,SW20*%
X92365000Y-157450000D03*
D13*
X93635000Y-154910000D03*
D14*
X97445000Y-157450000D03*
D13*
X99985000Y-152370000D03*
D12*
X102525000Y-157450000D03*
%TD*%
%TO.C,SW8*%
X92365000Y-100300000D03*
D13*
X93635000Y-97760000D03*
D14*
X97445000Y-100300000D03*
D13*
X99985000Y-95220000D03*
D12*
X102525000Y-100300000D03*
%TD*%
%TO.C,SW22*%
X130465000Y-157450000D03*
D13*
X131735000Y-154910000D03*
D14*
X135545000Y-157450000D03*
D13*
X138085000Y-152370000D03*
D12*
X140625000Y-157450000D03*
%TD*%
D17*
%TO.C,REF\u002A\u002A*%
X50000000Y-167000000D03*
%TD*%
D12*
%TO.C,SW9*%
X130465000Y-100300000D03*
D13*
X131735000Y-97760000D03*
D14*
X135545000Y-100300000D03*
D13*
X138085000Y-95220000D03*
D12*
X140625000Y-100300000D03*
%TD*%
%LPD*%
M02*
