%TF.GenerationSoftware,KiCad,Pcbnew,9.0.6*%
%TF.CreationDate,2025-11-16T09:10:11-08:00*%
%TF.ProjectId,MacroPad,4d616372-6f50-4616-942e-6b696361645f,rev?*%
%TF.SameCoordinates,Original*%
%TF.FileFunction,Soldermask,Bot*%
%TF.FilePolarity,Negative*%
%FSLAX46Y46*%
G04 Gerber Fmt 4.6, Leading zero omitted, Abs format (unit mm)*
G04 Created by KiCad (PCBNEW 9.0.6) date 2025-11-16 09:10:11*
%MOMM*%
%LPD*%
G01*
G04 APERTURE LIST*
G04 Aperture macros list*
%AMRoundRect*
0 Rectangle with rounded corners*
0 $1 Rounding radius*
0 $2 $3 $4 $5 $6 $7 $8 $9 X,Y pos of 4 corners*
0 Add a 4 corners polygon primitive as box body*
4,1,4,$2,$3,$4,$5,$6,$7,$8,$9,$2,$3,0*
0 Add four circle primitives for the rounded corners*
1,1,$1+$1,$2,$3*
1,1,$1+$1,$4,$5*
1,1,$1+$1,$6,$7*
1,1,$1+$1,$8,$9*
0 Add four rect primitives between the rounded corners*
20,1,$1+$1,$2,$3,$4,$5,0*
20,1,$1+$1,$4,$5,$6,$7,0*
20,1,$1+$1,$6,$7,$8,$9,0*
20,1,$1+$1,$8,$9,$2,$3,0*%
%AMFreePoly0*
4,1,37,0.000000,0.796148,0.078414,0.796148,0.232228,0.765552,0.377117,0.705537,0.507515,0.618408,0.618408,0.507515,0.705537,0.377117,0.765552,0.232228,0.796148,0.078414,0.796148,-0.078414,0.765552,-0.232228,0.705537,-0.377117,0.618408,-0.507515,0.507515,-0.618408,0.377117,-0.705537,0.232228,-0.765552,0.078414,-0.796148,0.000000,-0.796148,0.000000,-0.800000,-0.600000,-0.800000,
-0.603843,-0.796157,-0.639018,-0.796157,-0.711114,-0.766294,-0.766294,-0.711114,-0.796157,-0.639018,-0.796157,-0.603843,-0.800000,-0.600000,-0.800000,0.600000,-0.796157,0.603843,-0.796157,0.639018,-0.766294,0.711114,-0.711114,0.766294,-0.639018,0.796157,-0.603843,0.796157,-0.600000,0.800000,0.000000,0.800000,0.000000,0.796148,0.000000,0.796148,$1*%
%AMFreePoly1*
4,1,37,0.603843,0.796157,0.639018,0.796157,0.711114,0.766294,0.766294,0.711114,0.796157,0.639018,0.796157,0.603843,0.800000,0.600000,0.800000,-0.600000,0.796157,-0.603843,0.796157,-0.639018,0.766294,-0.711114,0.711114,-0.766294,0.639018,-0.796157,0.603843,-0.796157,0.600000,-0.800000,0.000000,-0.800000,0.000000,-0.796148,-0.078414,-0.796148,-0.232228,-0.765552,-0.377117,-0.705537,
-0.507515,-0.618408,-0.618408,-0.507515,-0.705537,-0.377117,-0.765552,-0.232228,-0.796148,-0.078414,-0.796148,0.078414,-0.765552,0.232228,-0.705537,0.377117,-0.618408,0.507515,-0.507515,0.618408,-0.377117,0.705537,-0.232228,0.765552,-0.078414,0.796148,0.000000,0.796148,0.000000,0.800000,0.600000,0.800000,0.603843,0.796157,0.603843,0.796157,$1*%
G04 Aperture macros list end*
%ADD10C,1.750000*%
%ADD11C,3.050000*%
%ADD12C,4.000000*%
%ADD13RoundRect,0.250000X-1.025000X-1.000000X1.025000X-1.000000X1.025000X1.000000X-1.025000X1.000000X0*%
%ADD14C,3.048000*%
%ADD15C,3.987800*%
%ADD16C,2.200000*%
%ADD17C,1.600000*%
%ADD18FreePoly0,90.000000*%
%ADD19FreePoly1,90.000000*%
%ADD20RoundRect,0.200000X0.600000X-0.600000X0.600000X0.600000X-0.600000X0.600000X-0.600000X-0.600000X0*%
%ADD21RoundRect,0.225000X0.375000X-0.225000X0.375000X0.225000X-0.375000X0.225000X-0.375000X-0.225000X0*%
%ADD22R,1.000000X0.750000*%
G04 APERTURE END LIST*
D10*
%TO.C,SW16*%
X73315000Y-138400000D03*
D11*
X74585000Y-135860000D03*
D12*
X78395000Y-138400000D03*
D11*
X80935000Y-133320000D03*
D10*
X83475000Y-138400000D03*
D13*
X71310000Y-135860000D03*
X84237000Y-133320000D03*
%TD*%
D14*
%TO.C,ST19*%
X56932000Y-150465000D03*
D15*
X56932000Y-165675000D03*
D14*
X80808000Y-150465000D03*
D15*
X80808000Y-165675000D03*
%TD*%
D10*
%TO.C,SW6*%
X54265000Y-100300000D03*
D11*
X55535000Y-97760000D03*
D12*
X59345000Y-100300000D03*
D11*
X61885000Y-95220000D03*
D10*
X64425000Y-100300000D03*
D13*
X52260000Y-97760000D03*
X65187000Y-95220000D03*
%TD*%
D16*
%TO.C,REF\u002A\u002A*%
X145000000Y-46000000D03*
%TD*%
D10*
%TO.C,SW15*%
X54265000Y-138400000D03*
D11*
X55535000Y-135860000D03*
D12*
X59345000Y-138400000D03*
D11*
X61885000Y-133320000D03*
D10*
X64425000Y-138400000D03*
D13*
X52260000Y-135860000D03*
X65187000Y-133320000D03*
%TD*%
D10*
%TO.C,SW1*%
X54265000Y-81250000D03*
D11*
X55535000Y-78710000D03*
D12*
X59345000Y-81250000D03*
D11*
X61885000Y-76170000D03*
D10*
X64425000Y-81250000D03*
D13*
X52260000Y-78710000D03*
X65187000Y-76170000D03*
%TD*%
D10*
%TO.C,SW12*%
X92365000Y-119350000D03*
D11*
X93635000Y-116810000D03*
D12*
X97445000Y-119350000D03*
D11*
X99985000Y-114270000D03*
D10*
X102525000Y-119350000D03*
D13*
X90360000Y-116810000D03*
X103287000Y-114270000D03*
%TD*%
D10*
%TO.C,SW21*%
X111415000Y-147925000D03*
D11*
X112685000Y-145385000D03*
D12*
X116495000Y-147925000D03*
D11*
X119035000Y-142845000D03*
D10*
X121575000Y-147925000D03*
D13*
X109410000Y-145385000D03*
X122337000Y-142845000D03*
%TD*%
D10*
%TO.C,SW18*%
X130465000Y-138400000D03*
D11*
X131735000Y-135860000D03*
D12*
X135545000Y-138400000D03*
D11*
X138085000Y-133320000D03*
D10*
X140625000Y-138400000D03*
D13*
X128460000Y-135860000D03*
X141387000Y-133320000D03*
%TD*%
D10*
%TO.C,SW2*%
X73315000Y-81250000D03*
D11*
X74585000Y-78710000D03*
D12*
X78395000Y-81250000D03*
D11*
X80935000Y-76170000D03*
D10*
X83475000Y-81250000D03*
D13*
X71310000Y-78710000D03*
X84237000Y-76170000D03*
%TD*%
D16*
%TO.C,REF\u002A\u002A*%
X145000000Y-167000000D03*
%TD*%
D10*
%TO.C,SW19*%
X63790000Y-157450000D03*
D11*
X65060000Y-154910000D03*
D12*
X68870000Y-157450000D03*
D11*
X71410000Y-152370000D03*
D10*
X73950000Y-157450000D03*
D13*
X61785000Y-154910000D03*
X74712000Y-152370000D03*
%TD*%
D16*
%TO.C,REF\u002A\u002A*%
X50000000Y-46000000D03*
%TD*%
D10*
%TO.C,SW17*%
X92365000Y-138400000D03*
D11*
X93635000Y-135860000D03*
D12*
X97445000Y-138400000D03*
D11*
X99985000Y-133320000D03*
D10*
X102525000Y-138400000D03*
D13*
X90360000Y-135860000D03*
X103287000Y-133320000D03*
%TD*%
D10*
%TO.C,SW5*%
X130465000Y-81250000D03*
D11*
X131735000Y-78710000D03*
D12*
X135545000Y-81250000D03*
D11*
X138085000Y-76170000D03*
D10*
X140625000Y-81250000D03*
D13*
X128460000Y-78710000D03*
X141387000Y-76170000D03*
%TD*%
D10*
%TO.C,SW11*%
X73315000Y-119350000D03*
D11*
X74585000Y-116810000D03*
D12*
X78395000Y-119350000D03*
D11*
X80935000Y-114270000D03*
D10*
X83475000Y-119350000D03*
D13*
X71310000Y-116810000D03*
X84237000Y-114270000D03*
%TD*%
D10*
%TO.C,SW7*%
X73315000Y-100300000D03*
D11*
X74585000Y-97760000D03*
D12*
X78395000Y-100300000D03*
D11*
X80935000Y-95220000D03*
D10*
X83475000Y-100300000D03*
D13*
X71310000Y-97760000D03*
X84237000Y-95220000D03*
%TD*%
D17*
%TO.C,REF\u002A\u002A*%
X96680000Y-51470000D03*
X94140000Y-51470000D03*
D18*
X91600000Y-51470000D03*
D17*
X89060000Y-51470000D03*
X86520000Y-51470000D03*
X83980000Y-51470000D03*
X81440000Y-51470000D03*
D18*
X78900000Y-51470000D03*
D17*
X76360000Y-51470000D03*
X71280000Y-51470000D03*
X68740000Y-51470000D03*
D18*
X66200000Y-51470000D03*
D17*
X63660000Y-51470000D03*
X61120000Y-51470000D03*
X58580000Y-51470000D03*
X56040000Y-51470000D03*
D18*
X53500000Y-51470000D03*
D17*
X50960000Y-51470000D03*
X48420000Y-51470000D03*
D19*
X53500000Y-69250000D03*
X66200000Y-69250000D03*
X78900000Y-69250000D03*
X91600000Y-69250000D03*
D20*
X48420000Y-69250000D03*
D17*
X50960000Y-69250000D03*
X56040000Y-69250000D03*
X58580000Y-69250000D03*
X61120000Y-69250000D03*
X63660000Y-69250000D03*
X68740000Y-69250000D03*
X71280000Y-69250000D03*
X73820000Y-69250000D03*
X76360000Y-69250000D03*
X81440000Y-69250000D03*
X83980000Y-69250000D03*
X86520000Y-69250000D03*
X89060000Y-69250000D03*
X94140000Y-69250000D03*
X96680000Y-69250000D03*
X73820000Y-51470000D03*
%TD*%
D10*
%TO.C,SW4*%
X111415000Y-81250000D03*
D11*
X112685000Y-78710000D03*
D12*
X116495000Y-81250000D03*
D11*
X119035000Y-76170000D03*
D10*
X121575000Y-81250000D03*
D13*
X109410000Y-78710000D03*
X122337000Y-76170000D03*
%TD*%
D10*
%TO.C,SW10*%
X54265000Y-119350000D03*
D11*
X55535000Y-116810000D03*
D12*
X59345000Y-119350000D03*
D11*
X61885000Y-114270000D03*
D10*
X64425000Y-119350000D03*
D13*
X52260000Y-116810000D03*
X65187000Y-114270000D03*
%TD*%
D10*
%TO.C,SW14*%
X130465000Y-119350000D03*
D11*
X131735000Y-116810000D03*
D12*
X135545000Y-119350000D03*
D11*
X138085000Y-114270000D03*
D10*
X140625000Y-119350000D03*
D13*
X128460000Y-116810000D03*
X141387000Y-114270000D03*
%TD*%
D10*
%TO.C,SW13*%
X111415000Y-109825000D03*
D11*
X112685000Y-107285000D03*
D12*
X116495000Y-109825000D03*
D11*
X119035000Y-104745000D03*
D10*
X121575000Y-109825000D03*
D13*
X109410000Y-107285000D03*
X122337000Y-104745000D03*
%TD*%
D10*
%TO.C,SW3*%
X92365000Y-81250000D03*
D11*
X93635000Y-78710000D03*
D12*
X97445000Y-81250000D03*
D11*
X99985000Y-76170000D03*
D10*
X102525000Y-81250000D03*
D13*
X90360000Y-78710000D03*
X103287000Y-76170000D03*
%TD*%
D10*
%TO.C,SW20*%
X92365000Y-157450000D03*
D11*
X93635000Y-154910000D03*
D12*
X97445000Y-157450000D03*
D11*
X99985000Y-152370000D03*
D10*
X102525000Y-157450000D03*
D13*
X90360000Y-154910000D03*
X103287000Y-152370000D03*
%TD*%
D10*
%TO.C,SW8*%
X92365000Y-100300000D03*
D11*
X93635000Y-97760000D03*
D12*
X97445000Y-100300000D03*
D11*
X99985000Y-95220000D03*
D10*
X102525000Y-100300000D03*
D13*
X90360000Y-97760000D03*
X103287000Y-95220000D03*
%TD*%
D10*
%TO.C,SW22*%
X130465000Y-157450000D03*
D11*
X131735000Y-154910000D03*
D12*
X135545000Y-157450000D03*
D11*
X138085000Y-152370000D03*
D10*
X140625000Y-157450000D03*
D13*
X128460000Y-154910000D03*
X141387000Y-152370000D03*
%TD*%
D16*
%TO.C,REF\u002A\u002A*%
X50000000Y-167000000D03*
%TD*%
D10*
%TO.C,SW9*%
X130465000Y-100300000D03*
D11*
X131735000Y-97760000D03*
D12*
X135545000Y-100300000D03*
D11*
X138085000Y-95220000D03*
D10*
X140625000Y-100300000D03*
D13*
X128460000Y-97760000D03*
X141387000Y-95220000D03*
%TD*%
D21*
%TO.C,D19*%
X73950000Y-163100000D03*
X73950000Y-159800000D03*
%TD*%
%TO.C,D12*%
X102525000Y-125000000D03*
X102525000Y-121700000D03*
%TD*%
%TO.C,D3*%
X102525000Y-86900000D03*
X102525000Y-83600000D03*
%TD*%
%TO.C,D21*%
X121575000Y-153575000D03*
X121575000Y-150275000D03*
%TD*%
%TO.C,D9*%
X140625000Y-105950000D03*
X140625000Y-102650000D03*
%TD*%
%TO.C,D5*%
X140625000Y-86900000D03*
X140625000Y-83600000D03*
%TD*%
%TO.C,D14*%
X140625000Y-125000000D03*
X140625000Y-121700000D03*
%TD*%
%TO.C,D15*%
X64425000Y-144050000D03*
X64425000Y-140750000D03*
%TD*%
%TO.C,D6*%
X64425000Y-105950000D03*
X64425000Y-102650000D03*
%TD*%
D22*
%TO.C,SWR*%
X118000000Y-48125000D03*
X112000000Y-48125000D03*
X118000000Y-51875000D03*
X112000000Y-51875000D03*
%TD*%
D21*
%TO.C,D11*%
X83475000Y-125000000D03*
X83475000Y-121700000D03*
%TD*%
%TO.C,D2*%
X83475000Y-86900000D03*
X83475000Y-83600000D03*
%TD*%
%TO.C,D1*%
X64425000Y-86900000D03*
X64425000Y-83600000D03*
%TD*%
%TO.C,D4*%
X121575000Y-86900000D03*
X121575000Y-83600000D03*
%TD*%
%TO.C,D13*%
X121575000Y-115475000D03*
X121575000Y-112175000D03*
%TD*%
%TO.C,D10*%
X64425000Y-125000000D03*
X64425000Y-121700000D03*
%TD*%
%TO.C,D17*%
X102525000Y-144050000D03*
X102525000Y-140750000D03*
%TD*%
%TO.C,D18*%
X140625000Y-144050000D03*
X140625000Y-140750000D03*
%TD*%
%TO.C,D7*%
X83475000Y-105950000D03*
X83475000Y-102650000D03*
%TD*%
%TO.C,D8*%
X102525000Y-105950000D03*
X102525000Y-102650000D03*
%TD*%
%TO.C,D22*%
X140625000Y-163100000D03*
X140625000Y-159800000D03*
%TD*%
%TO.C,D20*%
X102525000Y-163100000D03*
X102525000Y-159800000D03*
%TD*%
%TO.C,D16*%
X83475000Y-144050000D03*
X83475000Y-140750000D03*
%TD*%
M02*
