M48
; DRILL file {KiCad 9.0.6} date 2025-11-16T09:10:09-0800
; FORMAT={-:-/ absolute / metric / decimal}
; #@! TF.CreationDate,2025-11-16T09:10:09-08:00
; #@! TF.GenerationSoftware,Kicad,Pcbnew,9.0.6
; #@! TF.FileFunction,Plated,1,2,PTH
FMAT,2
METRIC
; #@! TA.AperFunction,Plated,PTH,ViaDrill
T1C0.300
; #@! TA.AperFunction,Plated,PTH,ComponentDrill
T2C1.000
%
G90
G05
T1
X61.75Y-58.0
X68.0Y-99.0
X68.0Y-117.0
X68.0Y-136.0
X72.0Y-89.0
X73.0Y-129.0
X74.0Y-111.0
X76.0Y-85.0
X78.0Y-76.0
X81.0Y-72.0
X82.0Y-80.0
X84.964Y-73.15
X85.0Y-71.75
X85.75Y-73.0
X86.0Y-86.0
X86.0Y-88.0
X86.0Y-102.0
X86.0Y-107.0
X86.0Y-126.0
X87.0Y-86.0
X87.0Y-88.0
X87.0Y-124.0
X87.0Y-125.0
X87.645Y-85.0
X88.245Y-78.65
X88.245Y-97.65
X88.245Y-116.65
X88.245Y-135.65
X88.245Y-154.65
X91.0Y-128.0
X93.0Y-110.0
X106.0Y-85.0
X106.0Y-89.0
X106.0Y-102.0
X106.0Y-104.0
X106.0Y-124.0
X106.0Y-126.0
X106.0Y-140.0
X106.0Y-142.0
X107.245Y-78.65
X107.245Y-107.15
X107.245Y-145.15
X126.245Y-78.65
X126.245Y-97.65
X126.245Y-116.65
X126.245Y-135.65
X126.245Y-154.65
T2
X48.42Y-51.47
X48.42Y-69.25
X50.96Y-51.47
X50.96Y-69.25
X53.5Y-51.47
X53.5Y-69.25
X56.04Y-51.47
X56.04Y-69.25
X58.58Y-51.47
X58.58Y-69.25
X61.12Y-51.47
X61.12Y-69.25
X63.66Y-51.47
X63.66Y-69.25
X66.2Y-51.47
X66.2Y-69.25
X68.74Y-51.47
X68.74Y-69.25
X71.28Y-51.47
X71.28Y-69.25
X73.82Y-51.47
X73.82Y-69.25
X76.36Y-51.47
X76.36Y-69.25
X78.9Y-51.47
X78.9Y-69.25
X81.44Y-51.47
X81.44Y-69.25
X83.98Y-51.47
X83.98Y-69.25
X86.52Y-51.47
X86.52Y-69.25
X89.06Y-51.47
X89.06Y-69.25
X91.6Y-51.47
X91.6Y-69.25
X94.14Y-51.47
X94.14Y-69.25
X96.68Y-51.47
X96.68Y-69.25
M30
